CooperHewittInterpol2-Bold.ufo
<glyph name="dollar" format="1">
  <advance width="600"/>
  <unicode hex="0024"/>
  <outline>
    <contour>
      <point x="300" y="601" type="line" smooth="yes"/>
      <point x="354" y="588" type="line" smooth="yes"/>
      <point x="385" y="550" type="line" smooth="yes"/>
      <point x="394" y="491" type="line" smooth="yes"/>
      <point x="551" y="491" type="line" smooth="yes"/>
      <point x="551" y="505" type="line" smooth="yes"/>
      <point x="539" y="593" type="line" smooth="yes"/>
      <point x="501" y="659" type="line" smooth="yes"/>
      <point x="438" y="704" type="line" smooth="yes"/>
      <point x="470" y="840" type="line" smooth="yes"/>
      <point x="349" y="840" type="line" smooth="yes"/>
      <point x="322" y="731" type="line" smooth="yes"/>
      <point x="300" y="731" type="line" smooth="yes"/>
      <point x="169" y="708" type="line" smooth="yes"/>
      <point x="82" y="641" type="line" smooth="yes"/>
      <point x="50" y="531" type="line" smooth="yes"/>
      <point x="50" y="521" type="line" smooth="yes"/>
      <point x="74" y="427" type="line" smooth="yes"/>
      <point x="147" y="366" type="line" smooth="yes"/>
      <point x="267" y="332" type="line" smooth="yes"/>
      <point x="347" y="314" type="line" smooth="yes"/>
      <point x="386" y="288" type="line" smooth="yes"/>
      <point x="396" y="251" type="line" smooth="yes"/>
      <point x="396" y="246" type="line" smooth="yes"/>
      <point x="386" y="211" type="line" smooth="yes"/>
      <point x="357" y="188" type="line" smooth="yes"/>
      <point x="307" y="180" type="line" smooth="yes"/>
      <point x="302" y="180" type="line" smooth="yes"/>
      <point x="245" y="194" type="line" smooth="yes"/>
      <point x="213" y="229" type="line" smooth="yes"/>
      <point x="202" y="281" type="line" smooth="yes"/>
      <point x="43" y="281" type="line" smooth="yes"/>
      <point x="43" y="275" type="line" smooth="yes"/>
      <point x="57" y="185" type="line" smooth="yes"/>
      <point x="98" y="119" type="line" smooth="yes"/>
      <point x="166" y="75" type="line" smooth="yes"/>
      <point x="134" y="-60" type="line" smooth="yes"/>
      <point x="255" y="-60" type="line" smooth="yes"/>
      <point x="281" y="50" type="line" smooth="yes"/>
      <point x="302" y="50" type="line" smooth="yes"/>
      <point x="443" y="74" type="line" smooth="yes"/>
      <point x="529" y="143" type="line" smooth="yes"/>
      <point x="558" y="253" type="line" smooth="yes"/>
      <point x="558" y="263" type="line" smooth="yes"/>
      <point x="533" y="359" type="line" smooth="yes"/>
      <point x="458" y="421" type="line" smooth="yes"/>
      <point x="329" y="455" type="line" smooth="yes"/>
      <point x="253" y="472" type="line" smooth="yes"/>
      <point x="218" y="497" type="line" smooth="yes"/>
      <point x="209" y="530" type="line" smooth="yes"/>
      <point x="209" y="535" type="line" smooth="yes"/>
      <point x="220" y="571" type="line" smooth="yes"/>
      <point x="249" y="593" type="line" smooth="yes"/>
      <point x="292" y="601" type="line" smooth="yes"/>
    </contour>
  </outline>
</glyph>
<glyph name="percent" format="1">
  <advance width="981"/>
  <unicode hex="0025"/>
  <outline>
    <contour>
      <point x="289" y="605" type="line" smooth="yes"/>
      <point x="289" y="592" type="line" smooth="yes"/>
      <point x="280" y="555" type="line" smooth="yes"/>
      <point x="257" y="531" type="line" smooth="yes"/>
      <point x="220" y="522" type="line" smooth="yes"/>
      <point x="214" y="522" type="line" smooth="yes"/>
      <point x="177" y="531" type="line" smooth="yes"/>
      <point x="153" y="555" type="line" smooth="yes"/>
      <point x="144" y="592" type="line" smooth="yes"/>
      <point x="144" y="605" type="line" smooth="yes"/>
      <point x="153" y="642" type="line" smooth="yes"/>
      <point x="177" y="667" type="line" smooth="yes"/>
      <point x="214" y="676" type="line" smooth="yes"/>
      <point x="220" y="676" type="line" smooth="yes"/>
      <point x="257" y="667" type="line" smooth="yes"/>
      <point x="280" y="642" type="line" smooth="yes"/>
    </contour>
    <contour>
      <point x="692" y="175" type="line" smooth="yes"/>
      <point x="692" y="188" type="line" smooth="yes"/>
      <point x="701" y="225" type="line" smooth="yes"/>
      <point x="725" y="249" type="line" smooth="yes"/>
      <point x="762" y="258" type="line" smooth="yes"/>
      <point x="768" y="258" type="line" smooth="yes"/>
      <point x="805" y="249" type="line" smooth="yes"/>
      <point x="828" y="225" type="line" smooth="yes"/>
      <point x="837" y="188" type="line" smooth="yes"/>
      <point x="837" y="175" type="line" smooth="yes"/>
      <point x="828" y="138" type="line" smooth="yes"/>
      <point x="805" y="113" type="line" smooth="yes"/>
      <point x="768" y="104" type="line" smooth="yes"/>
      <point x="762" y="104" type="line" smooth="yes"/>
      <point x="725" y="113" type="line" smooth="yes"/>
      <point x="701" y="138" type="line" smooth="yes"/>
    </contour>
    <contour>
      <point x="575" y="187" type="line" smooth="yes"/>
      <point x="575" y="175" type="line" smooth="yes"/>
      <point x="600" y="72" type="line" smooth="yes"/>
      <point x="667" y="9" type="line" smooth="yes"/>
      <point x="765" y="-13" type="line" smooth="yes"/>
      <point x="862" y="9" type="line" smooth="yes"/>
      <point x="929" y="72" type="line" smooth="yes"/>
      <point x="954" y="175" type="line" smooth="yes"/>
      <point x="954" y="187" type="line" smooth="yes"/>
      <point x="929" y="290" type="line" smooth="yes"/>
      <point x="862" y="354" type="line" smooth="yes"/>
      <point x="765" y="376" type="line" smooth="yes"/>
      <point x="667" y="354" type="line" smooth="yes"/>
      <point x="600" y="290" type="line" smooth="yes"/>
    </contour>
    <contour>
      <point x="296" y="779" type="line" smooth="yes"/>
      <point x="271" y="787" type="line" smooth="yes"/>
      <point x="245" y="791" type="line" smooth="yes"/>
      <point x="217" y="793" type="line" smooth="yes"/>
      <point x="119" y="771" type="line" smooth="yes"/>
      <point x="52" y="708" type="line" smooth="yes"/>
      <point x="27" y="605" type="line" smooth="yes"/>
      <point x="27" y="593" type="line" smooth="yes"/>
      <point x="52" y="490" type="line" smooth="yes"/>
      <point x="119" y="426" type="line" smooth="yes"/>
      <point x="217" y="404" type="line" smooth="yes"/>
      <point x="314" y="426" type="line" smooth="yes"/>
      <point x="381" y="490" type="line" smooth="yes"/>
      <point x="406" y="593" type="line" smooth="yes"/>
      <point x="406" y="605" type="line" smooth="yes"/>
      <point x="406" y="613" type="line" smooth="yes"/>
      <point x="405" y="621" type="line" smooth="yes"/>
      <point x="405" y="628" type="line" smooth="yes"/>
      <point x="420" y="626" type="line" smooth="yes"/>
      <point x="436" y="625" type="line" smooth="yes"/>
      <point x="452" y="625" type="line" smooth="yes"/>
      <point x="482" y="626" type="line" smooth="yes"/>
      <point x="505" y="630" type="line" smooth="yes"/>
      <point x="523" y="633" type="line" smooth="yes"/>
      <point x="259" y="0" type="line" smooth="yes"/>
      <point x="397" y="0" type="line" smooth="yes"/>
      <point x="692" y="708" type="line" smooth="yes"/>
      <point x="692" y="783" type="line" smooth="yes"/>
      <point x="643" y="770" type="line" smooth="yes"/>
      <point x="568" y="757" type="line" smooth="yes"/>
      <point x="481" y="751" type="line" smooth="yes"/>
      <point x="408" y="754" type="line" smooth="yes"/>
      <point x="351" y="762" type="line" smooth="yes"/>
    </contour>
  </outline>
</glyph>
<glyph name="ampersand" format="1">
  <advance width="691"/>
  <unicode hex="0026"/>
  <outline>
    <contour>
      <point x="224" y="608" type="line" smooth="yes"/>
      <point x="230" y="636" type="line" smooth="yes"/>
      <point x="249" y="656" type="line" smooth="yes"/>
      <point x="278" y="663" type="line" smooth="yes"/>
      <point x="284" y="663" type="line" smooth="yes"/>
      <point x="313" y="656" type="line" smooth="yes"/>
      <point x="331" y="636" type="line" smooth="yes"/>
      <point x="337" y="608" type="line" smooth="yes"/>
      <point x="337" y="602" type="line" smooth="yes"/>
      <point x="326" y="563" type="line" smooth="yes"/>
      <point x="297" y="532" type="line" smooth="yes"/>
      <point x="256" y="503" type="line" smooth="yes"/>
      <point x="239" y="535" type="line" smooth="yes"/>
      <point x="228" y="568" type="line" smooth="yes"/>
      <point x="224" y="602" type="line" smooth="yes"/>
    </contour>
    <contour>
      <point x="276" y="123" type="line" smooth="yes"/>
      <point x="223" y="135" type="line" smooth="yes"/>
      <point x="191" y="170" type="line" smooth="yes"/>
      <point x="180" y="225" type="line" smooth="yes"/>
      <point x="180" y="231" type="line" smooth="yes"/>
      <point x="185" y="265" type="line" smooth="yes"/>
      <point x="198" y="294" type="line" smooth="yes"/>
      <point x="219" y="319" type="line" smooth="yes"/>
      <point x="368" y="143" type="line" smooth="yes"/>
      <point x="341" y="132" type="line" smooth="yes"/>
      <point x="312" y="125" type="line" smooth="yes"/>
      <point x="281" y="123" type="line" smooth="yes"/>
    </contour>
    <contour>
      <point x="250" y="-13" type="line" smooth="yes"/>
      <point x="327" y="-7" type="line" smooth="yes"/>
      <point x="396" y="10" type="line" smooth="yes"/>
      <point x="457" y="37" type="line" smooth="yes"/>
      <point x="489" y="0" type="line" smooth="yes"/>
      <point x="679" y="0" type="line" smooth="yes"/>
      <point x="568" y="131" type="line" smooth="yes"/>
      <point x="620" y="213" type="line" smooth="yes"/>
      <point x="651" y="301" type="line" smooth="yes"/>
      <point x="661" y="391" type="line" smooth="yes"/>
      <point x="661" y="395" type="line" smooth="yes"/>
      <point x="495" y="395" type="line" smooth="yes"/>
      <point x="495" y="392" type="line" smooth="yes"/>
      <point x="491" y="343" type="line" smooth="yes"/>
      <point x="482" y="296" type="line" smooth="yes"/>
      <point x="466" y="252" type="line" smooth="yes"/>
      <point x="342" y="399" type="line" smooth="yes"/>
      <point x="417" y="447" type="line" smooth="yes"/>
      <point x="473" y="511" type="line" smooth="yes"/>
      <point x="496" y="603" type="line" smooth="yes"/>
      <point x="496" y="614" type="line" smooth="yes"/>
      <point x="474" y="703" type="line" smooth="yes"/>
      <point x="405" y="768" type="line" smooth="yes"/>
      <point x="281" y="793" type="line" smooth="yes"/>
      <point x="157" y="768" type="line" smooth="yes"/>
      <point x="87" y="703" type="line" smooth="yes"/>
      <point x="65" y="614" type="line" smooth="yes"/>
      <point x="65" y="603" type="line" smooth="yes"/>
      <point x="72" y="536" type="line" smooth="yes"/>
      <point x="94" y="480" type="line" smooth="yes"/>
      <point x="129" y="428" type="line" smooth="yes"/>
      <point x="74" y="377" type="line" smooth="yes"/>
      <point x="34" y="310" type="line" smooth="yes"/>
      <point x="19" y="221" type="line" smooth="yes"/>
      <point x="19" y="211" type="line" smooth="yes"/>
      <point x="46" y="93" type="line" smooth="yes"/>
      <point x="125" y="15" type="line" smooth="yes"/>
    </contour>
  </outline>
</glyph>
<glyph name="parenleft" format="1">
  <advance width="365"/>
  <unicode hex="0028"/>
  <outline>
    <contour>
      <point x="39" y="350" type="line" smooth="yes"/>
      <point x="58" y="152" type="line" smooth="yes"/>
      <point x="109" y="2" type="line" smooth="yes"/>
      <point x="182" y="-120" type="line" smooth="yes"/>
      <point x="346" y="-120" type="line" smooth="yes"/>
      <point x="270" y="13" type="line" smooth="yes"/>
      <point x="217" y="165" type="line" smooth="yes"/>
      <point x="197" y="350" type="line" smooth="yes"/>
      <point x="197" y="370" type="line" smooth="yes"/>
      <point x="217" y="555" type="line" smooth="yes"/>
      <point x="270" y="707" type="line" smooth="yes"/>
      <point x="346" y="840" type="line" smooth="yes"/>
      <point x="182" y="840" type="line" smooth="yes"/>
      <point x="109" y="718" type="line" smooth="yes"/>
      <point x="58" y="568" type="line" smooth="yes"/>
      <point x="39" y="370" type="line" smooth="yes"/>
    </contour>
  </outline>
</glyph>
<glyph name="parenright" format="1">
  <advance width="365"/>
  <unicode hex="0029"/>
  <outline>
    <contour>
      <point x="326" y="370" type="line" smooth="yes"/>
      <point x="307" y="568" type="line" smooth="yes"/>
      <point x="256" y="718" type="line" smooth="yes"/>
      <point x="183" y="840" type="line" smooth="yes"/>
      <point x="19" y="840" type="line" smooth="yes"/>
      <point x="95" y="707" type="line" smooth="yes"/>
      <point x="148" y="555" type="line" smooth="yes"/>
      <point x="168" y="370" type="line" smooth="yes"/>
      <point x="168" y="350" type="line" smooth="yes"/>
      <point x="148" y="165" type="line" smooth="yes"/>
      <point x="95" y="13" type="line" smooth="yes"/>
      <point x="19" y="-120" type="line" smooth="yes"/>
      <point x="183" y="-120" type="line" smooth="yes"/>
      <point x="256" y="2" type="line" smooth="yes"/>
      <point x="307" y="152" type="line" smooth="yes"/>
      <point x="326" y="350" type="line" smooth="yes"/>
    </contour>
  </outline>
</glyph>
<glyph name="comma" format="1">
  <advance width="266"/>
  <unicode hex="002C"/>
  <outline>
    <contour>
      <point x="216" y="167" type="line" smooth="yes"/>
      <point x="50" y="167" type="line" smooth="yes"/>
      <point x="50" y="0" type="line" smooth="yes"/>
      <point x="134" y="0" type="line" smooth="yes"/>
      <point x="117" y="-36" type="line" smooth="yes"/>
      <point x="87" y="-57" type="line" smooth="yes"/>
      <point x="45" y="-64" type="line" smooth="yes"/>
      <point x="45" y="-143" type="line" smooth="yes"/>
      <point x="140" y="-123" type="line" smooth="yes"/>
      <point x="197" y="-63" type="line" smooth="yes"/>
      <point x="216" y="35" type="line" smooth="yes"/>
    </contour>
  </outline>
</glyph>
<glyph name="period" format="1">
  <advance width="266"/>
  <unicode hex="002E"/>
  <outline>
    <contour>
      <point x="216" y="167" type="line" smooth="yes"/>
      <point x="50" y="167" type="line" smooth="yes"/>
      <point x="50" y="0" type="line" smooth="yes"/>
      <point x="216" y="0" type="line" smooth="yes"/>
    </contour>
  </outline>
</glyph>
<glyph name="slash" format="1">
  <advance width="414"/>
  <unicode hex="002F"/>
  <outline>
    <contour>
      <point x="399" y="840" type="line" smooth="yes"/>
      <point x="245" y="840" type="line" smooth="yes"/>
      <point x="15" y="-120" type="line" smooth="yes"/>
      <point x="169" y="-120" type="line" smooth="yes"/>
    </contour>
  </outline>
</glyph>
<glyph name="zero" format="1">
  <advance width="600"/>
  <unicode hex="0030"/>
  <outline>
    <contour>
      <point x="395" y="557" type="line" smooth="yes"/>
      <point x="395" y="223" type="line" smooth="yes"/>
      <point x="385" y="173" type="line" smooth="yes"/>
      <point x="355" y="139" type="line" smooth="yes"/>
      <point x="302" y="127" type="line" smooth="yes"/>
      <point x="298" y="127" type="line" smooth="yes"/>
      <point x="245" y="139" type="line" smooth="yes"/>
      <point x="215" y="173" type="line" smooth="yes"/>
      <point x="205" y="223" type="line" smooth="yes"/>
      <point x="205" y="557" type="line" smooth="yes"/>
      <point x="215" y="607" type="line" smooth="yes"/>
      <point x="245" y="641" type="line" smooth="yes"/>
      <point x="298" y="653" type="line" smooth="yes"/>
      <point x="302" y="653" type="line" smooth="yes"/>
      <point x="355" y="641" type="line" smooth="yes"/>
      <point x="385" y="607" type="line" smooth="yes"/>
    </contour>
    <contour>
      <point x="555" y="221" type="line" smooth="yes"/>
      <point x="555" y="559" type="line" smooth="yes"/>
      <point x="527" y="680" type="line" smooth="yes"/>
      <point x="442" y="762" type="line" smooth="yes"/>
      <point x="300" y="793" type="line" smooth="yes"/>
      <point x="158" y="762" type="line" smooth="yes"/>
      <point x="73" y="680" type="line" smooth="yes"/>
      <point x="45" y="559" type="line" smooth="yes"/>
      <point x="45" y="221" type="line" smooth="yes"/>
      <point x="73" y="100" type="line" smooth="yes"/>
      <point x="158" y="18" type="line" smooth="yes"/>
      <point x="300" y="-13" type="line" smooth="yes"/>
      <point x="442" y="18" type="line" smooth="yes"/>
      <point x="527" y="100" type="line" smooth="yes"/>
    </contour>
  </outline>
</glyph>
<glyph name="two" format="1">
  <advance width="600"/>
  <unicode hex="0032"/>
  <outline>
    <contour>
      <point x="341" y="140" type="line" smooth="yes"/>
      <point x="270" y="139" type="line" smooth="yes"/>
      <point x="469" y="357" type="line" smooth="yes"/>
      <point x="517" y="417" type="line" smooth="yes"/>
      <point x="546" y="480" type="line" smooth="yes"/>
      <point x="556" y="559" type="line" smooth="yes"/>
      <point x="556" y="577" type="line" smooth="yes"/>
      <point x="532" y="678" type="line" smooth="yes"/>
      <point x="451" y="760" type="line" smooth="yes"/>
      <point x="300" y="793" type="line" smooth="yes"/>
      <point x="156" y="765" type="line" smooth="yes"/>
      <point x="72" y="680" type="line" smooth="yes"/>
      <point x="44" y="540" type="line" smooth="yes"/>
      <point x="44" y="520" type="line" smooth="yes"/>
      <point x="204" y="520" type="line" smooth="yes"/>
      <point x="215" y="598" type="line" smooth="yes"/>
      <point x="247" y="641" type="line" smooth="yes"/>
      <point x="295" y="653" type="line" smooth="yes"/>
      <point x="305" y="653" type="line" smooth="yes"/>
      <point x="352" y="641" type="line" smooth="yes"/>
      <point x="384" y="606" type="line" smooth="yes"/>
      <point x="396" y="547" type="line" smooth="yes"/>
      <point x="396" y="537" type="line" smooth="yes"/>
      <point x="390" y="499" type="line" smooth="yes"/>
      <point x="373" y="466" type="line" smooth="yes"/>
      <point x="344" y="432" type="line" smooth="yes"/>
      <point x="44" y="101" type="line" smooth="yes"/>
      <point x="44" y="0" type="line" smooth="yes"/>
      <point x="556" y="0" type="line" smooth="yes"/>
      <point x="556" y="140" type="line" smooth="yes"/>
    </contour>
  </outline>
</glyph>
<glyph name="three" format="1">
  <advance width="600"/>
  <unicode hex="0033"/>
  <outline>
    <contour>
      <point x="199" y="250" type="line" smooth="yes"/>
      <point x="39" y="250" type="line" smooth="yes"/>
      <point x="39" y="237" type="line" smooth="yes"/>
      <point x="68" y="101" type="line" smooth="yes"/>
      <point x="155" y="16" type="line" smooth="yes"/>
      <point x="300" y="-13" type="line" smooth="yes"/>
      <point x="451" y="23" type="line" smooth="yes"/>
      <point x="535" y="107" type="line" smooth="yes"/>
      <point x="561" y="209" type="line" smooth="yes"/>
      <point x="561" y="228" type="line" smooth="yes"/>
      <point x="548" y="304" type="line" smooth="yes"/>
      <point x="514" y="360" type="line" smooth="yes"/>
      <point x="465" y="399" type="line" smooth="yes"/>
      <point x="511" y="437" type="line" smooth="yes"/>
      <point x="544" y="492" type="line" smooth="yes"/>
      <point x="556" y="566" type="line" smooth="yes"/>
      <point x="556" y="585" type="line" smooth="yes"/>
      <point x="532" y="681" type="line" smooth="yes"/>
      <point x="451" y="760" type="line" smooth="yes"/>
      <point x="300" y="793" type="line" smooth="yes"/>
      <point x="156" y="765" type="line" smooth="yes"/>
      <point x="72" y="680" type="line" smooth="yes"/>
      <point x="44" y="540" type="line" smooth="yes"/>
      <point x="44" y="520" type="line" smooth="yes"/>
      <point x="204" y="520" type="line" smooth="yes"/>
      <point x="215" y="598" type="line" smooth="yes"/>
      <point x="247" y="641" type="line" smooth="yes"/>
      <point x="295" y="653" type="line" smooth="yes"/>
      <point x="305" y="653" type="line" smooth="yes"/>
      <point x="352" y="642" type="line" smooth="yes"/>
      <point x="384" y="612" type="line" smooth="yes"/>
      <point x="396" y="566" type="line" smooth="yes"/>
      <point x="396" y="557" type="line" smooth="yes"/>
      <point x="385" y="507" type="line" smooth="yes"/>
      <point x="354" y="478" type="line" smooth="yes"/>
      <point x="304" y="468" type="line" smooth="yes"/>
      <point x="200" y="468" type="line" smooth="yes"/>
      <point x="200" y="328" type="line" smooth="yes"/>
      <point x="307" y="328" type="line" smooth="yes"/>
      <point x="357" y="318" type="line" smooth="yes"/>
      <point x="390" y="288" type="line" smooth="yes"/>
      <point x="401" y="237" type="line" smooth="yes"/>
      <point x="401" y="226" type="line" smooth="yes"/>
      <point x="387" y="170" type="line" smooth="yes"/>
      <point x="352" y="137" type="line" smooth="yes"/>
      <point x="305" y="127" type="line" smooth="yes"/>
      <point x="295" y="127" type="line" smooth="yes"/>
      <point x="246" y="138" type="line" smooth="yes"/>
      <point x="212" y="177" type="line" smooth="yes"/>
    </contour>
  </outline>
</glyph>
<glyph name="five" format="1">
  <advance width="600"/>
  <unicode hex="0035"/>
  <outline>
    <contour>
      <point x="39" y="250" type="line" smooth="yes"/>
      <point x="39" y="237" type="line" smooth="yes"/>
      <point x="68" y="101" type="line" smooth="yes"/>
      <point x="155" y="16" type="line" smooth="yes"/>
      <point x="300" y="-13" type="line" smooth="yes"/>
      <point x="444" y="18" type="line" smooth="yes"/>
      <point x="531" y="104" type="line" smooth="yes"/>
      <point x="561" y="237" type="line" smooth="yes"/>
      <point x="561" y="256" type="line" smooth="yes"/>
      <point x="532" y="389" type="line" smooth="yes"/>
      <point x="446" y="475" type="line" smooth="yes"/>
      <point x="308" y="506" type="line" smooth="yes"/>
      <point x="266" y="503" type="line" smooth="yes"/>
      <point x="227" y="495" type="line" smooth="yes"/>
      <point x="190" y="482" type="line" smooth="yes"/>
      <point x="197" y="640" type="line" smooth="yes"/>
      <point x="551" y="640" type="line" smooth="yes"/>
      <point x="551" y="780" type="line" smooth="yes"/>
      <point x="63" y="780" type="line" smooth="yes"/>
      <point x="45" y="352" type="line" smooth="yes"/>
      <point x="182" y="305" type="line" smooth="yes"/>
      <point x="210" y="340" type="line" smooth="yes"/>
      <point x="249" y="360" type="line" smooth="yes"/>
      <point x="291" y="367" type="line" smooth="yes"/>
      <point x="297" y="367" type="line" smooth="yes"/>
      <point x="350" y="356" type="line" smooth="yes"/>
      <point x="387" y="319" type="line" smooth="yes"/>
      <point x="401" y="252" type="line" smooth="yes"/>
      <point x="401" y="241" type="line" smooth="yes"/>
      <point x="387" y="175" type="line" smooth="yes"/>
      <point x="352" y="138" type="line" smooth="yes"/>
      <point x="305" y="127" type="line" smooth="yes"/>
      <point x="295" y="127" type="line" smooth="yes"/>
      <point x="246" y="138" type="line" smooth="yes"/>
      <point x="212" y="177" type="line" smooth="yes"/>
      <point x="199" y="250" type="line" smooth="yes"/>
    </contour>
  </outline>
</glyph>
<glyph name="six" format="1">
  <advance width="600"/>
  <unicode hex="0036"/>
  <outline>
    <contour>
      <point x="303" y="352" type="line" smooth="yes"/>
      <point x="308" y="352" type="line" smooth="yes"/>
      <point x="356" y="342" type="line" smooth="yes"/>
      <point x="390" y="308" type="line" smooth="yes"/>
      <point x="402" y="250" type="line" smooth="yes"/>
      <point x="402" y="231" type="line" smooth="yes"/>
      <point x="389" y="174" type="line" smooth="yes"/>
      <point x="353" y="139" type="line" smooth="yes"/>
      <point x="304" y="127" type="line" smooth="yes"/>
      <point x="298" y="127" type="line" smooth="yes"/>
      <point x="248" y="142" type="line" smooth="yes"/>
      <point x="212" y="187" type="line" smooth="yes"/>
      <point x="199" y="260" type="line" smooth="yes"/>
      <point x="199" y="292" type="line" smooth="yes"/>
      <point x="227" y="325" type="line" smooth="yes"/>
      <point x="263" y="345" type="line" smooth="yes"/>
    </contour>
    <contour>
      <point x="523" y="793" type="line" smooth="yes"/>
      <point x="375" y="780" type="line" smooth="yes"/>
      <point x="249" y="735" type="line" smooth="yes"/>
      <point x="149" y="646" type="line" smooth="yes"/>
      <point x="84" y="531" type="line" smooth="yes"/>
      <point x="49" y="410" type="line" smooth="yes"/>
      <point x="39" y="286" type="line" smooth="yes"/>
      <point x="39" y="273" type="line" smooth="yes"/>
      <point x="69" y="122" type="line" smooth="yes"/>
      <point x="158" y="23" type="line" smooth="yes"/>
      <point x="301" y="-13" type="line" smooth="yes"/>
      <point x="445" y="17" type="line" smooth="yes"/>
      <point x="533" y="103" type="line" smooth="yes"/>
      <point x="562" y="236" type="line" smooth="yes"/>
      <point x="562" y="246" type="line" smooth="yes"/>
      <point x="535" y="378" type="line" smooth="yes"/>
      <point x="459" y="462" type="line" smooth="yes"/>
      <point x="344" y="492" type="line" smooth="yes"/>
      <point x="297" y="487" type="line" smooth="yes"/>
      <point x="256" y="474" type="line" smooth="yes"/>
      <point x="221" y="455" type="line" smooth="yes"/>
      <point x="235" y="492" type="line" smooth="yes"/>
      <point x="252" y="526" type="line" smooth="yes"/>
      <point x="273" y="556" type="line" smooth="yes"/>
      <point x="337" y="611" type="line" smooth="yes"/>
      <point x="419" y="641" type="line" smooth="yes"/>
      <point x="523" y="651" type="line" smooth="yes"/>
    </contour>
  </outline>
</glyph>
<glyph name="eight" format="1">
  <advance width="600"/>
  <unicode hex="0038"/>
  <outline>
    <contour>
      <point x="305" y="653" type="line" smooth="yes"/>
      <point x="352" y="642" type="line" smooth="yes"/>
      <point x="384" y="612" type="line" smooth="yes"/>
      <point x="396" y="567" type="line" smooth="yes"/>
      <point x="396" y="557" type="line" smooth="yes"/>
      <point x="385" y="507" type="line" smooth="yes"/>
      <point x="354" y="478" type="line" smooth="yes"/>
      <point x="304" y="468" type="line" smooth="yes"/>
      <point x="296" y="468" type="line" smooth="yes"/>
      <point x="246" y="478" type="line" smooth="yes"/>
      <point x="215" y="507" type="line" smooth="yes"/>
      <point x="204" y="557" type="line" smooth="yes"/>
      <point x="204" y="567" type="line" smooth="yes"/>
      <point x="216" y="612" type="line" smooth="yes"/>
      <point x="248" y="642" type="line" smooth="yes"/>
      <point x="295" y="653" type="line" smooth="yes"/>
    </contour>
    <contour>
      <point x="293" y="328" type="line" smooth="yes"/>
      <point x="307" y="328" type="line" smooth="yes"/>
      <point x="357" y="318" type="line" smooth="yes"/>
      <point x="390" y="287" type="line" smooth="yes"/>
      <point x="401" y="237" type="line" smooth="yes"/>
      <point x="401" y="226" type="line" smooth="yes"/>
      <point x="387" y="169" type="line" smooth="yes"/>
      <point x="352" y="137" type="line" smooth="yes"/>
      <point x="305" y="127" type="line" smooth="yes"/>
      <point x="295" y="127" type="line" smooth="yes"/>
      <point x="248" y="137" type="line" smooth="yes"/>
      <point x="213" y="169" type="line" smooth="yes"/>
      <point x="199" y="226" type="line" smooth="yes"/>
      <point x="199" y="237" type="line" smooth="yes"/>
      <point x="210" y="287" type="line" smooth="yes"/>
      <point x="243" y="318" type="line" smooth="yes"/>
    </contour>
    <contour>
      <point x="300" y="-13" type="line" smooth="yes"/>
      <point x="451" y="22" type="line" smooth="yes"/>
      <point x="535" y="107" type="line" smooth="yes"/>
      <point x="561" y="208" type="line" smooth="yes"/>
      <point x="561" y="227" type="line" smooth="yes"/>
      <point x="548" y="303" type="line" smooth="yes"/>
      <point x="513" y="360" type="line" smooth="yes"/>
      <point x="465" y="399" type="line" smooth="yes"/>
      <point x="511" y="437" type="line" smooth="yes"/>
      <point x="544" y="493" type="line" smooth="yes"/>
      <point x="556" y="567" type="line" smooth="yes"/>
      <point x="556" y="586" type="line" smooth="yes"/>
      <point x="532" y="681" type="line" smooth="yes"/>
      <point x="451" y="760" type="line" smooth="yes"/>
      <point x="300" y="793" type="line" smooth="yes"/>
      <point x="149" y="760" type="line" smooth="yes"/>
      <point x="68" y="681" type="line" smooth="yes"/>
      <point x="44" y="586" type="line" smooth="yes"/>
      <point x="44" y="567" type="line" smooth="yes"/>
      <point x="56" y="493" type="line" smooth="yes"/>
      <point x="89" y="437" type="line" smooth="yes"/>
      <point x="135" y="399" type="line" smooth="yes"/>
      <point x="86" y="360" type="line" smooth="yes"/>
      <point x="52" y="303" type="line" smooth="yes"/>
      <point x="39" y="227" type="line" smooth="yes"/>
      <point x="39" y="208" type="line" smooth="yes"/>
      <point x="65" y="107" type="line" smooth="yes"/>
      <point x="149" y="22" type="line" smooth="yes"/>
    </contour>
  </outline>
</glyph>
<glyph name="nine" format="1">
  <advance width="600"/>
  <unicode hex="0039"/>
  <outline>
    <contour>
      <point x="297" y="428" type="line" smooth="yes"/>
      <point x="292" y="428" type="line" smooth="yes"/>
      <point x="244" y="438" type="line" smooth="yes"/>
      <point x="210" y="472" type="line" smooth="yes"/>
      <point x="198" y="530" type="line" smooth="yes"/>
      <point x="198" y="549" type="line" smooth="yes"/>
      <point x="211" y="606" type="line" smooth="yes"/>
      <point x="247" y="641" type="line" smooth="yes"/>
      <point x="296" y="653" type="line" smooth="yes"/>
      <point x="302" y="653" type="line" smooth="yes"/>
      <point x="352" y="638" type="line" smooth="yes"/>
      <point x="388" y="593" type="line" smooth="yes"/>
      <point x="401" y="520" type="line" smooth="yes"/>
      <point x="401" y="488" type="line" smooth="yes"/>
      <point x="372" y="455" type="line" smooth="yes"/>
      <point x="336" y="435" type="line" smooth="yes"/>
    </contour>
    <contour>
      <point x="77" y="-13" type="line" smooth="yes"/>
      <point x="225" y="-0" type="line" smooth="yes"/>
      <point x="351" y="45" type="line" smooth="yes"/>
      <point x="451" y="134" type="line" smooth="yes"/>
      <point x="516" y="249" type="line" smooth="yes"/>
      <point x="551" y="370" type="line" smooth="yes"/>
      <point x="561" y="494" type="line" smooth="yes"/>
      <point x="561" y="507" type="line" smooth="yes"/>
      <point x="531" y="658" type="line" smooth="yes"/>
      <point x="442" y="757" type="line" smooth="yes"/>
      <point x="299" y="793" type="line" smooth="yes"/>
      <point x="155" y="763" type="line" smooth="yes"/>
      <point x="67" y="677" type="line" smooth="yes"/>
      <point x="38" y="544" type="line" smooth="yes"/>
      <point x="38" y="534" type="line" smooth="yes"/>
      <point x="65" y="402" type="line" smooth="yes"/>
      <point x="141" y="318" type="line" smooth="yes"/>
      <point x="256" y="288" type="line" smooth="yes"/>
      <point x="302" y="292" type="line" smooth="yes"/>
      <point x="343" y="305" type="line" smooth="yes"/>
      <point x="378" y="324" type="line" smooth="yes"/>
      <point x="365" y="287" type="line" smooth="yes"/>
      <point x="348" y="254" type="line" smooth="yes"/>
      <point x="327" y="224" type="line" smooth="yes"/>
      <point x="263" y="169" type="line" smooth="yes"/>
      <point x="181" y="139" type="line" smooth="yes"/>
      <point x="77" y="129" type="line" smooth="yes"/>
    </contour>
  </outline>
</glyph>
<glyph name="colon" format="1">
  <advance width="266"/>
  <unicode hex="003A"/>
  <outline>
    <contour>
      <point x="216" y="474" type="line" smooth="yes"/>
      <point x="50" y="474" type="line" smooth="yes"/>
      <point x="50" y="307" type="line" smooth="yes"/>
      <point x="216" y="307" type="line" smooth="yes"/>
    </contour>
    <contour>
      <point x="216" y="167" type="line" smooth="yes"/>
      <point x="50" y="167" type="line" smooth="yes"/>
      <point x="50" y="0" type="line" smooth="yes"/>
      <point x="216" y="0" type="line" smooth="yes"/>
    </contour>
  </outline>
</glyph>
<glyph name="less" format="1">
  <advance width="600"/>
  <unicode hex="003C"/>
  <outline>
    <contour>
      <point x="42" y="467" type="line" smooth="yes"/>
      <point x="42" y="313" type="line" smooth="yes"/>
      <point x="558" y="108" type="line" smooth="yes"/>
      <point x="558" y="264" type="line" smooth="yes"/>
      <point x="220" y="390" type="line" smooth="yes"/>
      <point x="558" y="516" type="line" smooth="yes"/>
      <point x="558" y="672" type="line" smooth="yes"/>
    </contour>
  </outline>
</glyph>
<glyph name="equal" format="1">
  <advance width="600"/>
  <unicode hex="003D"/>
  <outline>
    <contour>
      <point x="42" y="211" type="line" smooth="yes"/>
      <point x="558" y="211" type="line" smooth="yes"/>
      <point x="558" y="352" type="line" smooth="yes"/>
      <point x="42" y="352" type="line" smooth="yes"/>
    </contour>
    <contour>
      <point x="42" y="428" type="line" smooth="yes"/>
      <point x="558" y="428" type="line" smooth="yes"/>
      <point x="558" y="569" type="line" smooth="yes"/>
      <point x="42" y="569" type="line" smooth="yes"/>
    </contour>
  </outline>
</glyph>
<glyph name="greater" format="1">
  <advance width="600"/>
  <unicode hex="003E"/>
  <outline>
    <contour>
      <point x="558" y="467" type="line" smooth="yes"/>
      <point x="42" y="672" type="line" smooth="yes"/>
      <point x="42" y="516" type="line" smooth="yes"/>
      <point x="380" y="390" type="line" smooth="yes"/>
      <point x="42" y="264" type="line" smooth="yes"/>
      <point x="42" y="108" type="line" smooth="yes"/>
      <point x="558" y="313" type="line" smooth="yes"/>
    </contour>
  </outline>
</glyph>
<glyph name="question" format="1">
  <advance width="497"/>
  <unicode hex="003F"/>
  <outline>
    <contour>
      <point x="328" y="167" type="line" smooth="yes"/>
      <point x="162" y="167" type="line" smooth="yes"/>
      <point x="162" y="0" type="line" smooth="yes"/>
      <point x="328" y="0" type="line" smooth="yes"/>
    </contour>
    <contour>
      <point x="253" y="654" type="line" smooth="yes"/>
      <point x="293" y="645" type="line" smooth="yes"/>
      <point x="314" y="619" type="line" smooth="yes"/>
      <point x="320" y="579" type="line" smooth="yes"/>
      <point x="283" y="490" type="line" smooth="yes"/>
      <point x="217" y="383" type="line" smooth="yes"/>
      <point x="189" y="228" type="line" smooth="yes"/>
      <point x="300" y="228" type="line" smooth="yes"/>
      <point x="353" y="362" type="line" smooth="yes"/>
      <point x="436" y="450" type="line" smooth="yes"/>
      <point x="479" y="592" type="line" smooth="yes"/>
      <point x="460" y="689" type="line" smooth="yes"/>
      <point x="390" y="763" type="line" smooth="yes"/>
      <point x="253" y="793" type="line" smooth="yes"/>
      <point x="116" y="763" type="line" smooth="yes"/>
      <point x="43" y="675" type="line" smooth="yes"/>
      <point x="21" y="534" type="line" smooth="yes"/>
      <point x="21" y="516" type="line" smooth="yes"/>
      <point x="180" y="516" type="line" smooth="yes"/>
      <point x="187" y="595" type="line" smooth="yes"/>
      <point x="210" y="640" type="line" smooth="yes"/>
    </contour>
  </outline>
</glyph>
<glyph name="at" format="1">
  <advance width="991"/>
  <unicode hex="0040"/>
  <outline>
    <contour>
      <point x="563" y="374" type="line" smooth="yes"/>
      <point x="563" y="216" type="line" smooth="yes"/>
      <point x="545" y="195" type="line" smooth="yes"/>
      <point x="517" y="177" type="line" smooth="yes"/>
      <point x="479" y="169" type="line" smooth="yes"/>
      <point x="431" y="182" type="line" smooth="yes"/>
      <point x="404" y="220" type="line" smooth="yes"/>
      <point x="395" y="278" type="line" smooth="yes"/>
      <point x="395" y="312" type="line" smooth="yes"/>
      <point x="404" y="370" type="line" smooth="yes"/>
      <point x="431" y="408" type="line" smooth="yes"/>
      <point x="479" y="421" type="line" smooth="yes"/>
      <point x="517" y="413" type="line" smooth="yes"/>
      <point x="545" y="395" type="line" smooth="yes"/>
    </contour>
    <contour>
      <point x="513" y="-110" type="line" smooth="yes"/>
      <point x="315" y="-68" type="line" smooth="yes"/>
      <point x="181" y="58" type="line" smooth="yes"/>
      <point x="132" y="270" type="line" smooth="yes"/>
      <point x="132" y="310" type="line" smooth="yes"/>
      <point x="181" y="521" type="line" smooth="yes"/>
      <point x="314" y="648" type="line" smooth="yes"/>
      <point x="508" y="690" type="line" smooth="yes"/>
      <point x="514" y="690" type="line" smooth="yes"/>
      <point x="678" y="666" type="line" smooth="yes"/>
      <point x="806" y="577" type="line" smooth="yes"/>
      <point x="857" y="398" type="line" smooth="yes"/>
      <point x="857" y="368" type="line" smooth="yes"/>
      <point x="842" y="247" type="line" smooth="yes"/>
      <point x="792" y="184" type="line" smooth="yes"/>
      <point x="700" y="162" type="line" smooth="yes"/>
      <point x="700" y="393" type="line" smooth="yes"/>
      <point x="709" y="530" type="line" smooth="yes"/>
      <point x="586" y="530" type="line" smooth="yes"/>
      <point x="575" y="471" type="line" smooth="yes"/>
      <point x="542" y="508" type="line" smooth="yes"/>
      <point x="496" y="534" type="line" smooth="yes"/>
      <point x="436" y="543" type="line" smooth="yes"/>
      <point x="333" y="513" type="line" smooth="yes"/>
      <point x="271" y="431" type="line" smooth="yes"/>
      <point x="251" y="312" type="line" smooth="yes"/>
      <point x="251" y="278" type="line" smooth="yes"/>
      <point x="271" y="159" type="line" smooth="yes"/>
      <point x="333" y="77" type="line" smooth="yes"/>
      <point x="436" y="47" type="line" smooth="yes"/>
      <point x="496" y="56" type="line" smooth="yes"/>
      <point x="542" y="82" type="line" smooth="yes"/>
      <point x="575" y="119" type="line" smooth="yes"/>
      <point x="586" y="60" type="line" smooth="yes"/>
      <point x="691" y="60" type="line" smooth="yes"/>
      <point x="831" y="87" type="line" smooth="yes"/>
      <point x="928" y="181" type="line" smooth="yes"/>
      <point x="964" y="368" type="line" smooth="yes"/>
      <point x="964" y="398" type="line" smooth="yes"/>
      <point x="900" y="626" type="line" smooth="yes"/>
      <point x="736" y="753" type="line" smooth="yes"/>
      <point x="511" y="793" type="line" smooth="yes"/>
      <point x="262" y="737" type="line" smooth="yes"/>
      <point x="90" y="574" type="line" smooth="yes"/>
      <point x="27" y="310" type="line" smooth="yes"/>
      <point x="27" y="270" type="line" smooth="yes"/>
      <point x="91" y="6" type="line" smooth="yes"/>
      <point x="263" y="-157" type="line" smooth="yes"/>
      <point x="516" y="-213" type="line" smooth="yes"/>
      <point x="639" y="-203" type="line" smooth="yes"/>
      <point x="771" y="-164" type="line" smooth="yes"/>
      <point x="908" y="-81" type="line" smooth="yes"/>
      <point x="849" y="-1" type="line" smooth="yes"/>
      <point x="747" y="-61" type="line" smooth="yes"/>
      <point x="637" y="-98" type="line" smooth="yes"/>
      <point x="519" y="-110" type="line" smooth="yes"/>
    </contour>
  </outline>
</glyph>
<glyph name="A" format="1">
  <advance width="641"/>
  <unicode hex="0041"/>
  <outline>
    <contour>
      <point x="320" y="595" type="line" smooth="yes"/>
      <point x="384" y="308" type="line" smooth="yes"/>
      <point x="256" y="308" type="line" smooth="yes"/>
    </contour>
    <contour>
      <point x="209" y="782" type="line" smooth="yes"/>
      <point x="14" y="0" type="line" smooth="yes"/>
      <point x="188" y="0" type="line" smooth="yes"/>
      <point x="225" y="168" type="line" smooth="yes"/>
      <point x="416" y="168" type="line" smooth="yes"/>
      <point x="454" y="0" type="line" smooth="yes"/>
      <point x="627" y="0" type="line" smooth="yes"/>
      <point x="432" y="782" type="line" smooth="yes"/>
    </contour>
  </outline>
</glyph>
<glyph name="B" format="1">
  <advance width="631"/>
  <unicode hex="0042"/>
  <outline>
    <contour>
      <point x="311" y="640" type="line" smooth="yes"/>
      <point x="352" y="634" type="line" smooth="yes"/>
      <point x="386" y="610" type="line" smooth="yes"/>
      <point x="399" y="561" type="line" smooth="yes"/>
      <point x="399" y="548" type="line" smooth="yes"/>
      <point x="386" y="499" type="line" smooth="yes"/>
      <point x="352" y="475" type="line" smooth="yes"/>
      <point x="311" y="469" type="line" smooth="yes"/>
      <point x="218" y="469" type="line" smooth="yes"/>
      <point x="218" y="640" type="line" smooth="yes"/>
    </contour>
    <contour>
      <point x="325" y="328" type="line" smooth="yes"/>
      <point x="369" y="321" type="line" smooth="yes"/>
      <point x="405" y="294" type="line" smooth="yes"/>
      <point x="419" y="239" type="line" smooth="yes"/>
      <point x="419" y="230" type="line" smooth="yes"/>
      <point x="405" y="175" type="line" smooth="yes"/>
      <point x="369" y="148" type="line" smooth="yes"/>
      <point x="325" y="140" type="line" smooth="yes"/>
      <point x="218" y="140" type="line" smooth="yes"/>
      <point x="218" y="328" type="line" smooth="yes"/>
    </contour>
    <contour>
      <point x="56" y="780" type="line" smooth="yes"/>
      <point x="56" y="0" type="line" smooth="yes"/>
      <point x="320" y="0" type="line" smooth="yes"/>
      <point x="444" y="16" type="line" smooth="yes"/>
      <point x="543" y="81" type="line" smooth="yes"/>
      <point x="583" y="224" type="line" smooth="yes"/>
      <point x="583" y="244" type="line" smooth="yes"/>
      <point x="571" y="317" type="line" smooth="yes"/>
      <point x="537" y="368" type="line" smooth="yes"/>
      <point x="487" y="403" type="line" smooth="yes"/>
      <point x="527" y="435" type="line" smooth="yes"/>
      <point x="553" y="482" type="line" smooth="yes"/>
      <point x="563" y="544" type="line" smooth="yes"/>
      <point x="563" y="564" type="line" smooth="yes"/>
      <point x="525" y="701" type="line" smooth="yes"/>
      <point x="431" y="765" type="line" smooth="yes"/>
      <point x="312" y="780" type="line" smooth="yes"/>
    </contour>
  </outline>
</glyph>
<glyph name="H" format="1">
  <advance width="663"/>
  <unicode hex="0048"/>
  <outline>
    <contour>
      <point x="445" y="780" type="line" smooth="yes"/>
      <point x="445" y="468" type="line" smooth="yes"/>
      <point x="218" y="468" type="line" smooth="yes"/>
      <point x="218" y="780" type="line" smooth="yes"/>
      <point x="56" y="780" type="line" smooth="yes"/>
      <point x="56" y="0" type="line" smooth="yes"/>
      <point x="218" y="0" type="line" smooth="yes"/>
      <point x="218" y="328" type="line" smooth="yes"/>
      <point x="445" y="328" type="line" smooth="yes"/>
      <point x="445" y="0" type="line" smooth="yes"/>
      <point x="607" y="0" type="line" smooth="yes"/>
      <point x="607" y="780" type="line" smooth="yes"/>
    </contour>
  </outline>
</glyph>
<glyph name="J" format="1">
  <advance width="537"/>
  <unicode hex="004A"/>
  <outline>
    <contour>
      <point x="324" y="780" type="line" smooth="yes"/>
      <point x="324" y="258" type="line" smooth="yes"/>
      <point x="318" y="187" type="line" smooth="yes"/>
      <point x="295" y="142" type="line" smooth="yes"/>
      <point x="250" y="127" type="line" smooth="yes"/>
      <point x="205" y="143" type="line" smooth="yes"/>
      <point x="183" y="189" type="line" smooth="yes"/>
      <point x="176" y="266" type="line" smooth="yes"/>
      <point x="23" y="266" type="line" smooth="yes"/>
      <point x="23" y="240" type="line" smooth="yes"/>
      <point x="45" y="103" type="line" smooth="yes"/>
      <point x="118" y="17" type="line" smooth="yes"/>
      <point x="254" y="-13" type="line" smooth="yes"/>
      <point x="387" y="17" type="line" smooth="yes"/>
      <point x="463" y="102" type="line" smooth="yes"/>
      <point x="486" y="238" type="line" smooth="yes"/>
      <point x="486" y="780" type="line" smooth="yes"/>
    </contour>
  </outline>
</glyph>
<glyph name="L" format="1">
  <advance width="521"/>
  <unicode hex="004C"/>
  <outline>
    <contour>
      <point x="506" y="0" type="line" smooth="yes"/>
      <point x="506" y="140" type="line" smooth="yes"/>
      <point x="218" y="140" type="line" smooth="yes"/>
      <point x="218" y="780" type="line" smooth="yes"/>
      <point x="56" y="780" type="line" smooth="yes"/>
      <point x="56" y="0" type="line" smooth="yes"/>
    </contour>
  </outline>
</glyph>
<glyph name="Q" format="1">
  <advance width="673"/>
  <unicode hex="0051"/>
  <outline>
    <contour>
      <point x="389" y="262" type="line" smooth="yes"/>
      <point x="267" y="262" type="line" smooth="yes"/>
      <point x="319" y="127" type="line" smooth="yes"/>
      <point x="249" y="160" type="line" smooth="yes"/>
      <point x="213" y="243" type="line" smooth="yes"/>
      <point x="203" y="370" type="line" smooth="yes"/>
      <point x="203" y="410" type="line" smooth="yes"/>
      <point x="214" y="542" type="line" smooth="yes"/>
      <point x="254" y="625" type="line" smooth="yes"/>
      <point x="332" y="653" type="line" smooth="yes"/>
      <point x="341" y="653" type="line" smooth="yes"/>
      <point x="419" y="625" type="line" smooth="yes"/>
      <point x="458" y="542" type="line" smooth="yes"/>
      <point x="469" y="410" type="line" smooth="yes"/>
      <point x="469" y="370" type="line" smooth="yes"/>
      <point x="465" y="283" type="line" smooth="yes"/>
      <point x="452" y="214" type="line" smooth="yes"/>
      <point x="427" y="165" type="line" smooth="yes"/>
    </contour>
    <contour>
      <point x="336" y="-13" type="line" smooth="yes"/>
      <point x="349" y="-13" type="line" smooth="yes"/>
      <point x="361" y="-12" type="line" smooth="yes"/>
      <point x="373" y="-11" type="line" smooth="yes"/>
      <point x="407" y="-100" type="line" smooth="yes"/>
      <point x="533" y="-100" type="line" smooth="yes"/>
      <point x="486" y="17" type="line" smooth="yes"/>
      <point x="569" y="88" type="line" smooth="yes"/>
      <point x="618" y="204" type="line" smooth="yes"/>
      <point x="634" y="370" type="line" smooth="yes"/>
      <point x="634" y="410" type="line" smooth="yes"/>
      <point x="602" y="629" type="line" smooth="yes"/>
      <point x="503" y="754" type="line" smooth="yes"/>
      <point x="336" y="793" type="line" smooth="yes"/>
      <point x="169" y="754" type="line" smooth="yes"/>
      <point x="71" y="629" type="line" smooth="yes"/>
      <point x="39" y="410" type="line" smooth="yes"/>
      <point x="39" y="370" type="line" smooth="yes"/>
      <point x="71" y="151" type="line" smooth="yes"/>
      <point x="169" y="26" type="line" smooth="yes"/>
    </contour>
  </outline>
</glyph>
<glyph name="R" format="1">
  <advance width="623"/>
  <unicode hex="0052"/>
  <outline>
    <contour>
      <point x="218" y="420" type="line" smooth="yes"/>
      <point x="218" y="640" type="line" smooth="yes"/>
      <point x="319" y="640" type="line" smooth="yes"/>
      <point x="364" y="632" type="line" smooth="yes"/>
      <point x="403" y="601" type="line" smooth="yes"/>
      <point x="419" y="535" type="line" smooth="yes"/>
      <point x="419" y="525" type="line" smooth="yes"/>
      <point x="403" y="459" type="line" smooth="yes"/>
      <point x="364" y="428" type="line" smooth="yes"/>
      <point x="319" y="420" type="line" smooth="yes"/>
    </contour>
    <contour>
      <point x="218" y="280" type="line" smooth="yes"/>
      <point x="301" y="280" type="line" smooth="yes"/>
      <point x="408" y="0" type="line" smooth="yes"/>
      <point x="583" y="0" type="line" smooth="yes"/>
      <point x="460" y="303" type="line" smooth="yes"/>
      <point x="523" y="344" type="line" smooth="yes"/>
      <point x="567" y="414" type="line" smooth="yes"/>
      <point x="583" y="520" type="line" smooth="yes"/>
      <point x="583" y="540" type="line" smooth="yes"/>
      <point x="541" y="694" type="line" smooth="yes"/>
      <point x="439" y="764" type="line" smooth="yes"/>
      <point x="312" y="780" type="line" smooth="yes"/>
      <point x="56" y="780" type="line" smooth="yes"/>
      <point x="56" y="0" type="line" smooth="yes"/>
      <point x="218" y="0" type="line" smooth="yes"/>
    </contour>
  </outline>
</glyph>
<glyph name="U" format="1">
  <advance width="663"/>
  <unicode hex="0055"/>
  <outline>
    <contour>
      <point x="331" y="-13" type="line" smooth="yes"/>
      <point x="498" y="17" type="line" smooth="yes"/>
      <point x="586" y="104" type="line" smooth="yes"/>
      <point x="612" y="247" type="line" smooth="yes"/>
      <point x="612" y="780" type="line" smooth="yes"/>
      <point x="450" y="780" type="line" smooth="yes"/>
      <point x="450" y="252" type="line" smooth="yes"/>
      <point x="440" y="183" type="line" smooth="yes"/>
      <point x="403" y="141" type="line" smooth="yes"/>
      <point x="331" y="127" type="line" smooth="yes"/>
      <point x="260" y="141" type="line" smooth="yes"/>
      <point x="223" y="183" type="line" smooth="yes"/>
      <point x="213" y="252" type="line" smooth="yes"/>
      <point x="213" y="780" type="line" smooth="yes"/>
      <point x="51" y="780" type="line" smooth="yes"/>
      <point x="51" y="247" type="line" smooth="yes"/>
      <point x="76" y="104" type="line" smooth="yes"/>
      <point x="164" y="17" type="line" smooth="yes"/>
    </contour>
  </outline>
</glyph>
<glyph name="asciicircum" format="1">
  <advance width="600"/>
  <unicode hex="005E"/>
  <outline>
    <contour>
      <point x="377" y="780" type="line" smooth="yes"/>
      <point x="223" y="780" type="line" smooth="yes"/>
      <point x="18" y="264" type="line" smooth="yes"/>
      <point x="174" y="264" type="line" smooth="yes"/>
      <point x="300" y="602" type="line" smooth="yes"/>
      <point x="426" y="264" type="line" smooth="yes"/>
      <point x="582" y="264" type="line" smooth="yes"/>
    </contour>
  </outline>
</glyph>
<glyph name="h" format="1">
  <advance width="580"/>
  <unicode hex="0068"/>
  <outline>
    <contour>
      <point x="212" y="800" type="line" smooth="yes"/>
      <point x="54" y="800" type="line" smooth="yes"/>
      <point x="54" y="0" type="line" smooth="yes"/>
      <point x="212" y="0" type="line" smooth="yes"/>
      <point x="212" y="357" type="line" smooth="yes"/>
      <point x="230" y="378" type="line" smooth="yes"/>
      <point x="261" y="398" type="line" smooth="yes"/>
      <point x="305" y="407" type="line" smooth="yes"/>
      <point x="347" y="396" type="line" smooth="yes"/>
      <point x="369" y="369" type="line" smooth="yes"/>
      <point x="375" y="333" type="line" smooth="yes"/>
      <point x="375" y="0" type="line" smooth="yes"/>
      <point x="532" y="0" type="line" smooth="yes"/>
      <point x="532" y="359" type="line" smooth="yes"/>
      <point x="516" y="449" type="line" smooth="yes"/>
      <point x="464" y="517" type="line" smooth="yes"/>
      <point x="368" y="543" type="line" smooth="yes"/>
      <point x="304" y="535" type="line" smooth="yes"/>
      <point x="252" y="512" type="line" smooth="yes"/>
      <point x="212" y="479" type="line" smooth="yes"/>
    </contour>
  </outline>
</glyph>
<glyph name="j" format="1">
  <advance width="268"/>
  <unicode hex="006A"/>
  <outline>
    <contour>
      <point x="216" y="772" type="line" smooth="yes"/>
      <point x="50" y="772" type="line" smooth="yes"/>
      <point x="50" y="605" type="line" smooth="yes"/>
      <point x="216" y="605" type="line" smooth="yes"/>
    </contour>
    <contour>
      <point x="54" y="1" type="line" smooth="yes"/>
      <point x="44" y="-48" type="line" smooth="yes"/>
      <point x="17" y="-71" type="line" smooth="yes"/>
      <point x="-24" y="-77" type="line" smooth="yes"/>
      <point x="-43" y="-76" type="line" smooth="yes"/>
      <point x="-62" y="-73" type="line" smooth="yes"/>
      <point x="-73" y="-70" type="line" smooth="yes"/>
      <point x="-73" y="-200" type="line" smooth="yes"/>
      <point x="-57" y="-206" type="line" smooth="yes"/>
      <point x="-29" y="-211" type="line" smooth="yes"/>
      <point x="13" y="-213" type="line" smooth="yes"/>
      <point x="117" y="-194" type="line" smooth="yes"/>
      <point x="187" y="-132" type="line" smooth="yes"/>
      <point x="212" y="-16" type="line" smooth="yes"/>
      <point x="212" y="530" type="line" smooth="yes"/>
      <point x="54" y="530" type="line" smooth="yes"/>
    </contour>
  </outline>
</glyph>
<glyph name="l" format="1">
  <advance width="266"/>
  <unicode hex="006C"/>
  <outline>
    <contour>
      <point x="54" y="0" type="line" smooth="yes"/>
      <point x="212" y="0" type="line" smooth="yes"/>
      <point x="212" y="800" type="line" smooth="yes"/>
      <point x="54" y="800" type="line" smooth="yes"/>
    </contour>
  </outline>
</glyph>
<glyph name="m" format="1">
  <advance width="863"/>
  <unicode hex="006D"/>
  <outline>
    <contour>
      <point x="815" y="0" type="line" smooth="yes"/>
      <point x="815" y="365" type="line" smooth="yes"/>
      <point x="799" y="456" type="line" smooth="yes"/>
      <point x="748" y="519" type="line" smooth="yes"/>
      <point x="658" y="543" type="line" smooth="yes"/>
      <point x="588" y="532" type="line" smooth="yes"/>
      <point x="534" y="503" type="line" smooth="yes"/>
      <point x="495" y="461" type="line" smooth="yes"/>
      <point x="465" y="504" type="line" smooth="yes"/>
      <point x="418" y="533" type="line" smooth="yes"/>
      <point x="356" y="543" type="line" smooth="yes"/>
      <point x="288" y="533" type="line" smooth="yes"/>
      <point x="236" y="506" type="line" smooth="yes"/>
      <point x="197" y="466" type="line" smooth="yes"/>
      <point x="186" y="530" type="line" smooth="yes"/>
      <point x="45" y="530" type="line" smooth="yes"/>
      <point x="54" y="380" type="line" smooth="yes"/>
      <point x="54" y="0" type="line" smooth="yes"/>
      <point x="212" y="0" type="line" smooth="yes"/>
      <point x="212" y="361" type="line" smooth="yes"/>
      <point x="229" y="381" type="line" smooth="yes"/>
      <point x="255" y="399" type="line" smooth="yes"/>
      <point x="293" y="407" type="line" smooth="yes"/>
      <point x="329" y="399" type="line" smooth="yes"/>
      <point x="349" y="376" type="line" smooth="yes"/>
      <point x="356" y="340" type="line" smooth="yes"/>
      <point x="356" y="0" type="line" smooth="yes"/>
      <point x="513" y="0" type="line" smooth="yes"/>
      <point x="513" y="361" type="line" smooth="yes"/>
      <point x="530" y="381" type="line" smooth="yes"/>
      <point x="557" y="399" type="line" smooth="yes"/>
      <point x="595" y="407" type="line" smooth="yes"/>
      <point x="631" y="399" type="line" smooth="yes"/>
      <point x="651" y="376" type="line" smooth="yes"/>
      <point x="658" y="340" type="line" smooth="yes"/>
      <point x="658" y="0" type="line" smooth="yes"/>
    </contour>
  </outline>
</glyph>
<glyph name="p" format="1">
  <advance width="574"/>
  <unicode hex="0070"/>
  <outline>
    <contour>
      <point x="301" y="407" type="line" smooth="yes"/>
      <point x="350" y="392" type="line" smooth="yes"/>
      <point x="378" y="350" type="line" smooth="yes"/>
      <point x="386" y="283" type="line" smooth="yes"/>
      <point x="386" y="247" type="line" smooth="yes"/>
      <point x="378" y="180" type="line" smooth="yes"/>
      <point x="350" y="138" type="line" smooth="yes"/>
      <point x="301" y="123" type="line" smooth="yes"/>
      <point x="260" y="132" type="line" smooth="yes"/>
      <point x="230" y="152" type="line" smooth="yes"/>
      <point x="211" y="173" type="line" smooth="yes"/>
      <point x="211" y="357" type="line" smooth="yes"/>
      <point x="230" y="378" type="line" smooth="yes"/>
      <point x="260" y="398" type="line" smooth="yes"/>
    </contour>
    <contour>
      <point x="347" y="-13" type="line" smooth="yes"/>
      <point x="463" y="20" type="line" smooth="yes"/>
      <point x="525" y="112" type="line" smooth="yes"/>
      <point x="544" y="247" type="line" smooth="yes"/>
      <point x="544" y="283" type="line" smooth="yes"/>
      <point x="525" y="418" type="line" smooth="yes"/>
      <point x="463" y="510" type="line" smooth="yes"/>
      <point x="347" y="543" type="line" smooth="yes"/>
      <point x="282" y="533" type="line" smooth="yes"/>
      <point x="232" y="505" type="line" smooth="yes"/>
      <point x="196" y="465" type="line" smooth="yes"/>
      <point x="185" y="530" type="line" smooth="yes"/>
      <point x="44" y="530" type="line" smooth="yes"/>
      <point x="53" y="380" type="line" smooth="yes"/>
      <point x="53" y="-200" type="line" smooth="yes"/>
      <point x="211" y="-200" type="line" smooth="yes"/>
      <point x="211" y="45" type="line" smooth="yes"/>
      <point x="246" y="14" type="line" smooth="yes"/>
      <point x="290" y="-6" type="line" smooth="yes"/>
    </contour>
  </outline>
</glyph>
<glyph name="q" format="1">
  <advance width="581"/>
  <unicode hex="0071"/>
  <outline>
    <contour>
      <point x="366" y="173" type="line" smooth="yes"/>
      <point x="347" y="152" type="line" smooth="yes"/>
      <point x="317" y="132" type="line" smooth="yes"/>
      <point x="276" y="123" type="line" smooth="yes"/>
      <point x="226" y="138" type="line" smooth="yes"/>
      <point x="199" y="180" type="line" smooth="yes"/>
      <point x="190" y="247" type="line" smooth="yes"/>
      <point x="190" y="283" type="line" smooth="yes"/>
      <point x="199" y="350" type="line" smooth="yes"/>
      <point x="226" y="392" type="line" smooth="yes"/>
      <point x="276" y="407" type="line" smooth="yes"/>
      <point x="317" y="398" type="line" smooth="yes"/>
      <point x="347" y="378" type="line" smooth="yes"/>
      <point x="366" y="357" type="line" smooth="yes"/>
    </contour>
    <contour>
      <point x="366" y="-200" type="line" smooth="yes"/>
      <point x="524" y="-200" type="line" smooth="yes"/>
      <point x="524" y="380" type="line" smooth="yes"/>
      <point x="533" y="530" type="line" smooth="yes"/>
      <point x="391" y="530" type="line" smooth="yes"/>
      <point x="380" y="466" type="line" smooth="yes"/>
      <point x="344" y="506" type="line" smooth="yes"/>
      <point x="295" y="533" type="line" smooth="yes"/>
      <point x="230" y="543" type="line" smooth="yes"/>
      <point x="114" y="510" type="line" smooth="yes"/>
      <point x="52" y="418" type="line" smooth="yes"/>
      <point x="33" y="283" type="line" smooth="yes"/>
      <point x="33" y="247" type="line" smooth="yes"/>
      <point x="52" y="112" type="line" smooth="yes"/>
      <point x="114" y="20" type="line" smooth="yes"/>
      <point x="230" y="-13" type="line" smooth="yes"/>
      <point x="286" y="-6" type="line" smooth="yes"/>
      <point x="331" y="14" type="line" smooth="yes"/>
      <point x="366" y="45" type="line" smooth="yes"/>
    </contour>
  </outline>
</glyph>
<glyph name="t" format="1">
  <advance width="431"/>
  <unicode hex="0074"/>
  <outline>
    <contour>
      <point x="258" y="530" type="line" smooth="yes"/>
      <point x="258" y="680" type="line" smooth="yes"/>
      <point x="100" y="680" type="line" smooth="yes"/>
      <point x="100" y="530" type="line" smooth="yes"/>
      <point x="19" y="530" type="line" smooth="yes"/>
      <point x="19" y="392" type="line" smooth="yes"/>
      <point x="100" y="392" type="line" smooth="yes"/>
      <point x="100" y="184" type="line" smooth="yes"/>
      <point x="125" y="68" type="line" smooth="yes"/>
      <point x="195" y="6" type="line" smooth="yes"/>
      <point x="299" y="-13" type="line" smooth="yes"/>
      <point x="340" y="-11" type="line" smooth="yes"/>
      <point x="369" y="-6" type="line" smooth="yes"/>
      <point x="384" y="0" type="line" smooth="yes"/>
      <point x="384" y="130" type="line" smooth="yes"/>
      <point x="373" y="127" type="line" smooth="yes"/>
      <point x="355" y="124" type="line" smooth="yes"/>
      <point x="336" y="123" type="line" smooth="yes"/>
      <point x="294" y="129" type="line" smooth="yes"/>
      <point x="268" y="152" type="line" smooth="yes"/>
      <point x="258" y="201" type="line" smooth="yes"/>
      <point x="258" y="392" type="line" smooth="yes"/>
      <point x="394" y="392" type="line" smooth="yes"/>
      <point x="394" y="530" type="line" smooth="yes"/>
    </contour>
  </outline>
</glyph>
<glyph name="u" format="1">
  <advance width="580"/>
  <unicode hex="0075"/>
  <outline>
    <contour>
      <point x="48" y="530" type="line" smooth="yes"/>
      <point x="48" y="171" type="line" smooth="yes"/>
      <point x="64" y="81" type="line" smooth="yes"/>
      <point x="116" y="13" type="line" smooth="yes"/>
      <point x="212" y="-13" type="line" smooth="yes"/>
      <point x="285" y="-3" type="line" smooth="yes"/>
      <point x="341" y="25" type="line" smooth="yes"/>
      <point x="382" y="67" type="line" smooth="yes"/>
      <point x="394" y="0" type="line" smooth="yes"/>
      <point x="535" y="0" type="line" smooth="yes"/>
      <point x="526" y="150" type="line" smooth="yes"/>
      <point x="526" y="530" type="line" smooth="yes"/>
      <point x="368" y="530" type="line" smooth="yes"/>
      <point x="368" y="173" type="line" smooth="yes"/>
      <point x="349" y="152" type="line" smooth="yes"/>
      <point x="318" y="132" type="line" smooth="yes"/>
      <point x="275" y="123" type="line" smooth="yes"/>
      <point x="233" y="134" type="line" smooth="yes"/>
      <point x="211" y="161" type="line" smooth="yes"/>
      <point x="205" y="197" type="line" smooth="yes"/>
      <point x="205" y="530" type="line" smooth="yes"/>
    </contour>
  </outline>
</glyph>
<glyph name="braceleft" format="1">
  <advance width="365"/>
  <unicode hex="007B"/>
  <outline>
    <contour>
      <point x="332" y="840" type="line" smooth="yes"/>
      <point x="305" y="840" type="line" smooth="yes"/>
      <point x="196" y="823" type="line" smooth="yes"/>
      <point x="125" y="767" type="line" smooth="yes"/>
      <point x="99" y="662" type="line" smooth="yes"/>
      <point x="99" y="511" type="line" smooth="yes"/>
      <point x="91" y="464" type="line" smooth="yes"/>
      <point x="66" y="437" type="line" smooth="yes"/>
      <point x="24" y="429" type="line" smooth="yes"/>
      <point x="24" y="291" type="line" smooth="yes"/>
      <point x="64" y="284" type="line" smooth="yes"/>
      <point x="89" y="260" type="line" smooth="yes"/>
      <point x="99" y="217" type="line" smooth="yes"/>
      <point x="99" y="58" type="line" smooth="yes"/>
      <point x="125" y="-47" type="line" smooth="yes"/>
      <point x="196" y="-103" type="line" smooth="yes"/>
      <point x="305" y="-120" type="line" smooth="yes"/>
      <point x="332" y="-120" type="line" smooth="yes"/>
      <point x="332" y="18" type="line" smooth="yes"/>
      <point x="290" y="26" type="line" smooth="yes"/>
      <point x="264" y="54" type="line" smooth="yes"/>
      <point x="256" y="103" type="line" smooth="yes"/>
      <point x="256" y="244" type="line" smooth="yes"/>
      <point x="249" y="295" type="line" smooth="yes"/>
      <point x="229" y="333" type="line" smooth="yes"/>
      <point x="196" y="360" type="line" smooth="yes"/>
      <point x="229" y="387" type="line" smooth="yes"/>
      <point x="249" y="425" type="line" smooth="yes"/>
      <point x="256" y="476" type="line" smooth="yes"/>
      <point x="256" y="626" type="line" smooth="yes"/>
      <point x="266" y="670" type="line" smooth="yes"/>
      <point x="291" y="694" type="line" smooth="yes"/>
      <point x="332" y="702" type="line" smooth="yes"/>
    </contour>
  </outline>
</glyph>
<glyph name="braceright" format="1">
  <advance width="365"/>
  <unicode hex="007D"/>
  <outline>
    <contour>
      <point x="33" y="-120" type="line" smooth="yes"/>
      <point x="60" y="-120" type="line" smooth="yes"/>
      <point x="169" y="-103" type="line" smooth="yes"/>
      <point x="240" y="-47" type="line" smooth="yes"/>
      <point x="266" y="58" type="line" smooth="yes"/>
      <point x="266" y="209" type="line" smooth="yes"/>
      <point x="274" y="256" type="line" smooth="yes"/>
      <point x="299" y="283" type="line" smooth="yes"/>
      <point x="341" y="291" type="line" smooth="yes"/>
      <point x="341" y="429" type="line" smooth="yes"/>
      <point x="300" y="436" type="line" smooth="yes"/>
      <point x="275" y="460" type="line" smooth="yes"/>
      <point x="266" y="502" type="line" smooth="yes"/>
      <point x="266" y="662" type="line" smooth="yes"/>
      <point x="240" y="767" type="line" smooth="yes"/>
      <point x="169" y="823" type="line" smooth="yes"/>
      <point x="60" y="840" type="line" smooth="yes"/>
      <point x="33" y="840" type="line" smooth="yes"/>
      <point x="33" y="702" type="line" smooth="yes"/>
      <point x="75" y="694" type="line" smooth="yes"/>
      <point x="101" y="666" type="line" smooth="yes"/>
      <point x="109" y="617" type="line" smooth="yes"/>
      <point x="109" y="476" type="line" smooth="yes"/>
      <point x="116" y="425" type="line" smooth="yes"/>
      <point x="136" y="387" type="line" smooth="yes"/>
      <point x="168" y="360" type="line" smooth="yes"/>
      <point x="136" y="333" type="line" smooth="yes"/>
      <point x="116" y="295" type="line" smooth="yes"/>
      <point x="109" y="244" type="line" smooth="yes"/>
      <point x="109" y="103" type="line" smooth="yes"/>
      <point x="101" y="54" type="line" smooth="yes"/>
      <point x="75" y="26" type="line" smooth="yes"/>
      <point x="33" y="18" type="line" smooth="yes"/>
    </contour>
  </outline>
</glyph>
<glyph name="asciitilde" format="1">
  <advance width="600"/>
  <unicode hex="007E"/>
  <outline>
    <contour>
      <point x="184" y="482" type="line" smooth="yes"/>
      <point x="119" y="469" type="line" smooth="yes"/>
      <point x="67" y="434" type="line" smooth="yes"/>
      <point x="28" y="387" type="line" smooth="yes"/>
      <point x="102" y="313" type="line" smooth="yes"/>
      <point x="123" y="334" type="line" smooth="yes"/>
      <point x="153" y="353" type="line" smooth="yes"/>
      <point x="190" y="361" type="line" smooth="yes"/>
      <point x="258" y="344" type="line" smooth="yes"/>
      <point x="327" y="313" type="line" smooth="yes"/>
      <point x="416" y="296" type="line" smooth="yes"/>
      <point x="481" y="309" type="line" smooth="yes"/>
      <point x="533" y="344" type="line" smooth="yes"/>
      <point x="572" y="391" type="line" smooth="yes"/>
      <point x="498" y="465" type="line" smooth="yes"/>
      <point x="477" y="444" type="line" smooth="yes"/>
      <point x="447" y="425" type="line" smooth="yes"/>
      <point x="410" y="417" type="line" smooth="yes"/>
      <point x="342" y="434" type="line" smooth="yes"/>
      <point x="273" y="465" type="line" smooth="yes"/>
    </contour>
  </outline>
</glyph>
<glyph name="exclamdown" format="1">
  <advance width="265"/>
  <unicode hex="00A1"/>
  <outline>
    <contour>
      <point x="50" y="363" type="line" smooth="yes"/>
      <point x="216" y="363" type="line" smooth="yes"/>
      <point x="216" y="530" type="line" smooth="yes"/>
      <point x="50" y="530" type="line" smooth="yes"/>
    </contour>
    <contour>
      <point x="231" y="-200" type="line" smooth="yes"/>
      <point x="189" y="302" type="line" smooth="yes"/>
      <point x="77" y="302" type="line" smooth="yes"/>
      <point x="35" y="-200" type="line" smooth="yes"/>
    </contour>
  </outline>
</glyph>
<glyph name="cent" format="1">
  <advance width="600"/>
  <unicode hex="00A2"/>
  <outline>
    <contour>
      <point x="561" y="466" type="line" smooth="yes"/>
      <point x="561" y="496" type="line" smooth="yes"/>
      <point x="547" y="593" type="line" smooth="yes"/>
      <point x="504" y="665" type="line" smooth="yes"/>
      <point x="433" y="711" type="line" smooth="yes"/>
      <point x="464" y="840" type="line" smooth="yes"/>
      <point x="342" y="840" type="line" smooth="yes"/>
      <point x="316" y="731" type="line" smooth="yes"/>
      <point x="307" y="731" type="line" smooth="yes"/>
      <point x="155" y="695" type="line" smooth="yes"/>
      <point x="67" y="587" type="line" smooth="yes"/>
      <point x="39" y="409" type="line" smooth="yes"/>
      <point x="39" y="371" type="line" smooth="yes"/>
      <point x="52" y="243" type="line" smooth="yes"/>
      <point x="92" y="147" type="line" smooth="yes"/>
      <point x="161" y="83" type="line" smooth="yes"/>
      <point x="127" y="-60" type="line" smooth="yes"/>
      <point x="249" y="-60" type="line" smooth="yes"/>
      <point x="275" y="51" type="line" smooth="yes"/>
      <point x="285" y="50" type="line" smooth="yes"/>
      <point x="296" y="50" type="line" smooth="yes"/>
      <point x="307" y="50" type="line" smooth="yes"/>
      <point x="448" y="76" type="line" smooth="yes"/>
      <point x="533" y="152" type="line" smooth="yes"/>
      <point x="561" y="278" type="line" smooth="yes"/>
      <point x="561" y="294" type="line" smooth="yes"/>
      <point x="405" y="294" type="line" smooth="yes"/>
      <point x="396" y="239" type="line" smooth="yes"/>
      <point x="367" y="202" type="line" smooth="yes"/>
      <point x="314" y="189" type="line" smooth="yes"/>
      <point x="307" y="189" type="line" smooth="yes"/>
      <point x="244" y="212" type="line" smooth="yes"/>
      <point x="210" y="276" type="line" smooth="yes"/>
      <point x="200" y="373" type="line" smooth="yes"/>
      <point x="200" y="409" type="line" smooth="yes"/>
      <point x="210" y="506" type="line" smooth="yes"/>
      <point x="244" y="570" type="line" smooth="yes"/>
      <point x="307" y="593" type="line" smooth="yes"/>
      <point x="314" y="593" type="line" smooth="yes"/>
      <point x="368" y="578" type="line" smooth="yes"/>
      <point x="397" y="535" type="line" smooth="yes"/>
      <point x="405" y="466" type="line" smooth="yes"/>
    </contour>
  </outline>
</glyph>
<glyph name="sterling" format="1">
  <advance width="600"/>
  <unicode hex="00A3"/>
  <outline>
    <contour>
      <point x="322" y="654" type="line" smooth="yes"/>
      <point x="366" y="636" type="line" smooth="yes"/>
      <point x="391" y="583" type="line" smooth="yes"/>
      <point x="398" y="500" type="line" smooth="yes"/>
      <point x="557" y="500" type="line" smooth="yes"/>
      <point x="557" y="517" type="line" smooth="yes"/>
      <point x="535" y="670" type="line" smooth="yes"/>
      <point x="460" y="762" type="line" smooth="yes"/>
      <point x="322" y="793" type="line" smooth="yes"/>
      <point x="184" y="761" type="line" smooth="yes"/>
      <point x="113" y="683" type="line" smooth="yes"/>
      <point x="92" y="583" type="line" smooth="yes"/>
      <point x="95" y="529" type="line" smooth="yes"/>
      <point x="101" y="480" type="line" smooth="yes"/>
      <point x="112" y="434" type="line" smooth="yes"/>
      <point x="44" y="434" type="line" smooth="yes"/>
      <point x="44" y="297" type="line" smooth="yes"/>
      <point x="157" y="297" type="line" smooth="yes"/>
      <point x="173" y="247" type="line" smooth="yes"/>
      <point x="187" y="195" type="line" smooth="yes"/>
      <point x="197" y="139" type="line" smooth="yes"/>
      <point x="44" y="139" type="line" smooth="yes"/>
      <point x="44" y="0" type="line" smooth="yes"/>
      <point x="556" y="0" type="line" smooth="yes"/>
      <point x="556" y="139" type="line" smooth="yes"/>
      <point x="335" y="139" type="line" smooth="yes"/>
      <point x="329" y="195" type="line" smooth="yes"/>
      <point x="320" y="248" type="line" smooth="yes"/>
      <point x="310" y="297" type="line" smooth="yes"/>
      <point x="450" y="297" type="line" smooth="yes"/>
      <point x="450" y="434" type="line" smooth="yes"/>
      <point x="274" y="434" type="line" smooth="yes"/>
      <point x="263" y="481" type="line" smooth="yes"/>
      <point x="255" y="527" type="line" smooth="yes"/>
      <point x="252" y="570" type="line" smooth="yes"/>
      <point x="259" y="614" type="line" smooth="yes"/>
      <point x="282" y="644" type="line" smooth="yes"/>
    </contour>
  </outline>
</glyph>
<glyph name="section" format="1">
  <advance width="549"/>
  <unicode hex="00A7"/>
  <outline>
    <contour>
      <point x="273" y="455" type="line" smooth="yes"/>
      <point x="324" y="446" type="line" smooth="yes"/>
      <point x="351" y="424" type="line" smooth="yes"/>
      <point x="360" y="390" type="line" smooth="yes"/>
      <point x="352" y="358" type="line" smooth="yes"/>
      <point x="327" y="335" type="line" smooth="yes"/>
      <point x="284" y="325" type="line" smooth="yes"/>
      <point x="275" y="325" type="line" smooth="yes"/>
      <point x="225" y="334" type="line" smooth="yes"/>
      <point x="198" y="356" type="line" smooth="yes"/>
      <point x="189" y="390" type="line" smooth="yes"/>
      <point x="197" y="422" type="line" smooth="yes"/>
      <point x="221" y="445" type="line" smooth="yes"/>
      <point x="264" y="455" type="line" smooth="yes"/>
    </contour>
    <contour>
      <point x="518" y="393" type="line" smooth="yes"/>
      <point x="518" y="402" type="line" smooth="yes"/>
      <point x="491" y="495" type="line" smooth="yes"/>
      <point x="414" y="544" type="line" smooth="yes"/>
      <point x="298" y="565" type="line" smooth="yes"/>
      <point x="250" y="576" type="line" smooth="yes"/>
      <point x="226" y="597" type="line" smooth="yes"/>
      <point x="220" y="625" type="line" smooth="yes"/>
      <point x="228" y="651" type="line" smooth="yes"/>
      <point x="251" y="668" type="line" smooth="yes"/>
      <point x="288" y="674" type="line" smooth="yes"/>
      <point x="328" y="666" type="line" smooth="yes"/>
      <point x="350" y="642" type="line" smooth="yes"/>
      <point x="357" y="606" type="line" smooth="yes"/>
      <point x="511" y="606" type="line" smooth="yes"/>
      <point x="511" y="611" type="line" smooth="yes"/>
      <point x="488" y="709" type="line" smooth="yes"/>
      <point x="415" y="771" type="line" smooth="yes"/>
      <point x="288" y="793" type="line" smooth="yes"/>
      <point x="175" y="775" type="line" smooth="yes"/>
      <point x="96" y="719" type="line" smooth="yes"/>
      <point x="66" y="620" type="line" smooth="yes"/>
      <point x="66" y="611" type="line" smooth="yes"/>
      <point x="70" y="573" type="line" smooth="yes"/>
      <point x="81" y="540" type="line" smooth="yes"/>
      <point x="100" y="512" type="line" smooth="yes"/>
      <point x="62" y="481" type="line" smooth="yes"/>
      <point x="39" y="439" type="line" smooth="yes"/>
      <point x="31" y="387" type="line" smooth="yes"/>
      <point x="31" y="378" type="line" smooth="yes"/>
      <point x="58" y="285" type="line" smooth="yes"/>
      <point x="135" y="236" type="line" smooth="yes"/>
      <point x="251" y="215" type="line" smooth="yes"/>
      <point x="298" y="204" type="line" smooth="yes"/>
      <point x="322" y="183" type="line" smooth="yes"/>
      <point x="328" y="155" type="line" smooth="yes"/>
      <point x="320" y="129" type="line" smooth="yes"/>
      <point x="297" y="112" type="line" smooth="yes"/>
      <point x="260" y="106" type="line" smooth="yes"/>
      <point x="221" y="114" type="line" smooth="yes"/>
      <point x="199" y="138" type="line" smooth="yes"/>
      <point x="192" y="174" type="line" smooth="yes"/>
      <point x="38" y="174" type="line" smooth="yes"/>
      <point x="38" y="169" type="line" smooth="yes"/>
      <point x="61" y="71" type="line" smooth="yes"/>
      <point x="134" y="9" type="line" smooth="yes"/>
      <point x="260" y="-13" type="line" smooth="yes"/>
      <point x="374" y="5" type="line" smooth="yes"/>
      <point x="453" y="61" type="line" smooth="yes"/>
      <point x="483" y="160" type="line" smooth="yes"/>
      <point x="483" y="169" type="line" smooth="yes"/>
      <point x="479" y="207" type="line" smooth="yes"/>
      <point x="467" y="239" type="line" smooth="yes"/>
      <point x="448" y="267" type="line" smooth="yes"/>
      <point x="487" y="298" type="line" smooth="yes"/>
      <point x="510" y="340" type="line" smooth="yes"/>
    </contour>
  </outline>
</glyph>
<glyph name="copyright" format="1">
  <advance width="920"/>
  <unicode hex="00A9"/>
  <outline>
    <contour>
      <point x="463" y="264" type="line" smooth="yes"/>
      <point x="417" y="278" type="line" smooth="yes"/>
      <point x="392" y="316" type="line" smooth="yes"/>
      <point x="385" y="373" type="line" smooth="yes"/>
      <point x="385" y="407" type="line" smooth="yes"/>
      <point x="392" y="464" type="line" smooth="yes"/>
      <point x="417" y="502" type="line" smooth="yes"/>
      <point x="463" y="516" type="line" smooth="yes"/>
      <point x="502" y="507" type="line" smooth="yes"/>
      <point x="525" y="483" type="line" smooth="yes"/>
      <point x="533" y="444" type="line" smooth="yes"/>
      <point x="666" y="444" type="line" smooth="yes"/>
      <point x="666" y="465" type="line" smooth="yes"/>
      <point x="643" y="555" type="line" smooth="yes"/>
      <point x="575" y="616" type="line" smooth="yes"/>
      <point x="460" y="639" type="line" smooth="yes"/>
      <point x="336" y="608" type="line" smooth="yes"/>
      <point x="266" y="526" type="line" smooth="yes"/>
      <point x="244" y="407" type="line" smooth="yes"/>
      <point x="244" y="373" type="line" smooth="yes"/>
      <point x="266" y="254" type="line" smooth="yes"/>
      <point x="336" y="172" type="line" smooth="yes"/>
      <point x="460" y="141" type="line" smooth="yes"/>
      <point x="575" y="163" type="line" smooth="yes"/>
      <point x="643" y="222" type="line" smooth="yes"/>
      <point x="666" y="307" type="line" smooth="yes"/>
      <point x="666" y="327" type="line" smooth="yes"/>
      <point x="533" y="327" type="line" smooth="yes"/>
      <point x="526" y="295" type="line" smooth="yes"/>
      <point x="502" y="273" type="line" smooth="yes"/>
    </contour>
    <contour>
      <point x="113" y="390" type="line" smooth="yes"/>
      <point x="160" y="565" type="line" smooth="yes"/>
      <point x="285" y="690" type="line" smooth="yes"/>
      <point x="460" y="737" type="line" smooth="yes"/>
      <point x="635" y="690" type="line" smooth="yes"/>
      <point x="760" y="565" type="line" smooth="yes"/>
      <point x="807" y="390" type="line" smooth="yes"/>
      <point x="760" y="215" type="line" smooth="yes"/>
      <point x="635" y="90" type="line" smooth="yes"/>
      <point x="460" y="43" type="line" smooth="yes"/>
      <point x="285" y="90" type="line" smooth="yes"/>
      <point x="160" y="215" type="line" smooth="yes"/>
    </contour>
    <contour>
      <point x="57" y="390" type="line" smooth="yes"/>
      <point x="112" y="186" type="line" smooth="yes"/>
      <point x="256" y="42" type="line" smooth="yes"/>
      <point x="460" y="-13" type="line" smooth="yes"/>
      <point x="664" y="42" type="line" smooth="yes"/>
      <point x="808" y="186" type="line" smooth="yes"/>
      <point x="863" y="390" type="line" smooth="yes"/>
      <point x="808" y="594" type="line" smooth="yes"/>
      <point x="664" y="738" type="line" smooth="yes"/>
      <point x="460" y="793" type="line" smooth="yes"/>
      <point x="256" y="738" type="line" smooth="yes"/>
      <point x="112" y="594" type="line" smooth="yes"/>
    </contour>
  </outline>
</glyph>
<glyph name="ordfeminine" format="1">
  <advance width="429"/>
  <unicode hex="00AA"/>
  <outline>
    <contour>
      <point x="203" y="487" type="line" smooth="yes"/>
      <point x="180" y="492" type="line" smooth="yes"/>
      <point x="168" y="504" type="line" smooth="yes"/>
      <point x="165" y="520" type="line" smooth="yes"/>
      <point x="165" y="524" type="line" smooth="yes"/>
      <point x="169" y="541" type="line" smooth="yes"/>
      <point x="181" y="554" type="line" smooth="yes"/>
      <point x="203" y="561" type="line" smooth="yes"/>
      <point x="258" y="570" type="line" smooth="yes"/>
      <point x="258" y="509" type="line" smooth="yes"/>
      <point x="244" y="499" type="line" smooth="yes"/>
      <point x="225" y="490" type="line" smooth="yes"/>
    </contour>
    <contour>
      <point x="401" y="181" type="line" smooth="yes"/>
      <point x="401" y="300" type="line" smooth="yes"/>
      <point x="39" y="300" type="line" smooth="yes"/>
      <point x="39" y="181" type="line" smooth="yes"/>
    </contour>
    <contour>
      <point x="279" y="387" type="line" smooth="yes"/>
      <point x="403" y="387" type="line" smooth="yes"/>
      <point x="396" y="499" type="line" smooth="yes"/>
      <point x="396" y="641" type="line" smooth="yes"/>
      <point x="380" y="724" type="line" smooth="yes"/>
      <point x="325" y="775" type="line" smooth="yes"/>
      <point x="219" y="793" type="line" smooth="yes"/>
      <point x="113" y="774" type="line" smooth="yes"/>
      <point x="59" y="726" type="line" smooth="yes"/>
      <point x="43" y="659" type="line" smooth="yes"/>
      <point x="43" y="652" type="line" smooth="yes"/>
      <point x="173" y="652" type="line" smooth="yes"/>
      <point x="177" y="670" type="line" smooth="yes"/>
      <point x="189" y="684" type="line" smooth="yes"/>
      <point x="215" y="690" type="line" smooth="yes"/>
      <point x="239" y="685" type="line" smooth="yes"/>
      <point x="253" y="671" type="line" smooth="yes"/>
      <point x="258" y="648" type="line" smooth="yes"/>
      <point x="174" y="635" type="line" smooth="yes"/>
      <point x="97" y="615" type="line" smooth="yes"/>
      <point x="46" y="575" type="line" smooth="yes"/>
      <point x="28" y="506" type="line" smooth="yes"/>
      <point x="28" y="499" type="line" smooth="yes"/>
      <point x="39" y="439" type="line" smooth="yes"/>
      <point x="78" y="394" type="line" smooth="yes"/>
      <point x="152" y="377" type="line" smooth="yes"/>
      <point x="200" y="383" type="line" smooth="yes"/>
      <point x="240" y="401" type="line" smooth="yes"/>
      <point x="271" y="427" type="line" smooth="yes"/>
    </contour>
  </outline>
</glyph>
<glyph name="degree" format="1">
  <advance width="400"/>
  <unicode hex="00B0"/>
  <outline>
    <contour>
      <point x="362" y="632" type="line" smooth="yes"/>
      <point x="340" y="718" type="line" smooth="yes"/>
      <point x="283" y="773" type="line" smooth="yes"/>
      <point x="200" y="793" type="line" smooth="yes"/>
      <point x="117" y="773" type="line" smooth="yes"/>
      <point x="60" y="718" type="line" smooth="yes"/>
      <point x="38" y="632" type="line" smooth="yes"/>
      <point x="38" y="627" type="line" smooth="yes"/>
      <point x="60" y="541" type="line" smooth="yes"/>
      <point x="117" y="486" type="line" smooth="yes"/>
      <point x="200" y="466" type="line" smooth="yes"/>
      <point x="283" y="486" type="line" smooth="yes"/>
      <point x="340" y="541" type="line" smooth="yes"/>
      <point x="362" y="627" type="line" smooth="yes"/>
    </contour>
    <contour>
      <point x="266" y="627" type="line" smooth="yes"/>
      <point x="257" y="593" type="line" smooth="yes"/>
      <point x="235" y="571" type="line" smooth="yes"/>
      <point x="202" y="563" type="line" smooth="yes"/>
      <point x="198" y="563" type="line" smooth="yes"/>
      <point x="165" y="571" type="line" smooth="yes"/>
      <point x="143" y="593" type="line" smooth="yes"/>
      <point x="134" y="627" type="line" smooth="yes"/>
      <point x="134" y="633" type="line" smooth="yes"/>
      <point x="143" y="667" type="line" smooth="yes"/>
      <point x="165" y="689" type="line" smooth="yes"/>
      <point x="198" y="697" type="line" smooth="yes"/>
      <point x="202" y="697" type="line" smooth="yes"/>
      <point x="235" y="689" type="line" smooth="yes"/>
      <point x="257" y="667" type="line" smooth="yes"/>
      <point x="266" y="633" type="line" smooth="yes"/>
    </contour>
  </outline>
</glyph>
<glyph name="twosuperior" format="1">
  <advance width="300"/>
  <unicode hex="00B2"/>
  <outline>
    <contour>
      <point x="284" y="493" type="line" smooth="yes"/>
      <point x="179" y="493" type="line" smooth="yes"/>
      <point x="241" y="562" type="line" smooth="yes"/>
      <point x="265" y="592" type="line" smooth="yes"/>
      <point x="279" y="622" type="line" smooth="yes"/>
      <point x="284" y="659" type="line" smooth="yes"/>
      <point x="284" y="677" type="line" smooth="yes"/>
      <point x="273" y="726" type="line" smooth="yes"/>
      <point x="232" y="772" type="line" smooth="yes"/>
      <point x="149" y="793" type="line" smooth="yes"/>
      <point x="65" y="772" type="line" smooth="yes"/>
      <point x="24" y="722" type="line" smooth="yes"/>
      <point x="13" y="665" type="line" smooth="yes"/>
      <point x="13" y="650" type="line" smooth="yes"/>
      <point x="133" y="650" type="line" smooth="yes"/>
      <point x="134" y="671" type="line" smooth="yes"/>
      <point x="139" y="684" type="line" smooth="yes"/>
      <point x="147" y="689" type="line" smooth="yes"/>
      <point x="150" y="689" type="line" smooth="yes"/>
      <point x="158" y="684" type="line" smooth="yes"/>
      <point x="163" y="674" type="line" smooth="yes"/>
      <point x="164" y="662" type="line" smooth="yes"/>
      <point x="164" y="651" type="line" smooth="yes"/>
      <point x="162" y="639" type="line" smooth="yes"/>
      <point x="158" y="629" type="line" smooth="yes"/>
      <point x="151" y="619" type="line" smooth="yes"/>
      <point x="13" y="466" type="line" smooth="yes"/>
      <point x="13" y="390" type="line" smooth="yes"/>
      <point x="284" y="390" type="line" smooth="yes"/>
    </contour>
  </outline>
</glyph>
<glyph name="paragraph" format="1">
  <advance width="549"/>
  <unicode hex="00B6"/>
  <outline>
    <contour>
      <point x="333" y="0" type="line" smooth="yes"/>
      <point x="495" y="0" type="line" smooth="yes"/>
      <point x="495" y="780" type="line" smooth="yes"/>
      <point x="296" y="780" type="line" smooth="yes"/>
      <point x="169" y="764" type="line" smooth="yes"/>
      <point x="67" y="694" type="line" smooth="yes"/>
      <point x="25" y="540" type="line" smooth="yes"/>
      <point x="25" y="520" type="line" smooth="yes"/>
      <point x="67" y="365" type="line" smooth="yes"/>
      <point x="169" y="296" type="line" smooth="yes"/>
      <point x="296" y="280" type="line" smooth="yes"/>
      <point x="333" y="280" type="line" smooth="yes"/>
    </contour>
  </outline>
</glyph>
<glyph name="cedilla" format="1">
  <advance width="602"/>
  <unicode hex="00B8"/>
  <outline>
    <contour>
      <point x="144" y="-190" type="line" smooth="yes"/>
      <point x="169" y="-202" type="line" smooth="yes"/>
      <point x="206" y="-211" type="line" smooth="yes"/>
      <point x="251" y="-215" type="line" smooth="yes"/>
      <point x="317" y="-205" type="line" smooth="yes"/>
      <point x="357" y="-175" type="line" smooth="yes"/>
      <point x="371" y="-127" type="line" smooth="yes"/>
      <point x="358" y="-80" type="line" smooth="yes"/>
      <point x="322" y="-52" type="line" smooth="yes"/>
      <point x="271" y="-40" type="line" smooth="yes"/>
      <point x="286" y="0" type="line" smooth="yes"/>
      <point x="214" y="0" type="line" smooth="yes"/>
      <point x="185" y="-72" type="line" smooth="yes"/>
      <point x="200" y="-100" type="line" smooth="yes"/>
      <point x="206" y="-99" type="line" smooth="yes"/>
      <point x="220" y="-96" type="line" smooth="yes"/>
      <point x="238" y="-95" type="line" smooth="yes"/>
      <point x="265" y="-98" type="line" smooth="yes"/>
      <point x="281" y="-105" type="line" smooth="yes"/>
      <point x="286" y="-118" type="line" smooth="yes"/>
      <point x="282" y="-130" type="line" smooth="yes"/>
      <point x="267" y="-138" type="line" smooth="yes"/>
      <point x="239" y="-141" type="line" smooth="yes"/>
      <point x="212" y="-139" type="line" smooth="yes"/>
      <point x="187" y="-133" type="line" smooth="yes"/>
      <point x="167" y="-124" type="line" smooth="yes"/>
    </contour>
  </outline>
</glyph>
<glyph name="onesuperior" format="1">
  <advance width="300"/>
  <unicode hex="00B9"/>
  <outline>
    <contour>
      <point x="290" y="390" type="line" smooth="yes"/>
      <point x="290" y="493" type="line" smooth="yes"/>
      <point x="219" y="493" type="line" smooth="yes"/>
      <point x="219" y="781" type="line" smooth="yes"/>
      <point x="129" y="781" type="line" smooth="yes"/>
      <point x="5" y="697" type="line" smooth="yes"/>
      <point x="64" y="612" type="line" smooth="yes"/>
      <point x="99" y="635" type="line" smooth="yes"/>
      <point x="99" y="493" type="line" smooth="yes"/>
      <point x="27" y="493" type="line" smooth="yes"/>
      <point x="27" y="390" type="line" smooth="yes"/>
    </contour>
  </outline>
</glyph>
<glyph name="ordmasculine" format="1">
  <advance width="443"/>
  <unicode hex="00BA"/>
  <outline>
    <contour>
      <point x="168" y="570" type="line" smooth="yes"/>
      <point x="168" y="600" type="line" smooth="yes"/>
      <point x="174" y="641" type="line" smooth="yes"/>
      <point x="191" y="667" type="line" smooth="yes"/>
      <point x="221" y="676" type="line" smooth="yes"/>
      <point x="252" y="667" type="line" smooth="yes"/>
      <point x="269" y="641" type="line" smooth="yes"/>
      <point x="275" y="600" type="line" smooth="yes"/>
      <point x="275" y="570" type="line" smooth="yes"/>
      <point x="269" y="529" type="line" smooth="yes"/>
      <point x="252" y="504" type="line" smooth="yes"/>
      <point x="221" y="495" type="line" smooth="yes"/>
      <point x="191" y="504" type="line" smooth="yes"/>
      <point x="174" y="529" type="line" smooth="yes"/>
    </contour>
    <contour>
      <point x="40" y="181" type="line" smooth="yes"/>
      <point x="403" y="181" type="line" smooth="yes"/>
      <point x="403" y="300" type="line" smooth="yes"/>
      <point x="40" y="300" type="line" smooth="yes"/>
    </contour>
    <contour>
      <point x="412" y="570" type="line" smooth="yes"/>
      <point x="412" y="600" type="line" smooth="yes"/>
      <point x="392" y="702" type="line" smooth="yes"/>
      <point x="329" y="769" type="line" smooth="yes"/>
      <point x="221" y="794" type="line" smooth="yes"/>
      <point x="114" y="769" type="line" smooth="yes"/>
      <point x="51" y="702" type="line" smooth="yes"/>
      <point x="31" y="600" type="line" smooth="yes"/>
      <point x="31" y="570" type="line" smooth="yes"/>
      <point x="51" y="469" type="line" smooth="yes"/>
      <point x="114" y="401" type="line" smooth="yes"/>
      <point x="221" y="377" type="line" smooth="yes"/>
      <point x="329" y="401" type="line" smooth="yes"/>
      <point x="392" y="469" type="line" smooth="yes"/>
    </contour>
  </outline>
</glyph>
<glyph name="onehalf" format="1">
  <advance width="800"/>
  <unicode hex="00BD"/>
  <outline>
    <contour>
      <point x="290" y="390" type="line" smooth="yes"/>
      <point x="290" y="493" type="line" smooth="yes"/>
      <point x="219" y="493" type="line" smooth="yes"/>
      <point x="219" y="781" type="line" smooth="yes"/>
      <point x="129" y="781" type="line" smooth="yes"/>
      <point x="5" y="697" type="line" smooth="yes"/>
      <point x="64" y="612" type="line" smooth="yes"/>
      <point x="99" y="635" type="line" smooth="yes"/>
      <point x="99" y="493" type="line" smooth="yes"/>
      <point x="27" y="493" type="line" smooth="yes"/>
      <point x="27" y="390" type="line" smooth="yes"/>
    </contour>
    <contour>
      <point x="784" y="103" type="line" smooth="yes"/>
      <point x="679" y="103" type="line" smooth="yes"/>
      <point x="741" y="172" type="line" smooth="yes"/>
      <point x="765" y="202" type="line" smooth="yes"/>
      <point x="779" y="232" type="line" smooth="yes"/>
      <point x="784" y="269" type="line" smooth="yes"/>
      <point x="784" y="287" type="line" smooth="yes"/>
      <point x="773" y="336" type="line" smooth="yes"/>
      <point x="732" y="382" type="line" smooth="yes"/>
      <point x="649" y="403" type="line" smooth="yes"/>
      <point x="565" y="382" type="line" smooth="yes"/>
      <point x="524" y="332" type="line" smooth="yes"/>
      <point x="513" y="275" type="line" smooth="yes"/>
      <point x="513" y="260" type="line" smooth="yes"/>
      <point x="633" y="260" type="line" smooth="yes"/>
      <point x="634" y="281" type="line" smooth="yes"/>
      <point x="639" y="294" type="line" smooth="yes"/>
      <point x="647" y="299" type="line" smooth="yes"/>
      <point x="650" y="299" type="line" smooth="yes"/>
      <point x="658" y="294" type="line" smooth="yes"/>
      <point x="663" y="284" type="line" smooth="yes"/>
      <point x="664" y="272" type="line" smooth="yes"/>
      <point x="664" y="261" type="line" smooth="yes"/>
      <point x="662" y="249" type="line" smooth="yes"/>
      <point x="658" y="239" type="line" smooth="yes"/>
      <point x="651" y="229" type="line" smooth="yes"/>
      <point x="513" y="76" type="line" smooth="yes"/>
      <point x="513" y="0" type="line" smooth="yes"/>
      <point x="784" y="0" type="line" smooth="yes"/>
    </contour>
    <contour>
      <point x="179" y="0" type="line" smooth="yes"/>
      <point x="755" y="780" type="line" smooth="yes"/>
      <point x="621" y="780" type="line" smooth="yes"/>
      <point x="45" y="0" type="line" smooth="yes"/>
    </contour>
  </outline>
</glyph>
<glyph name="threequarters" format="1">
  <advance width="800"/>
  <unicode hex="00BE"/>
  <outline>
    <contour>
      <point x="637" y="229" type="line" smooth="yes"/>
      <point x="637" y="172" type="line" smooth="yes"/>
      <point x="606" y="172" type="line" smooth="yes"/>
    </contour>
    <contour>
      <point x="757" y="0" type="line" smooth="yes"/>
      <point x="757" y="68" type="line" smooth="yes"/>
      <point x="789" y="68" type="line" smooth="yes"/>
      <point x="789" y="172" type="line" smooth="yes"/>
      <point x="757" y="172" type="line" smooth="yes"/>
      <point x="757" y="390" type="line" smooth="yes"/>
      <point x="636" y="390" type="line" smooth="yes"/>
      <point x="510" y="160" type="line" smooth="yes"/>
      <point x="510" y="68" type="line" smooth="yes"/>
      <point x="637" y="68" type="line" smooth="yes"/>
      <point x="637" y="0" type="line" smooth="yes"/>
    </contour>
    <contour>
      <point x="131" y="515" type="line" smooth="yes"/>
      <point x="11" y="515" type="line" smooth="yes"/>
      <point x="11" y="507" type="line" smooth="yes"/>
      <point x="28" y="438" type="line" smooth="yes"/>
      <point x="76" y="393" type="line" smooth="yes"/>
      <point x="150" y="377" type="line" smooth="yes"/>
      <point x="224" y="392" type="line" smooth="yes"/>
      <point x="271" y="432" type="line" smooth="yes"/>
      <point x="288" y="492" type="line" smooth="yes"/>
      <point x="288" y="502" type="line" smooth="yes"/>
      <point x="281" y="541" type="line" smooth="yes"/>
      <point x="261" y="570" type="line" smooth="yes"/>
      <point x="236" y="589" type="line" smooth="yes"/>
      <point x="260" y="607" type="line" smooth="yes"/>
      <point x="277" y="635" type="line" smooth="yes"/>
      <point x="284" y="674" type="line" smooth="yes"/>
      <point x="284" y="684" type="line" smooth="yes"/>
      <point x="273" y="729" type="line" smooth="yes"/>
      <point x="232" y="773" type="line" smooth="yes"/>
      <point x="149" y="793" type="line" smooth="yes"/>
      <point x="65" y="772" type="line" smooth="yes"/>
      <point x="24" y="720" type="line" smooth="yes"/>
      <point x="13" y="659" type="line" smooth="yes"/>
      <point x="13" y="650" type="line" smooth="yes"/>
      <point x="133" y="650" type="line" smooth="yes"/>
      <point x="134" y="671" type="line" smooth="yes"/>
      <point x="139" y="684" type="line" smooth="yes"/>
      <point x="147" y="689" type="line" smooth="yes"/>
      <point x="150" y="689" type="line" smooth="yes"/>
      <point x="158" y="684" type="line" smooth="yes"/>
      <point x="163" y="674" type="line" smooth="yes"/>
      <point x="164" y="664" type="line" smooth="yes"/>
      <point x="164" y="662" type="line" smooth="yes"/>
      <point x="163" y="648" type="line" smooth="yes"/>
      <point x="158" y="640" type="line" smooth="yes"/>
      <point x="149" y="637" type="line" smooth="yes"/>
      <point x="100" y="637" type="line" smooth="yes"/>
      <point x="100" y="541" type="line" smooth="yes"/>
      <point x="150" y="541" type="line" smooth="yes"/>
      <point x="161" y="538" type="line" smooth="yes"/>
      <point x="167" y="529" type="line" smooth="yes"/>
      <point x="169" y="516" type="line" smooth="yes"/>
      <point x="169" y="511" type="line" smooth="yes"/>
      <point x="166" y="494" type="line" smooth="yes"/>
      <point x="160" y="484" type="line" smooth="yes"/>
      <point x="152" y="481" type="line" smooth="yes"/>
      <point x="149" y="481" type="line" smooth="yes"/>
      <point x="141" y="484" type="line" smooth="yes"/>
      <point x="134" y="495" type="line" smooth="yes"/>
    </contour>
    <contour>
      <point x="179" y="0" type="line" smooth="yes"/>
      <point x="755" y="780" type="line" smooth="yes"/>
      <point x="621" y="780" type="line" smooth="yes"/>
      <point x="45" y="0" type="line" smooth="yes"/>
    </contour>
  </outline>
</glyph>
<glyph name="questiondown" format="1">
  <advance width="497"/>
  <unicode hex="00BF"/>
  <outline>
    <contour>
      <point x="169" y="363" type="line" smooth="yes"/>
      <point x="335" y="363" type="line" smooth="yes"/>
      <point x="335" y="530" type="line" smooth="yes"/>
      <point x="169" y="530" type="line" smooth="yes"/>
    </contour>
    <contour>
      <point x="244" y="-74" type="line" smooth="yes"/>
      <point x="205" y="-67" type="line" smooth="yes"/>
      <point x="184" y="-46" type="line" smooth="yes"/>
      <point x="177" y="-13" type="line" smooth="yes"/>
      <point x="214" y="71" type="line" smooth="yes"/>
      <point x="280" y="171" type="line" smooth="yes"/>
      <point x="308" y="302" type="line" smooth="yes"/>
      <point x="197" y="302" type="line" smooth="yes"/>
      <point x="145" y="192" type="line" smooth="yes"/>
      <point x="62" y="111" type="line" smooth="yes"/>
      <point x="18" y="-26" type="line" smooth="yes"/>
      <point x="38" y="-115" type="line" smooth="yes"/>
      <point x="108" y="-185" type="line" smooth="yes"/>
      <point x="244" y="-213" type="line" smooth="yes"/>
      <point x="381" y="-184" type="line" smooth="yes"/>
      <point x="454" y="-97" type="line" smooth="yes"/>
      <point x="475" y="43" type="line" smooth="yes"/>
      <point x="475" y="60" type="line" smooth="yes"/>
      <point x="317" y="60" type="line" smooth="yes"/>
      <point x="310" y="-17" type="line" smooth="yes"/>
      <point x="287" y="-60" type="line" smooth="yes"/>
    </contour>
  </outline>
</glyph>
<glyph name="Atilde" format="1">
  <advance width="641"/>
  <unicode hex="00C3"/>
  <outline>
    <contour>
      <point x="320" y="595" type="line" smooth="yes"/>
      <point x="384" y="308" type="line" smooth="yes"/>
      <point x="256" y="308" type="line" smooth="yes"/>
    </contour>
    <contour>
      <point x="420" y="947" type="line" smooth="yes"/>
      <point x="415" y="927" type="line" smooth="yes"/>
      <point x="404" y="917" type="line" smooth="yes"/>
      <point x="387" y="914" type="line" smooth="yes"/>
      <point x="346" y="926" type="line" smooth="yes"/>
      <point x="297" y="950" type="line" smooth="yes"/>
      <point x="238" y="962" type="line" smooth="yes"/>
      <point x="187" y="951" type="line" smooth="yes"/>
      <point x="150" y="913" type="line" smooth="yes"/>
      <point x="135" y="843" type="line" smooth="yes"/>
      <point x="220" y="843" type="line" smooth="yes"/>
      <point x="225" y="863" type="line" smooth="yes"/>
      <point x="236" y="873" type="line" smooth="yes"/>
      <point x="253" y="876" type="line" smooth="yes"/>
      <point x="294" y="864" type="line" smooth="yes"/>
      <point x="343" y="840" type="line" smooth="yes"/>
      <point x="402" y="828" type="line" smooth="yes"/>
      <point x="453" y="839" type="line" smooth="yes"/>
      <point x="490" y="877" type="line" smooth="yes"/>
      <point x="505" y="947" type="line" smooth="yes"/>
    </contour>
    <contour>
      <point x="209" y="782" type="line" smooth="yes"/>
      <point x="14" y="0" type="line" smooth="yes"/>
      <point x="188" y="0" type="line" smooth="yes"/>
      <point x="225" y="168" type="line" smooth="yes"/>
      <point x="416" y="168" type="line" smooth="yes"/>
      <point x="454" y="0" type="line" smooth="yes"/>
      <point x="627" y="0" type="line" smooth="yes"/>
      <point x="432" y="782" type="line" smooth="yes"/>
    </contour>
  </outline>
</glyph>
<glyph name="Aring" format="1">
  <advance width="641"/>
  <unicode hex="00C5"/>
  <outline>
    <contour>
      <point x="269" y="858" type="line" smooth="yes"/>
      <point x="276" y="883" type="line" smooth="yes"/>
      <point x="294" y="901" type="line" smooth="yes"/>
      <point x="320" y="908" type="line" smooth="yes"/>
      <point x="346" y="901" type="line" smooth="yes"/>
      <point x="364" y="883" type="line" smooth="yes"/>
      <point x="371" y="858" type="line" smooth="yes"/>
      <point x="364" y="832" type="line" smooth="yes"/>
      <point x="346" y="814" type="line" smooth="yes"/>
      <point x="320" y="807" type="line" smooth="yes"/>
      <point x="294" y="814" type="line" smooth="yes"/>
      <point x="276" y="832" type="line" smooth="yes"/>
    </contour>
    <contour>
      <point x="320" y="595" type="line" smooth="yes"/>
      <point x="384" y="308" type="line" smooth="yes"/>
      <point x="256" y="308" type="line" smooth="yes"/>
    </contour>
    <contour>
      <point x="215" y="858" type="line" smooth="yes"/>
      <point x="219" y="829" type="line" smooth="yes"/>
      <point x="230" y="803" type="line" smooth="yes"/>
      <point x="247" y="782" type="line" smooth="yes"/>
      <point x="209" y="782" type="line" smooth="yes"/>
      <point x="14" y="0" type="line" smooth="yes"/>
      <point x="188" y="0" type="line" smooth="yes"/>
      <point x="225" y="168" type="line" smooth="yes"/>
      <point x="416" y="168" type="line" smooth="yes"/>
      <point x="454" y="0" type="line" smooth="yes"/>
      <point x="627" y="0" type="line" smooth="yes"/>
      <point x="432" y="782" type="line" smooth="yes"/>
      <point x="393" y="782" type="line" smooth="yes"/>
      <point x="410" y="803" type="line" smooth="yes"/>
      <point x="421" y="829" type="line" smooth="yes"/>
      <point x="425" y="858" type="line" smooth="yes"/>
      <point x="411" y="911" type="line" smooth="yes"/>
      <point x="373" y="949" type="line" smooth="yes"/>
      <point x="320" y="963" type="line" smooth="yes"/>
      <point x="267" y="949" type="line" smooth="yes"/>
      <point x="229" y="911" type="line" smooth="yes"/>
    </contour>
  </outline>
</glyph>
<glyph name="Ccedilla" format="1">
  <advance width="650"/>
  <unicode hex="00C7"/>
  <outline>
    <contour>
      <point x="235" y="-190" type="line" smooth="yes"/>
      <point x="260" y="-202" type="line" smooth="yes"/>
      <point x="297" y="-211" type="line" smooth="yes"/>
      <point x="342" y="-215" type="line" smooth="yes"/>
      <point x="408" y="-205" type="line" smooth="yes"/>
      <point x="448" y="-175" type="line" smooth="yes"/>
      <point x="462" y="-127" type="line" smooth="yes"/>
      <point x="449" y="-80" type="line" smooth="yes"/>
      <point x="413" y="-52" type="line" smooth="yes"/>
      <point x="362" y="-40" type="line" smooth="yes"/>
      <point x="373" y="-11" type="line" smooth="yes"/>
      <point x="505" y="24" type="line" smooth="yes"/>
      <point x="584" y="111" type="line" smooth="yes"/>
      <point x="611" y="257" type="line" smooth="yes"/>
      <point x="611" y="266" type="line" smooth="yes"/>
      <point x="449" y="266" type="line" smooth="yes"/>
      <point x="439" y="193" type="line" smooth="yes"/>
      <point x="404" y="144" type="line" smooth="yes"/>
      <point x="341" y="127" type="line" smooth="yes"/>
      <point x="332" y="127" type="line" smooth="yes"/>
      <point x="252" y="155" type="line" smooth="yes"/>
      <point x="213" y="238" type="line" smooth="yes"/>
      <point x="203" y="370" type="line" smooth="yes"/>
      <point x="203" y="410" type="line" smooth="yes"/>
      <point x="213" y="542" type="line" smooth="yes"/>
      <point x="252" y="625" type="line" smooth="yes"/>
      <point x="332" y="653" type="line" smooth="yes"/>
      <point x="341" y="653" type="line" smooth="yes"/>
      <point x="407" y="633" type="line" smooth="yes"/>
      <point x="440" y="575" type="line" smooth="yes"/>
      <point x="449" y="484" type="line" smooth="yes"/>
      <point x="611" y="484" type="line" smooth="yes"/>
      <point x="611" y="520" type="line" smooth="yes"/>
      <point x="580" y="677" type="line" smooth="yes"/>
      <point x="487" y="766" type="line" smooth="yes"/>
      <point x="332" y="793" type="line" smooth="yes"/>
      <point x="166" y="754" type="line" smooth="yes"/>
      <point x="70" y="629" type="line" smooth="yes"/>
      <point x="39" y="410" type="line" smooth="yes"/>
      <point x="39" y="370" type="line" smooth="yes"/>
      <point x="66" y="160" type="line" smooth="yes"/>
      <point x="152" y="35" type="line" smooth="yes"/>
      <point x="300" y="-12" type="line" smooth="yes"/>
      <point x="276" y="-72" type="line" smooth="yes"/>
      <point x="291" y="-100" type="line" smooth="yes"/>
      <point x="297" y="-99" type="line" smooth="yes"/>
      <point x="311" y="-96" type="line" smooth="yes"/>
      <point x="329" y="-95" type="line" smooth="yes"/>
      <point x="356" y="-98" type="line" smooth="yes"/>
      <point x="372" y="-105" type="line" smooth="yes"/>
      <point x="377" y="-118" type="line" smooth="yes"/>
      <point x="373" y="-130" type="line" smooth="yes"/>
      <point x="358" y="-138" type="line" smooth="yes"/>
      <point x="330" y="-141" type="line" smooth="yes"/>
      <point x="303" y="-139" type="line" smooth="yes"/>
      <point x="278" y="-133" type="line" smooth="yes"/>
      <point x="258" y="-124" type="line" smooth="yes"/>
    </contour>
  </outline>
</glyph>
<glyph name="Idieresis" format="1">
  <advance width="283"/>
  <unicode hex="00CF"/>
  <outline>
    <contour>
      <point x="121" y="945" type="line" smooth="yes"/>
      <point x="-12" y="945" type="line" smooth="yes"/>
      <point x="-12" y="845" type="line" smooth="yes"/>
      <point x="121" y="845" type="line" smooth="yes"/>
    </contour>
    <contour>
      <point x="296" y="945" type="line" smooth="yes"/>
      <point x="163" y="945" type="line" smooth="yes"/>
      <point x="163" y="845" type="line" smooth="yes"/>
      <point x="296" y="845" type="line" smooth="yes"/>
    </contour>
    <contour>
      <point x="223" y="780" type="line" smooth="yes"/>
      <point x="61" y="780" type="line" smooth="yes"/>
      <point x="61" y="0" type="line" smooth="yes"/>
      <point x="223" y="0" type="line" smooth="yes"/>
    </contour>
  </outline>
</glyph>
<glyph name="Eth" format="1">
  <advance width="723"/>
  <unicode hex="00D0"/>
  <outline>
    <contour>
      <point x="278" y="640" type="line" smooth="yes"/>
      <point x="346" y="640" type="line" smooth="yes"/>
      <point x="451" y="615" type="line" smooth="yes"/>
      <point x="504" y="539" type="line" smooth="yes"/>
      <point x="519" y="410" type="line" smooth="yes"/>
      <point x="519" y="370" type="line" smooth="yes"/>
      <point x="504" y="241" type="line" smooth="yes"/>
      <point x="451" y="165" type="line" smooth="yes"/>
      <point x="346" y="140" type="line" smooth="yes"/>
      <point x="278" y="140" type="line" smooth="yes"/>
      <point x="278" y="339" type="line" smooth="yes"/>
      <point x="443" y="339" type="line" smooth="yes"/>
      <point x="443" y="460" type="line" smooth="yes"/>
      <point x="278" y="460" type="line" smooth="yes"/>
    </contour>
    <contour>
      <point x="12" y="339" type="line" smooth="yes"/>
      <point x="116" y="339" type="line" smooth="yes"/>
      <point x="116" y="0" type="line" smooth="yes"/>
      <point x="355" y="0" type="line" smooth="yes"/>
      <point x="543" y="36" type="line" smooth="yes"/>
      <point x="650" y="154" type="line" smooth="yes"/>
      <point x="684" y="370" type="line" smooth="yes"/>
      <point x="684" y="410" type="line" smooth="yes"/>
      <point x="650" y="626" type="line" smooth="yes"/>
      <point x="543" y="744" type="line" smooth="yes"/>
      <point x="355" y="780" type="line" smooth="yes"/>
      <point x="116" y="780" type="line" smooth="yes"/>
      <point x="116" y="460" type="line" smooth="yes"/>
      <point x="12" y="460" type="line" smooth="yes"/>
    </contour>
  </outline>
</glyph>
<glyph name="Ntilde" format="1">
  <advance width="683"/>
  <unicode hex="00D1"/>
  <outline>
    <contour>
      <point x="441" y="947" type="line" smooth="yes"/>
      <point x="436" y="927" type="line" smooth="yes"/>
      <point x="425" y="917" type="line" smooth="yes"/>
      <point x="408" y="914" type="line" smooth="yes"/>
      <point x="367" y="926" type="line" smooth="yes"/>
      <point x="318" y="950" type="line" smooth="yes"/>
      <point x="259" y="962" type="line" smooth="yes"/>
      <point x="208" y="951" type="line" smooth="yes"/>
      <point x="171" y="913" type="line" smooth="yes"/>
      <point x="156" y="843" type="line" smooth="yes"/>
      <point x="241" y="843" type="line" smooth="yes"/>
      <point x="246" y="863" type="line" smooth="yes"/>
      <point x="257" y="873" type="line" smooth="yes"/>
      <point x="274" y="876" type="line" smooth="yes"/>
      <point x="315" y="864" type="line" smooth="yes"/>
      <point x="364" y="840" type="line" smooth="yes"/>
      <point x="423" y="828" type="line" smooth="yes"/>
      <point x="474" y="839" type="line" smooth="yes"/>
      <point x="511" y="877" type="line" smooth="yes"/>
      <point x="526" y="947" type="line" smooth="yes"/>
    </contour>
    <contour>
      <point x="627" y="780" type="line" smooth="yes"/>
      <point x="473" y="780" type="line" smooth="yes"/>
      <point x="473" y="453" type="line" smooth="yes"/>
      <point x="478" y="296" type="line" smooth="yes"/>
      <point x="227" y="780" type="line" smooth="yes"/>
      <point x="56" y="780" type="line" smooth="yes"/>
      <point x="56" y="0" type="line" smooth="yes"/>
      <point x="209" y="0" type="line" smooth="yes"/>
      <point x="209" y="327" type="line" smooth="yes"/>
      <point x="204" y="484" type="line" smooth="yes"/>
      <point x="456" y="0" type="line" smooth="yes"/>
      <point x="627" y="0" type="line" smooth="yes"/>
    </contour>
  </outline>
</glyph>
<glyph name="Ocircumflex" format="1">
  <advance width="673"/>
  <unicode hex="00D4"/>
  <outline>
    <contour>
      <point x="274" y="840" type="line" smooth="yes"/>
      <point x="336" y="884" type="line" smooth="yes"/>
      <point x="398" y="840" type="line" smooth="yes"/>
      <point x="540" y="840" type="line" smooth="yes"/>
      <point x="416" y="950" type="line" smooth="yes"/>
      <point x="256" y="950" type="line" smooth="yes"/>
      <point x="132" y="840" type="line" smooth="yes"/>
    </contour>
    <contour>
      <point x="332" y="127" type="line" smooth="yes"/>
      <point x="254" y="155" type="line" smooth="yes"/>
      <point x="214" y="238" type="line" smooth="yes"/>
      <point x="203" y="370" type="line" smooth="yes"/>
      <point x="203" y="410" type="line" smooth="yes"/>
      <point x="214" y="542" type="line" smooth="yes"/>
      <point x="254" y="625" type="line" smooth="yes"/>
      <point x="332" y="653" type="line" smooth="yes"/>
      <point x="341" y="653" type="line" smooth="yes"/>
      <point x="419" y="625" type="line" smooth="yes"/>
      <point x="458" y="542" type="line" smooth="yes"/>
      <point x="469" y="410" type="line" smooth="yes"/>
      <point x="469" y="370" type="line" smooth="yes"/>
      <point x="458" y="238" type="line" smooth="yes"/>
      <point x="419" y="155" type="line" smooth="yes"/>
      <point x="341" y="127" type="line" smooth="yes"/>
    </contour>
    <contour>
      <point x="336" y="-13" type="line" smooth="yes"/>
      <point x="503" y="26" type="line" smooth="yes"/>
      <point x="602" y="151" type="line" smooth="yes"/>
      <point x="634" y="370" type="line" smooth="yes"/>
      <point x="634" y="410" type="line" smooth="yes"/>
      <point x="602" y="629" type="line" smooth="yes"/>
      <point x="503" y="754" type="line" smooth="yes"/>
      <point x="336" y="793" type="line" smooth="yes"/>
      <point x="169" y="754" type="line" smooth="yes"/>
      <point x="71" y="629" type="line" smooth="yes"/>
      <point x="39" y="410" type="line" smooth="yes"/>
      <point x="39" y="370" type="line" smooth="yes"/>
      <point x="71" y="151" type="line" smooth="yes"/>
      <point x="169" y="26" type="line" smooth="yes"/>
    </contour>
  </outline>
</glyph>
<glyph name="Otilde" format="1">
  <advance width="673"/>
  <unicode hex="00D5"/>
  <outline>
    <contour>
      <point x="436" y="947" type="line" smooth="yes"/>
      <point x="431" y="927" type="line" smooth="yes"/>
      <point x="420" y="917" type="line" smooth="yes"/>
      <point x="403" y="914" type="line" smooth="yes"/>
      <point x="362" y="926" type="line" smooth="yes"/>
      <point x="313" y="950" type="line" smooth="yes"/>
      <point x="254" y="962" type="line" smooth="yes"/>
      <point x="203" y="951" type="line" smooth="yes"/>
      <point x="166" y="913" type="line" smooth="yes"/>
      <point x="151" y="843" type="line" smooth="yes"/>
      <point x="236" y="843" type="line" smooth="yes"/>
      <point x="241" y="863" type="line" smooth="yes"/>
      <point x="252" y="873" type="line" smooth="yes"/>
      <point x="269" y="876" type="line" smooth="yes"/>
      <point x="310" y="864" type="line" smooth="yes"/>
      <point x="359" y="840" type="line" smooth="yes"/>
      <point x="418" y="828" type="line" smooth="yes"/>
      <point x="469" y="839" type="line" smooth="yes"/>
      <point x="506" y="877" type="line" smooth="yes"/>
      <point x="521" y="947" type="line" smooth="yes"/>
    </contour>
    <contour>
      <point x="332" y="127" type="line" smooth="yes"/>
      <point x="254" y="155" type="line" smooth="yes"/>
      <point x="214" y="238" type="line" smooth="yes"/>
      <point x="203" y="370" type="line" smooth="yes"/>
      <point x="203" y="410" type="line" smooth="yes"/>
      <point x="214" y="542" type="line" smooth="yes"/>
      <point x="254" y="625" type="line" smooth="yes"/>
      <point x="332" y="653" type="line" smooth="yes"/>
      <point x="341" y="653" type="line" smooth="yes"/>
      <point x="419" y="625" type="line" smooth="yes"/>
      <point x="458" y="542" type="line" smooth="yes"/>
      <point x="469" y="410" type="line" smooth="yes"/>
      <point x="469" y="370" type="line" smooth="yes"/>
      <point x="458" y="238" type="line" smooth="yes"/>
      <point x="419" y="155" type="line" smooth="yes"/>
      <point x="341" y="127" type="line" smooth="yes"/>
    </contour>
    <contour>
      <point x="336" y="-13" type="line" smooth="yes"/>
      <point x="503" y="26" type="line" smooth="yes"/>
      <point x="602" y="151" type="line" smooth="yes"/>
      <point x="634" y="370" type="line" smooth="yes"/>
      <point x="634" y="410" type="line" smooth="yes"/>
      <point x="602" y="629" type="line" smooth="yes"/>
      <point x="503" y="754" type="line" smooth="yes"/>
      <point x="336" y="793" type="line" smooth="yes"/>
      <point x="169" y="754" type="line" smooth="yes"/>
      <point x="71" y="629" type="line" smooth="yes"/>
      <point x="39" y="410" type="line" smooth="yes"/>
      <point x="39" y="370" type="line" smooth="yes"/>
      <point x="71" y="151" type="line" smooth="yes"/>
      <point x="169" y="26" type="line" smooth="yes"/>
    </contour>
  </outline>
</glyph>
<glyph name="Odieresis" format="1">
  <advance width="673"/>
  <unicode hex="00D6"/>
  <outline>
    <contour>
      <point x="490" y="945" type="line" smooth="yes"/>
      <point x="357" y="945" type="line" smooth="yes"/>
      <point x="357" y="845" type="line" smooth="yes"/>
      <point x="490" y="845" type="line" smooth="yes"/>
    </contour>
    <contour>
      <point x="315" y="945" type="line" smooth="yes"/>
      <point x="182" y="945" type="line" smooth="yes"/>
      <point x="182" y="845" type="line" smooth="yes"/>
      <point x="315" y="845" type="line" smooth="yes"/>
    </contour>
    <contour>
      <point x="332" y="127" type="line" smooth="yes"/>
      <point x="254" y="155" type="line" smooth="yes"/>
      <point x="214" y="238" type="line" smooth="yes"/>
      <point x="203" y="370" type="line" smooth="yes"/>
      <point x="203" y="410" type="line" smooth="yes"/>
      <point x="214" y="542" type="line" smooth="yes"/>
      <point x="254" y="625" type="line" smooth="yes"/>
      <point x="332" y="653" type="line" smooth="yes"/>
      <point x="341" y="653" type="line" smooth="yes"/>
      <point x="419" y="625" type="line" smooth="yes"/>
      <point x="458" y="542" type="line" smooth="yes"/>
      <point x="469" y="410" type="line" smooth="yes"/>
      <point x="469" y="370" type="line" smooth="yes"/>
      <point x="458" y="238" type="line" smooth="yes"/>
      <point x="419" y="155" type="line" smooth="yes"/>
      <point x="341" y="127" type="line" smooth="yes"/>
    </contour>
    <contour>
      <point x="336" y="-13" type="line" smooth="yes"/>
      <point x="503" y="26" type="line" smooth="yes"/>
      <point x="602" y="151" type="line" smooth="yes"/>
      <point x="634" y="370" type="line" smooth="yes"/>
      <point x="634" y="410" type="line" smooth="yes"/>
      <point x="602" y="629" type="line" smooth="yes"/>
      <point x="503" y="754" type="line" smooth="yes"/>
      <point x="336" y="793" type="line" smooth="yes"/>
      <point x="169" y="754" type="line" smooth="yes"/>
      <point x="71" y="629" type="line" smooth="yes"/>
      <point x="39" y="410" type="line" smooth="yes"/>
      <point x="39" y="370" type="line" smooth="yes"/>
      <point x="71" y="151" type="line" smooth="yes"/>
      <point x="169" y="26" type="line" smooth="yes"/>
    </contour>
  </outline>
</glyph>
<glyph name="Oslash" format="1">
  <advance width="670"/>
  <unicode hex="00D8"/>
  <outline>
    <contour>
      <point x="203" y="370" type="line" smooth="yes"/>
      <point x="203" y="410" type="line" smooth="yes"/>
      <point x="214" y="542" type="line" smooth="yes"/>
      <point x="254" y="625" type="line" smooth="yes"/>
      <point x="332" y="653" type="line" smooth="yes"/>
      <point x="341" y="653" type="line" smooth="yes"/>
      <point x="377" y="648" type="line" smooth="yes"/>
      <point x="406" y="635" type="line" smooth="yes"/>
      <point x="429" y="613" type="line" smooth="yes"/>
      <point x="209" y="268" type="line" smooth="yes"/>
      <point x="206" y="299" type="line" smooth="yes"/>
      <point x="204" y="333" type="line" smooth="yes"/>
    </contour>
    <contour>
      <point x="469" y="410" type="line" smooth="yes"/>
      <point x="469" y="370" type="line" smooth="yes"/>
      <point x="458" y="238" type="line" smooth="yes"/>
      <point x="419" y="155" type="line" smooth="yes"/>
      <point x="341" y="127" type="line" smooth="yes"/>
      <point x="332" y="127" type="line" smooth="yes"/>
      <point x="295" y="132" type="line" smooth="yes"/>
      <point x="266" y="145" type="line" smooth="yes"/>
      <point x="243" y="168" type="line" smooth="yes"/>
      <point x="463" y="513" type="line" smooth="yes"/>
      <point x="466" y="482" type="line" smooth="yes"/>
      <point x="468" y="447" type="line" smooth="yes"/>
    </contour>
    <contour>
      <point x="39" y="410" type="line" smooth="yes"/>
      <point x="39" y="370" type="line" smooth="yes"/>
      <point x="46" y="258" type="line" smooth="yes"/>
      <point x="66" y="167" type="line" smooth="yes"/>
      <point x="99" y="95" type="line" smooth="yes"/>
      <point x="38" y="0" type="line" smooth="yes"/>
      <point x="136" y="0" type="line" smooth="yes"/>
      <point x="157" y="34" type="line" smooth="yes"/>
      <point x="207" y="8" type="line" smooth="yes"/>
      <point x="267" y="-8" type="line" smooth="yes"/>
      <point x="336" y="-13" type="line" smooth="yes"/>
      <point x="503" y="26" type="line" smooth="yes"/>
      <point x="602" y="151" type="line" smooth="yes"/>
      <point x="634" y="370" type="line" smooth="yes"/>
      <point x="634" y="410" type="line" smooth="yes"/>
      <point x="627" y="522" type="line" smooth="yes"/>
      <point x="607" y="614" type="line" smooth="yes"/>
      <point x="573" y="686" type="line" smooth="yes"/>
      <point x="633" y="780" type="line" smooth="yes"/>
      <point x="535" y="780" type="line" smooth="yes"/>
      <point x="514" y="747" type="line" smooth="yes"/>
      <point x="464" y="773" type="line" smooth="yes"/>
      <point x="404" y="788" type="line" smooth="yes"/>
      <point x="336" y="793" type="line" smooth="yes"/>
      <point x="169" y="754" type="line" smooth="yes"/>
      <point x="71" y="629" type="line" smooth="yes"/>
    </contour>
  </outline>
</glyph>
<glyph name="Ugrave" format="1">
  <advance width="663"/>
  <unicode hex="00D9"/>
  <outline>
    <contour>
      <point x="189" y="950" type="line" smooth="yes"/>
      <point x="253" y="840" type="line" smooth="yes"/>
      <point x="409" y="840" type="line" smooth="yes"/>
      <point x="354" y="950" type="line" smooth="yes"/>
    </contour>
    <contour>
      <point x="331" y="-13" type="line" smooth="yes"/>
      <point x="498" y="17" type="line" smooth="yes"/>
      <point x="586" y="104" type="line" smooth="yes"/>
      <point x="612" y="247" type="line" smooth="yes"/>
      <point x="612" y="780" type="line" smooth="yes"/>
      <point x="450" y="780" type="line" smooth="yes"/>
      <point x="450" y="252" type="line" smooth="yes"/>
      <point x="440" y="183" type="line" smooth="yes"/>
      <point x="403" y="141" type="line" smooth="yes"/>
      <point x="331" y="127" type="line" smooth="yes"/>
      <point x="260" y="141" type="line" smooth="yes"/>
      <point x="223" y="183" type="line" smooth="yes"/>
      <point x="213" y="252" type="line" smooth="yes"/>
      <point x="213" y="780" type="line" smooth="yes"/>
      <point x="51" y="780" type="line" smooth="yes"/>
      <point x="51" y="247" type="line" smooth="yes"/>
      <point x="76" y="104" type="line" smooth="yes"/>
      <point x="164" y="17" type="line" smooth="yes"/>
    </contour>
  </outline>
</glyph>
<glyph name="Thorn" format="1">
  <advance width="609"/>
  <unicode hex="00DE"/>
  <outline>
    <contour>
      <point x="218" y="280" type="line" smooth="yes"/>
      <point x="218" y="500" type="line" smooth="yes"/>
      <point x="319" y="500" type="line" smooth="yes"/>
      <point x="364" y="492" type="line" smooth="yes"/>
      <point x="403" y="461" type="line" smooth="yes"/>
      <point x="419" y="395" type="line" smooth="yes"/>
      <point x="419" y="385" type="line" smooth="yes"/>
      <point x="403" y="319" type="line" smooth="yes"/>
      <point x="364" y="288" type="line" smooth="yes"/>
      <point x="319" y="280" type="line" smooth="yes"/>
    </contour>
    <contour>
      <point x="218" y="780" type="line" smooth="yes"/>
      <point x="56" y="780" type="line" smooth="yes"/>
      <point x="56" y="0" type="line" smooth="yes"/>
      <point x="218" y="0" type="line" smooth="yes"/>
      <point x="218" y="140" type="line" smooth="yes"/>
      <point x="312" y="140" type="line" smooth="yes"/>
      <point x="439" y="156" type="line" smooth="yes"/>
      <point x="541" y="226" type="line" smooth="yes"/>
      <point x="583" y="380" type="line" smooth="yes"/>
      <point x="583" y="400" type="line" smooth="yes"/>
      <point x="541" y="554" type="line" smooth="yes"/>
      <point x="439" y="624" type="line" smooth="yes"/>
      <point x="312" y="640" type="line" smooth="yes"/>
      <point x="218" y="640" type="line" smooth="yes"/>
    </contour>
  </outline>
</glyph>
<glyph name="germandbls" format="1">
  <advance width="632"/>
  <unicode hex="00DF"/>
  <outline>
    <contour>
      <point x="285" y="334" type="line" smooth="yes"/>
      <point x="378" y="270" type="line" smooth="yes"/>
      <point x="423" y="232" type="line" smooth="yes"/>
      <point x="447" y="195" type="line" smooth="yes"/>
      <point x="454" y="162" type="line" smooth="yes"/>
      <point x="451" y="135" type="line" smooth="yes"/>
      <point x="440" y="115" type="line" smooth="yes"/>
      <point x="417" y="107" type="line" smooth="yes"/>
      <point x="395" y="114" type="line" smooth="yes"/>
      <point x="382" y="134" type="line" smooth="yes"/>
      <point x="378" y="168" type="line" smooth="yes"/>
      <point x="244" y="168" type="line" smooth="yes"/>
      <point x="244" y="160" type="line" smooth="yes"/>
      <point x="257" y="71" type="line" smooth="yes"/>
      <point x="310" y="10" type="line" smooth="yes"/>
      <point x="420" y="-13" type="line" smooth="yes"/>
      <point x="531" y="12" type="line" smooth="yes"/>
      <point x="593" y="77" type="line" smooth="yes"/>
      <point x="612" y="164" type="line" smooth="yes"/>
      <point x="612" y="173" type="line" smooth="yes"/>
      <point x="596" y="250" type="line" smooth="yes"/>
      <point x="548" y="319" type="line" smooth="yes"/>
      <point x="471" y="382" type="line" smooth="yes"/>
      <point x="447" y="398" type="line" smooth="yes"/>
      <point x="501" y="448" type="line" smooth="yes"/>
      <point x="536" y="508" type="line" smooth="yes"/>
      <point x="548" y="584" type="line" smooth="yes"/>
      <point x="548" y="594" type="line" smooth="yes"/>
      <point x="521" y="702" type="line" smooth="yes"/>
      <point x="440" y="782" type="line" smooth="yes"/>
      <point x="299" y="813" type="line" smooth="yes"/>
      <point x="153" y="783" type="line" smooth="yes"/>
      <point x="73" y="705" type="line" smooth="yes"/>
      <point x="49" y="594" type="line" smooth="yes"/>
      <point x="49" y="0" type="line" smooth="yes"/>
      <point x="207" y="0" type="line" smooth="yes"/>
      <point x="207" y="585" type="line" smooth="yes"/>
      <point x="216" y="629" type="line" smooth="yes"/>
      <point x="246" y="663" type="line" smooth="yes"/>
      <point x="299" y="677" type="line" smooth="yes"/>
      <point x="351" y="664" type="line" smooth="yes"/>
      <point x="381" y="629" type="line" smooth="yes"/>
      <point x="390" y="577" type="line" smooth="yes"/>
      <point x="377" y="520" type="line" smooth="yes"/>
      <point x="340" y="473" type="line" smooth="yes"/>
      <point x="285" y="434" type="line" smooth="yes"/>
    </contour>
  </outline>
</glyph>
<glyph name="agrave" format="1">
  <advance width="549"/>
  <unicode hex="00E0"/>
  <outline>
    <contour>
      <point x="250" y="115" type="line" smooth="yes"/>
      <point x="213" y="123" type="line" smooth="yes"/>
      <point x="193" y="143" type="line" smooth="yes"/>
      <point x="187" y="169" type="line" smooth="yes"/>
      <point x="187" y="175" type="line" smooth="yes"/>
      <point x="193" y="204" type="line" smooth="yes"/>
      <point x="213" y="225" type="line" smooth="yes"/>
      <point x="252" y="238" type="line" smooth="yes"/>
      <point x="342" y="252" type="line" smooth="yes"/>
      <point x="342" y="155" type="line" smooth="yes"/>
      <point x="321" y="137" type="line" smooth="yes"/>
      <point x="290" y="121" type="line" smooth="yes"/>
    </contour>
    <contour>
      <point x="89" y="780" type="line" smooth="yes"/>
      <point x="196" y="596" type="line" smooth="yes"/>
      <point x="352" y="596" type="line" smooth="yes"/>
      <point x="261" y="780" type="line" smooth="yes"/>
    </contour>
    <contour>
      <point x="368" y="0" type="line" smooth="yes"/>
      <point x="510" y="0" type="line" smooth="yes"/>
      <point x="500" y="150" type="line" smooth="yes"/>
      <point x="500" y="341" type="line" smooth="yes"/>
      <point x="480" y="450" type="line" smooth="yes"/>
      <point x="410" y="519" type="line" smooth="yes"/>
      <point x="275" y="543" type="line" smooth="yes"/>
      <point x="139" y="517" type="line" smooth="yes"/>
      <point x="69" y="451" type="line" smooth="yes"/>
      <point x="50" y="364" type="line" smooth="yes"/>
      <point x="50" y="355" type="line" smooth="yes"/>
      <point x="199" y="355" type="line" smooth="yes"/>
      <point x="205" y="388" type="line" smooth="yes"/>
      <point x="226" y="413" type="line" smooth="yes"/>
      <point x="270" y="423" type="line" smooth="yes"/>
      <point x="312" y="414" type="line" smooth="yes"/>
      <point x="335" y="388" type="line" smooth="yes"/>
      <point x="342" y="345" type="line" smooth="yes"/>
      <point x="220" y="326" type="line" smooth="yes"/>
      <point x="121" y="300" type="line" smooth="yes"/>
      <point x="55" y="247" type="line" smooth="yes"/>
      <point x="30" y="156" type="line" smooth="yes"/>
      <point x="30" y="146" type="line" smooth="yes"/>
      <point x="46" y="67" type="line" smooth="yes"/>
      <point x="97" y="9" type="line" smooth="yes"/>
      <point x="192" y="-13" type="line" smooth="yes"/>
      <point x="260" y="-4" type="line" smooth="yes"/>
      <point x="315" y="20" type="line" smooth="yes"/>
      <point x="358" y="55" type="line" smooth="yes"/>
    </contour>
  </outline>
</glyph>
<glyph name="atilde" format="1">
  <advance width="549"/>
  <unicode hex="00E3"/>
  <outline>
    <contour>
      <point x="250" y="115" type="line" smooth="yes"/>
      <point x="213" y="123" type="line" smooth="yes"/>
      <point x="193" y="143" type="line" smooth="yes"/>
      <point x="187" y="169" type="line" smooth="yes"/>
      <point x="187" y="175" type="line" smooth="yes"/>
      <point x="193" y="204" type="line" smooth="yes"/>
      <point x="213" y="225" type="line" smooth="yes"/>
      <point x="252" y="238" type="line" smooth="yes"/>
      <point x="342" y="252" type="line" smooth="yes"/>
      <point x="342" y="155" type="line" smooth="yes"/>
      <point x="321" y="137" type="line" smooth="yes"/>
      <point x="290" y="121" type="line" smooth="yes"/>
    </contour>
    <contour>
      <point x="370" y="772" type="line" smooth="yes"/>
      <point x="366" y="750" type="line" smooth="yes"/>
      <point x="355" y="739" type="line" smooth="yes"/>
      <point x="339" y="735" type="line" smooth="yes"/>
      <point x="295" y="748" type="line" smooth="yes"/>
      <point x="244" y="774" type="line" smooth="yes"/>
      <point x="184" y="787" type="line" smooth="yes"/>
      <point x="128" y="771" type="line" smooth="yes"/>
      <point x="88" y="719" type="line" smooth="yes"/>
      <point x="73" y="628" type="line" smooth="yes"/>
      <point x="178" y="628" type="line" smooth="yes"/>
      <point x="182" y="650" type="line" smooth="yes"/>
      <point x="193" y="661" type="line" smooth="yes"/>
      <point x="209" y="665" type="line" smooth="yes"/>
      <point x="253" y="652" type="line" smooth="yes"/>
      <point x="304" y="626" type="line" smooth="yes"/>
      <point x="364" y="613" type="line" smooth="yes"/>
      <point x="420" y="629" type="line" smooth="yes"/>
      <point x="460" y="681" type="line" smooth="yes"/>
      <point x="475" y="772" type="line" smooth="yes"/>
    </contour>
    <contour>
      <point x="368" y="0" type="line" smooth="yes"/>
      <point x="510" y="0" type="line" smooth="yes"/>
      <point x="500" y="150" type="line" smooth="yes"/>
      <point x="500" y="341" type="line" smooth="yes"/>
      <point x="480" y="450" type="line" smooth="yes"/>
      <point x="410" y="519" type="line" smooth="yes"/>
      <point x="275" y="543" type="line" smooth="yes"/>
      <point x="139" y="517" type="line" smooth="yes"/>
      <point x="69" y="451" type="line" smooth="yes"/>
      <point x="50" y="364" type="line" smooth="yes"/>
      <point x="50" y="355" type="line" smooth="yes"/>
      <point x="199" y="355" type="line" smooth="yes"/>
      <point x="205" y="388" type="line" smooth="yes"/>
      <point x="226" y="413" type="line" smooth="yes"/>
      <point x="270" y="423" type="line" smooth="yes"/>
      <point x="312" y="414" type="line" smooth="yes"/>
      <point x="335" y="388" type="line" smooth="yes"/>
      <point x="342" y="345" type="line" smooth="yes"/>
      <point x="220" y="326" type="line" smooth="yes"/>
      <point x="121" y="300" type="line" smooth="yes"/>
      <point x="55" y="247" type="line" smooth="yes"/>
      <point x="30" y="156" type="line" smooth="yes"/>
      <point x="30" y="146" type="line" smooth="yes"/>
      <point x="46" y="67" type="line" smooth="yes"/>
      <point x="97" y="9" type="line" smooth="yes"/>
      <point x="192" y="-13" type="line" smooth="yes"/>
      <point x="260" y="-4" type="line" smooth="yes"/>
      <point x="315" y="20" type="line" smooth="yes"/>
      <point x="358" y="55" type="line" smooth="yes"/>
    </contour>
  </outline>
</glyph>
<glyph name="ae" format="1">
  <advance width="859"/>
  <unicode hex="00E6"/>
  <outline>
    <contour>
      <point x="590" y="423" type="line" smooth="yes"/>
      <point x="637" y="412" type="line" smooth="yes"/>
      <point x="666" y="379" type="line" smooth="yes"/>
      <point x="679" y="322" type="line" smooth="yes"/>
      <point x="501" y="322" type="line" smooth="yes"/>
      <point x="514" y="379" type="line" smooth="yes"/>
      <point x="543" y="412" type="line" smooth="yes"/>
    </contour>
    <contour>
      <point x="351" y="163" type="line" smooth="yes"/>
      <point x="332" y="142" type="line" smooth="yes"/>
      <point x="298" y="120" type="line" smooth="yes"/>
      <point x="250" y="111" type="line" smooth="yes"/>
      <point x="213" y="119" type="line" smooth="yes"/>
      <point x="193" y="139" type="line" smooth="yes"/>
      <point x="187" y="164" type="line" smooth="yes"/>
      <point x="187" y="171" type="line" smooth="yes"/>
      <point x="193" y="200" type="line" smooth="yes"/>
      <point x="214" y="221" type="line" smooth="yes"/>
      <point x="253" y="234" type="line" smooth="yes"/>
      <point x="342" y="248" type="line" smooth="yes"/>
      <point x="343" y="219" type="line" smooth="yes"/>
      <point x="347" y="191" type="line" smooth="yes"/>
      <point x="352" y="164" type="line" smooth="yes"/>
    </contour>
    <contour>
      <point x="838" y="208" type="line" smooth="yes"/>
      <point x="838" y="279" type="line" smooth="yes"/>
      <point x="812" y="415" type="line" smooth="yes"/>
      <point x="731" y="509" type="line" smooth="yes"/>
      <point x="594" y="543" type="line" smooth="yes"/>
      <point x="530" y="536" type="line" smooth="yes"/>
      <point x="478" y="516" type="line" smooth="yes"/>
      <point x="438" y="484" type="line" smooth="yes"/>
      <point x="402" y="516" type="line" smooth="yes"/>
      <point x="348" y="536" type="line" smooth="yes"/>
      <point x="275" y="543" type="line" smooth="yes"/>
      <point x="139" y="517" type="line" smooth="yes"/>
      <point x="69" y="451" type="line" smooth="yes"/>
      <point x="50" y="364" type="line" smooth="yes"/>
      <point x="50" y="355" type="line" smooth="yes"/>
      <point x="199" y="355" type="line" smooth="yes"/>
      <point x="205" y="388" type="line" smooth="yes"/>
      <point x="226" y="413" type="line" smooth="yes"/>
      <point x="270" y="423" type="line" smooth="yes"/>
      <point x="312" y="414" type="line" smooth="yes"/>
      <point x="335" y="388" type="line" smooth="yes"/>
      <point x="342" y="345" type="line" smooth="yes"/>
      <point x="221" y="326" type="line" smooth="yes"/>
      <point x="122" y="300" type="line" smooth="yes"/>
      <point x="55" y="247" type="line" smooth="yes"/>
      <point x="30" y="156" type="line" smooth="yes"/>
      <point x="30" y="146" type="line" smooth="yes"/>
      <point x="47" y="67" type="line" smooth="yes"/>
      <point x="102" y="9" type="line" smooth="yes"/>
      <point x="204" y="-13" type="line" smooth="yes"/>
      <point x="280" y="-4" type="line" smooth="yes"/>
      <point x="348" y="22" type="line" smooth="yes"/>
      <point x="405" y="61" type="line" smooth="yes"/>
      <point x="454" y="21" type="line" smooth="yes"/>
      <point x="519" y="-4" type="line" smooth="yes"/>
      <point x="599" y="-13" type="line" smooth="yes"/>
      <point x="729" y="11" type="line" smooth="yes"/>
      <point x="810" y="75" type="line" smooth="yes"/>
      <point x="838" y="166" type="line" smooth="yes"/>
      <point x="838" y="170" type="line" smooth="yes"/>
      <point x="689" y="170" type="line" smooth="yes"/>
      <point x="678" y="139" type="line" smooth="yes"/>
      <point x="648" y="116" type="line" smooth="yes"/>
      <point x="600" y="107" type="line" smooth="yes"/>
      <point x="549" y="117" type="line" smooth="yes"/>
      <point x="515" y="149" type="line" smooth="yes"/>
      <point x="500" y="208" type="line" smooth="yes"/>
    </contour>
  </outline>
</glyph>
<glyph name="ccedilla" format="1">
  <advance width="527"/>
  <unicode hex="00E7"/>
  <outline>
    <contour>
      <point x="165" y="-190" type="line" smooth="yes"/>
      <point x="190" y="-202" type="line" smooth="yes"/>
      <point x="227" y="-211" type="line" smooth="yes"/>
      <point x="272" y="-215" type="line" smooth="yes"/>
      <point x="338" y="-205" type="line" smooth="yes"/>
      <point x="378" y="-175" type="line" smooth="yes"/>
      <point x="392" y="-127" type="line" smooth="yes"/>
      <point x="379" y="-80" type="line" smooth="yes"/>
      <point x="343" y="-52" type="line" smooth="yes"/>
      <point x="292" y="-40" type="line" smooth="yes"/>
      <point x="302" y="-11" type="line" smooth="yes"/>
      <point x="411" y="19" type="line" smooth="yes"/>
      <point x="476" y="83" type="line" smooth="yes"/>
      <point x="498" y="174" type="line" smooth="yes"/>
      <point x="498" y="196" type="line" smooth="yes"/>
      <point x="349" y="196" type="line" smooth="yes"/>
      <point x="341" y="158" type="line" smooth="yes"/>
      <point x="315" y="133" type="line" smooth="yes"/>
      <point x="273" y="123" type="line" smooth="yes"/>
      <point x="224" y="138" type="line" smooth="yes"/>
      <point x="196" y="180" type="line" smooth="yes"/>
      <point x="188" y="247" type="line" smooth="yes"/>
      <point x="188" y="283" type="line" smooth="yes"/>
      <point x="196" y="350" type="line" smooth="yes"/>
      <point x="224" y="392" type="line" smooth="yes"/>
      <point x="273" y="407" type="line" smooth="yes"/>
      <point x="315" y="397" type="line" smooth="yes"/>
      <point x="340" y="370" type="line" smooth="yes"/>
      <point x="349" y="324" type="line" smooth="yes"/>
      <point x="498" y="324" type="line" smooth="yes"/>
      <point x="498" y="347" type="line" smooth="yes"/>
      <point x="473" y="450" type="line" smooth="yes"/>
      <point x="397" y="518" type="line" smooth="yes"/>
      <point x="270" y="543" type="line" smooth="yes"/>
      <point x="134" y="510" type="line" smooth="yes"/>
      <point x="55" y="418" type="line" smooth="yes"/>
      <point x="30" y="283" type="line" smooth="yes"/>
      <point x="30" y="247" type="line" smooth="yes"/>
      <point x="51" y="121" type="line" smooth="yes"/>
      <point x="116" y="32" type="line" smooth="yes"/>
      <point x="230" y="-10" type="line" smooth="yes"/>
      <point x="206" y="-72" type="line" smooth="yes"/>
      <point x="221" y="-100" type="line" smooth="yes"/>
      <point x="227" y="-99" type="line" smooth="yes"/>
      <point x="241" y="-96" type="line" smooth="yes"/>
      <point x="259" y="-95" type="line" smooth="yes"/>
      <point x="286" y="-98" type="line" smooth="yes"/>
      <point x="302" y="-105" type="line" smooth="yes"/>
      <point x="307" y="-118" type="line" smooth="yes"/>
      <point x="303" y="-130" type="line" smooth="yes"/>
      <point x="288" y="-138" type="line" smooth="yes"/>
      <point x="260" y="-141" type="line" smooth="yes"/>
      <point x="233" y="-139" type="line" smooth="yes"/>
      <point x="208" y="-133" type="line" smooth="yes"/>
      <point x="188" y="-124" type="line" smooth="yes"/>
    </contour>
  </outline>
</glyph>
<glyph name="egrave" format="1">
  <advance width="556"/>
  <unicode hex="00E8"/>
  <outline>
    <contour>
      <point x="278" y="423" type="line" smooth="yes"/>
      <point x="325" y="412" type="line" smooth="yes"/>
      <point x="354" y="379" type="line" smooth="yes"/>
      <point x="367" y="322" type="line" smooth="yes"/>
      <point x="189" y="322" type="line" smooth="yes"/>
      <point x="202" y="379" type="line" smooth="yes"/>
      <point x="231" y="412" type="line" smooth="yes"/>
    </contour>
    <contour>
      <point x="96" y="780" type="line" smooth="yes"/>
      <point x="203" y="596" type="line" smooth="yes"/>
      <point x="359" y="596" type="line" smooth="yes"/>
      <point x="268" y="780" type="line" smooth="yes"/>
    </contour>
    <contour>
      <point x="526" y="208" type="line" smooth="yes"/>
      <point x="526" y="279" type="line" smooth="yes"/>
      <point x="500" y="415" type="line" smooth="yes"/>
      <point x="419" y="509" type="line" smooth="yes"/>
      <point x="281" y="543" type="line" smooth="yes"/>
      <point x="142" y="509" type="line" smooth="yes"/>
      <point x="58" y="415" type="line" smooth="yes"/>
      <point x="30" y="279" type="line" smooth="yes"/>
      <point x="30" y="251" type="line" smooth="yes"/>
      <point x="58" y="115" type="line" smooth="yes"/>
      <point x="142" y="21" type="line" smooth="yes"/>
      <point x="287" y="-13" type="line" smooth="yes"/>
      <point x="417" y="11" type="line" smooth="yes"/>
      <point x="498" y="75" type="line" smooth="yes"/>
      <point x="526" y="166" type="line" smooth="yes"/>
      <point x="526" y="170" type="line" smooth="yes"/>
      <point x="377" y="170" type="line" smooth="yes"/>
      <point x="366" y="139" type="line" smooth="yes"/>
      <point x="336" y="116" type="line" smooth="yes"/>
      <point x="288" y="107" type="line" smooth="yes"/>
      <point x="237" y="117" type="line" smooth="yes"/>
      <point x="203" y="149" type="line" smooth="yes"/>
      <point x="188" y="208" type="line" smooth="yes"/>
    </contour>
  </outline>
</glyph>
<glyph name="icircumflex" format="1">
  <advance width="265"/>
  <unicode hex="00EE"/>
  <outline>
    <contour>
      <point x="61" y="596" type="line" smooth="yes"/>
      <point x="133" y="678" type="line" smooth="yes"/>
      <point x="205" y="596" type="line" smooth="yes"/>
      <point x="343" y="596" type="line" smooth="yes"/>
      <point x="209" y="780" type="line" smooth="yes"/>
      <point x="57" y="780" type="line" smooth="yes"/>
      <point x="-77" y="596" type="line" smooth="yes"/>
    </contour>
    <contour>
      <point x="54" y="0" type="line" smooth="yes"/>
      <point x="211" y="0" type="line" smooth="yes"/>
      <point x="211" y="530" type="line" smooth="yes"/>
      <point x="54" y="530" type="line" smooth="yes"/>
    </contour>
  </outline>
</glyph>
<glyph name="eth" format="1">
  <advance width="556"/>
  <unicode hex="00F0"/>
  <outline>
    <contour>
      <point x="278" y="122" type="line" smooth="yes"/>
      <point x="226" y="137" type="line" smooth="yes"/>
      <point x="197" y="180" type="line" smooth="yes"/>
      <point x="187" y="247" type="line" smooth="yes"/>
      <point x="187" y="283" type="line" smooth="yes"/>
      <point x="197" y="350" type="line" smooth="yes"/>
      <point x="226" y="393" type="line" smooth="yes"/>
      <point x="278" y="408" type="line" smooth="yes"/>
      <point x="330" y="393" type="line" smooth="yes"/>
      <point x="359" y="350" type="line" smooth="yes"/>
      <point x="369" y="283" type="line" smooth="yes"/>
      <point x="369" y="247" type="line" smooth="yes"/>
      <point x="359" y="180" type="line" smooth="yes"/>
      <point x="330" y="137" type="line" smooth="yes"/>
    </contour>
    <contour>
      <point x="31" y="673" type="line" smooth="yes"/>
      <point x="70" y="668" type="line" smooth="yes"/>
      <point x="107" y="662" type="line" smooth="yes"/>
      <point x="143" y="653" type="line" smooth="yes"/>
      <point x="59" y="607" type="line" smooth="yes"/>
      <point x="59" y="518" type="line" smooth="yes"/>
      <point x="235" y="616" type="line" smooth="yes"/>
      <point x="258" y="601" type="line" smooth="yes"/>
      <point x="279" y="584" type="line" smooth="yes"/>
      <point x="297" y="566" type="line" smooth="yes"/>
      <point x="306" y="556" type="line" smooth="yes"/>
      <point x="314" y="545" type="line" smooth="yes"/>
      <point x="322" y="533" type="line" smooth="yes"/>
      <point x="300" y="539" type="line" smooth="yes"/>
      <point x="278" y="542" type="line" smooth="yes"/>
      <point x="254" y="543" type="line" smooth="yes"/>
      <point x="131" y="510" type="line" smooth="yes"/>
      <point x="56" y="418" type="line" smooth="yes"/>
      <point x="31" y="283" type="line" smooth="yes"/>
      <point x="31" y="247" type="line" smooth="yes"/>
      <point x="57" y="112" type="line" smooth="yes"/>
      <point x="138" y="20" type="line" smooth="yes"/>
      <point x="278" y="-13" type="line" smooth="yes"/>
      <point x="418" y="20" type="line" smooth="yes"/>
      <point x="500" y="112" type="line" smooth="yes"/>
      <point x="526" y="247" type="line" smooth="yes"/>
      <point x="526" y="283" type="line" smooth="yes"/>
      <point x="517" y="409" type="line" smooth="yes"/>
      <point x="485" y="537" type="line" smooth="yes"/>
      <point x="420" y="655" type="line" smooth="yes"/>
      <point x="408" y="670" type="line" smooth="yes"/>
      <point x="395" y="684" type="line" smooth="yes"/>
      <point x="381" y="697" type="line" smooth="yes"/>
      <point x="430" y="724" type="line" smooth="yes"/>
      <point x="430" y="813" type="line" smooth="yes"/>
      <point x="310" y="746" type="line" smooth="yes"/>
      <point x="225" y="781" type="line" smooth="yes"/>
      <point x="131" y="802" type="line" smooth="yes"/>
      <point x="31" y="813" type="line" smooth="yes"/>
    </contour>
  </outline>
</glyph>
<glyph name="ntilde" format="1">
  <advance width="580"/>
  <unicode hex="00F1"/>
  <outline>
    <contour>
      <point x="389" y="772" type="line" smooth="yes"/>
      <point x="385" y="750" type="line" smooth="yes"/>
      <point x="374" y="739" type="line" smooth="yes"/>
      <point x="358" y="735" type="line" smooth="yes"/>
      <point x="314" y="748" type="line" smooth="yes"/>
      <point x="263" y="774" type="line" smooth="yes"/>
      <point x="203" y="787" type="line" smooth="yes"/>
      <point x="147" y="771" type="line" smooth="yes"/>
      <point x="107" y="719" type="line" smooth="yes"/>
      <point x="92" y="628" type="line" smooth="yes"/>
      <point x="197" y="628" type="line" smooth="yes"/>
      <point x="201" y="650" type="line" smooth="yes"/>
      <point x="212" y="661" type="line" smooth="yes"/>
      <point x="228" y="665" type="line" smooth="yes"/>
      <point x="272" y="652" type="line" smooth="yes"/>
      <point x="323" y="626" type="line" smooth="yes"/>
      <point x="383" y="613" type="line" smooth="yes"/>
      <point x="439" y="629" type="line" smooth="yes"/>
      <point x="479" y="681" type="line" smooth="yes"/>
      <point x="494" y="772" type="line" smooth="yes"/>
    </contour>
    <contour>
      <point x="532" y="0" type="line" smooth="yes"/>
      <point x="532" y="359" type="line" smooth="yes"/>
      <point x="516" y="449" type="line" smooth="yes"/>
      <point x="464" y="517" type="line" smooth="yes"/>
      <point x="368" y="543" type="line" smooth="yes"/>
      <point x="295" y="532" type="line" smooth="yes"/>
      <point x="239" y="504" type="line" smooth="yes"/>
      <point x="198" y="462" type="line" smooth="yes"/>
      <point x="186" y="530" type="line" smooth="yes"/>
      <point x="45" y="530" type="line" smooth="yes"/>
      <point x="54" y="380" type="line" smooth="yes"/>
      <point x="54" y="0" type="line" smooth="yes"/>
      <point x="212" y="0" type="line" smooth="yes"/>
      <point x="212" y="357" type="line" smooth="yes"/>
      <point x="230" y="378" type="line" smooth="yes"/>
      <point x="261" y="398" type="line" smooth="yes"/>
      <point x="305" y="407" type="line" smooth="yes"/>
      <point x="347" y="396" type="line" smooth="yes"/>
      <point x="369" y="369" type="line" smooth="yes"/>
      <point x="375" y="333" type="line" smooth="yes"/>
      <point x="375" y="0" type="line" smooth="yes"/>
    </contour>
  </outline>
</glyph>
<glyph name="otilde" format="1">
  <advance width="556"/>
  <unicode hex="00F5"/>
  <outline>
    <contour>
      <point x="278" y="123" type="line" smooth="yes"/>
      <point x="227" y="138" type="line" smooth="yes"/>
      <point x="198" y="180" type="line" smooth="yes"/>
      <point x="188" y="247" type="line" smooth="yes"/>
      <point x="188" y="283" type="line" smooth="yes"/>
      <point x="198" y="350" type="line" smooth="yes"/>
      <point x="227" y="392" type="line" smooth="yes"/>
      <point x="278" y="407" type="line" smooth="yes"/>
      <point x="329" y="392" type="line" smooth="yes"/>
      <point x="359" y="350" type="line" smooth="yes"/>
      <point x="368" y="283" type="line" smooth="yes"/>
      <point x="368" y="247" type="line" smooth="yes"/>
      <point x="359" y="180" type="line" smooth="yes"/>
      <point x="329" y="138" type="line" smooth="yes"/>
    </contour>
    <contour>
      <point x="374" y="772" type="line" smooth="yes"/>
      <point x="370" y="750" type="line" smooth="yes"/>
      <point x="359" y="739" type="line" smooth="yes"/>
      <point x="343" y="735" type="line" smooth="yes"/>
      <point x="299" y="748" type="line" smooth="yes"/>
      <point x="248" y="774" type="line" smooth="yes"/>
      <point x="188" y="787" type="line" smooth="yes"/>
      <point x="132" y="771" type="line" smooth="yes"/>
      <point x="92" y="719" type="line" smooth="yes"/>
      <point x="77" y="628" type="line" smooth="yes"/>
      <point x="182" y="628" type="line" smooth="yes"/>
      <point x="186" y="650" type="line" smooth="yes"/>
      <point x="197" y="661" type="line" smooth="yes"/>
      <point x="213" y="665" type="line" smooth="yes"/>
      <point x="257" y="652" type="line" smooth="yes"/>
      <point x="308" y="626" type="line" smooth="yes"/>
      <point x="368" y="613" type="line" smooth="yes"/>
      <point x="424" y="629" type="line" smooth="yes"/>
      <point x="464" y="681" type="line" smooth="yes"/>
      <point x="479" y="772" type="line" smooth="yes"/>
    </contour>
    <contour>
      <point x="278" y="-13" type="line" smooth="yes"/>
      <point x="418" y="20" type="line" smooth="yes"/>
      <point x="500" y="112" type="line" smooth="yes"/>
      <point x="526" y="247" type="line" smooth="yes"/>
      <point x="526" y="283" type="line" smooth="yes"/>
      <point x="500" y="418" type="line" smooth="yes"/>
      <point x="418" y="510" type="line" smooth="yes"/>
      <point x="278" y="543" type="line" smooth="yes"/>
      <point x="138" y="510" type="line" smooth="yes"/>
      <point x="57" y="418" type="line" smooth="yes"/>
      <point x="30" y="283" type="line" smooth="yes"/>
      <point x="30" y="247" type="line" smooth="yes"/>
      <point x="57" y="112" type="line" smooth="yes"/>
      <point x="138" y="20" type="line" smooth="yes"/>
    </contour>
  </outline>
</glyph>
<glyph name="oslash" format="1">
  <advance width="556"/>
  <unicode hex="00F8"/>
  <outline>
    <contour>
      <point x="188" y="247" type="line" smooth="yes"/>
      <point x="188" y="283" type="line" smooth="yes"/>
      <point x="198" y="350" type="line" smooth="yes"/>
      <point x="227" y="392" type="line" smooth="yes"/>
      <point x="278" y="407" type="line" smooth="yes"/>
      <point x="299" y="405" type="line" smooth="yes"/>
      <point x="318" y="399" type="line" smooth="yes"/>
      <point x="333" y="389" type="line" smooth="yes"/>
      <point x="191" y="206" type="line" smooth="yes"/>
      <point x="189" y="219" type="line" smooth="yes"/>
      <point x="188" y="233" type="line" smooth="yes"/>
    </contour>
    <contour>
      <point x="368" y="283" type="line" smooth="yes"/>
      <point x="368" y="247" type="line" smooth="yes"/>
      <point x="359" y="180" type="line" smooth="yes"/>
      <point x="329" y="138" type="line" smooth="yes"/>
      <point x="278" y="123" type="line" smooth="yes"/>
      <point x="256" y="125" type="line" smooth="yes"/>
      <point x="237" y="131" type="line" smooth="yes"/>
      <point x="222" y="142" type="line" smooth="yes"/>
      <point x="365" y="324" type="line" smooth="yes"/>
      <point x="367" y="311" type="line" smooth="yes"/>
      <point x="368" y="298" type="line" smooth="yes"/>
    </contour>
    <contour>
      <point x="526" y="530" type="line" smooth="yes"/>
      <point x="444" y="530" type="line" smooth="yes"/>
      <point x="425" y="505" type="line" smooth="yes"/>
      <point x="383" y="526" type="line" smooth="yes"/>
      <point x="334" y="538" type="line" smooth="yes"/>
      <point x="278" y="543" type="line" smooth="yes"/>
      <point x="138" y="510" type="line" smooth="yes"/>
      <point x="57" y="418" type="line" smooth="yes"/>
      <point x="30" y="283" type="line" smooth="yes"/>
      <point x="30" y="247" type="line" smooth="yes"/>
      <point x="36" y="179" type="line" smooth="yes"/>
      <point x="53" y="118" type="line" smooth="yes"/>
      <point x="83" y="68" type="line" smooth="yes"/>
      <point x="30" y="0" type="line" smooth="yes"/>
      <point x="111" y="0" type="line" smooth="yes"/>
      <point x="130" y="25" type="line" smooth="yes"/>
      <point x="172" y="4" type="line" smooth="yes"/>
      <point x="221" y="-9" type="line" smooth="yes"/>
      <point x="278" y="-13" type="line" smooth="yes"/>
      <point x="418" y="20" type="line" smooth="yes"/>
      <point x="500" y="112" type="line" smooth="yes"/>
      <point x="526" y="247" type="line" smooth="yes"/>
      <point x="526" y="283" type="line" smooth="yes"/>
      <point x="520" y="351" type="line" smooth="yes"/>
      <point x="503" y="411" type="line" smooth="yes"/>
      <point x="473" y="462" type="line" smooth="yes"/>
    </contour>
  </outline>
</glyph>
<glyph name="thorn" format="1">
  <advance width="574"/>
  <unicode hex="00FE"/>
  <outline>
    <contour>
      <point x="211" y="173" type="line" smooth="yes"/>
      <point x="211" y="357" type="line" smooth="yes"/>
      <point x="230" y="378" type="line" smooth="yes"/>
      <point x="260" y="398" type="line" smooth="yes"/>
      <point x="301" y="407" type="line" smooth="yes"/>
      <point x="350" y="392" type="line" smooth="yes"/>
      <point x="378" y="350" type="line" smooth="yes"/>
      <point x="386" y="283" type="line" smooth="yes"/>
      <point x="386" y="247" type="line" smooth="yes"/>
      <point x="378" y="180" type="line" smooth="yes"/>
      <point x="350" y="138" type="line" smooth="yes"/>
      <point x="301" y="123" type="line" smooth="yes"/>
      <point x="260" y="132" type="line" smooth="yes"/>
      <point x="230" y="152" type="line" smooth="yes"/>
    </contour>
    <contour>
      <point x="52" y="800" type="line" smooth="yes"/>
      <point x="52" y="-200" type="line" smooth="yes"/>
      <point x="210" y="-200" type="line" smooth="yes"/>
      <point x="210" y="46" type="line" smooth="yes"/>
      <point x="245" y="15" type="line" smooth="yes"/>
      <point x="290" y="-6" type="line" smooth="yes"/>
      <point x="347" y="-13" type="line" smooth="yes"/>
      <point x="463" y="20" type="line" smooth="yes"/>
      <point x="525" y="112" type="line" smooth="yes"/>
      <point x="544" y="247" type="line" smooth="yes"/>
      <point x="544" y="283" type="line" smooth="yes"/>
      <point x="525" y="418" type="line" smooth="yes"/>
      <point x="463" y="510" type="line" smooth="yes"/>
      <point x="347" y="543" type="line" smooth="yes"/>
      <point x="290" y="535" type="line" smooth="yes"/>
      <point x="245" y="515" type="line" smooth="yes"/>
      <point x="210" y="484" type="line" smooth="yes"/>
      <point x="210" y="800" type="line" smooth="yes"/>
    </contour>
  </outline>
</glyph>
<glyph name="Abreve" format="1">
  <advance width="641"/>
  <unicode hex="0102"/>
  <outline>
    <contour>
      <point x="320" y="595" type="line" smooth="yes"/>
      <point x="384" y="308" type="line" smooth="yes"/>
      <point x="256" y="308" type="line" smooth="yes"/>
    </contour>
    <contour>
      <point x="320" y="825" type="line" smooth="yes"/>
      <point x="433" y="842" type="line" smooth="yes"/>
      <point x="488" y="887" type="line" smooth="yes"/>
      <point x="503" y="950" type="line" smooth="yes"/>
      <point x="394" y="950" type="line" smooth="yes"/>
      <point x="387" y="928" type="line" smooth="yes"/>
      <point x="363" y="915" type="line" smooth="yes"/>
      <point x="320" y="910" type="line" smooth="yes"/>
      <point x="277" y="915" type="line" smooth="yes"/>
      <point x="253" y="928" type="line" smooth="yes"/>
      <point x="246" y="950" type="line" smooth="yes"/>
      <point x="137" y="950" type="line" smooth="yes"/>
      <point x="152" y="887" type="line" smooth="yes"/>
      <point x="207" y="842" type="line" smooth="yes"/>
    </contour>
    <contour>
      <point x="209" y="782" type="line" smooth="yes"/>
      <point x="14" y="0" type="line" smooth="yes"/>
      <point x="188" y="0" type="line" smooth="yes"/>
      <point x="225" y="168" type="line" smooth="yes"/>
      <point x="416" y="168" type="line" smooth="yes"/>
      <point x="454" y="0" type="line" smooth="yes"/>
      <point x="627" y="0" type="line" smooth="yes"/>
      <point x="432" y="782" type="line" smooth="yes"/>
    </contour>
  </outline>
</glyph>
<glyph name="abreve" format="1">
  <advance width="549"/>
  <unicode hex="0103"/>
  <outline>
    <contour>
      <point x="250" y="115" type="line" smooth="yes"/>
      <point x="213" y="123" type="line" smooth="yes"/>
      <point x="193" y="143" type="line" smooth="yes"/>
      <point x="187" y="169" type="line" smooth="yes"/>
      <point x="187" y="175" type="line" smooth="yes"/>
      <point x="193" y="204" type="line" smooth="yes"/>
      <point x="213" y="225" type="line" smooth="yes"/>
      <point x="252" y="238" type="line" smooth="yes"/>
      <point x="342" y="252" type="line" smooth="yes"/>
      <point x="342" y="155" type="line" smooth="yes"/>
      <point x="321" y="137" type="line" smooth="yes"/>
      <point x="290" y="121" type="line" smooth="yes"/>
    </contour>
    <contour>
      <point x="274" y="582" type="line" smooth="yes"/>
      <point x="385" y="608" type="line" smooth="yes"/>
      <point x="445" y="678" type="line" smooth="yes"/>
      <point x="461" y="780" type="line" smooth="yes"/>
      <point x="348" y="780" type="line" smooth="yes"/>
      <point x="338" y="734" type="line" smooth="yes"/>
      <point x="312" y="709" type="line" smooth="yes"/>
      <point x="274" y="702" type="line" smooth="yes"/>
      <point x="236" y="709" type="line" smooth="yes"/>
      <point x="210" y="734" type="line" smooth="yes"/>
      <point x="200" y="780" type="line" smooth="yes"/>
      <point x="87" y="780" type="line" smooth="yes"/>
      <point x="103" y="678" type="line" smooth="yes"/>
      <point x="163" y="608" type="line" smooth="yes"/>
    </contour>
    <contour>
      <point x="368" y="0" type="line" smooth="yes"/>
      <point x="510" y="0" type="line" smooth="yes"/>
      <point x="500" y="150" type="line" smooth="yes"/>
      <point x="500" y="341" type="line" smooth="yes"/>
      <point x="480" y="450" type="line" smooth="yes"/>
      <point x="410" y="519" type="line" smooth="yes"/>
      <point x="275" y="543" type="line" smooth="yes"/>
      <point x="139" y="517" type="line" smooth="yes"/>
      <point x="69" y="451" type="line" smooth="yes"/>
      <point x="50" y="364" type="line" smooth="yes"/>
      <point x="50" y="355" type="line" smooth="yes"/>
      <point x="199" y="355" type="line" smooth="yes"/>
      <point x="205" y="388" type="line" smooth="yes"/>
      <point x="226" y="413" type="line" smooth="yes"/>
      <point x="270" y="423" type="line" smooth="yes"/>
      <point x="312" y="414" type="line" smooth="yes"/>
      <point x="335" y="388" type="line" smooth="yes"/>
      <point x="342" y="345" type="line" smooth="yes"/>
      <point x="220" y="326" type="line" smooth="yes"/>
      <point x="121" y="300" type="line" smooth="yes"/>
      <point x="55" y="247" type="line" smooth="yes"/>
      <point x="30" y="156" type="line" smooth="yes"/>
      <point x="30" y="146" type="line" smooth="yes"/>
      <point x="46" y="67" type="line" smooth="yes"/>
      <point x="97" y="9" type="line" smooth="yes"/>
      <point x="192" y="-13" type="line" smooth="yes"/>
      <point x="260" y="-4" type="line" smooth="yes"/>
      <point x="315" y="20" type="line" smooth="yes"/>
      <point x="358" y="55" type="line" smooth="yes"/>
    </contour>
  </outline>
</glyph>
<glyph name="Aogonek" format="1">
  <advance width="641"/>
  <unicode hex="0104"/>
  <outline>
    <contour>
      <point x="320" y="595" type="line" smooth="yes"/>
      <point x="384" y="308" type="line" smooth="yes"/>
      <point x="256" y="308" type="line" smooth="yes"/>
    </contour>
    <contour>
      <point x="565" y="-69" type="line" smooth="yes"/>
      <point x="572" y="-42" type="line" smooth="yes"/>
      <point x="594" y="-19" type="line" smooth="yes"/>
      <point x="627" y="0" type="line" smooth="yes"/>
      <point x="432" y="782" type="line" smooth="yes"/>
      <point x="209" y="782" type="line" smooth="yes"/>
      <point x="14" y="0" type="line" smooth="yes"/>
      <point x="188" y="0" type="line" smooth="yes"/>
      <point x="225" y="168" type="line" smooth="yes"/>
      <point x="416" y="168" type="line" smooth="yes"/>
      <point x="454" y="0" type="line" smooth="yes"/>
      <point x="492" y="0" type="line" smooth="yes"/>
      <point x="469" y="-31" type="line" smooth="yes"/>
      <point x="453" y="-66" type="line" smooth="yes"/>
      <point x="448" y="-107" type="line" smooth="yes"/>
      <point x="465" y="-167" type="line" smooth="yes"/>
      <point x="512" y="-203" type="line" smooth="yes"/>
      <point x="583" y="-215" type="line" smooth="yes"/>
      <point x="623" y="-211" type="line" smooth="yes"/>
      <point x="659" y="-202" type="line" smooth="yes"/>
      <point x="686" y="-190" type="line" smooth="yes"/>
      <point x="650" y="-94" type="line" smooth="yes"/>
      <point x="640" y="-99" type="line" smooth="yes"/>
      <point x="626" y="-103" type="line" smooth="yes"/>
      <point x="608" y="-105" type="line" smooth="yes"/>
      <point x="585" y="-100" type="line" smooth="yes"/>
      <point x="570" y="-88" type="line" smooth="yes"/>
    </contour>
  </outline>
</glyph>
<glyph name="aogonek" format="1">
  <advance width="549"/>
  <unicode hex="0105"/>
  <outline>
    <contour>
      <point x="329" y="-107" type="line" smooth="yes"/>
      <point x="346" y="-167" type="line" smooth="yes"/>
      <point x="393" y="-203" type="line" smooth="yes"/>
      <point x="464" y="-215" type="line" smooth="yes"/>
      <point x="504" y="-211" type="line" smooth="yes"/>
      <point x="540" y="-202" type="line" smooth="yes"/>
      <point x="567" y="-190" type="line" smooth="yes"/>
      <point x="531" y="-94" type="line" smooth="yes"/>
      <point x="521" y="-99" type="line" smooth="yes"/>
      <point x="507" y="-103" type="line" smooth="yes"/>
      <point x="489" y="-105" type="line" smooth="yes"/>
      <point x="466" y="-100" type="line" smooth="yes"/>
      <point x="451" y="-88" type="line" smooth="yes"/>
      <point x="446" y="-69" type="line" smooth="yes"/>
      <point x="453" y="-42" type="line" smooth="yes"/>
      <point x="475" y="-19" type="line" smooth="yes"/>
      <point x="508" y="0" type="line" smooth="yes"/>
      <point x="510" y="0" type="line" smooth="yes"/>
      <point x="500" y="150" type="line" smooth="yes"/>
      <point x="500" y="341" type="line" smooth="yes"/>
      <point x="480" y="450" type="line" smooth="yes"/>
      <point x="410" y="519" type="line" smooth="yes"/>
      <point x="275" y="543" type="line" smooth="yes"/>
      <point x="139" y="517" type="line" smooth="yes"/>
      <point x="69" y="451" type="line" smooth="yes"/>
      <point x="50" y="364" type="line" smooth="yes"/>
      <point x="50" y="355" type="line" smooth="yes"/>
      <point x="199" y="355" type="line" smooth="yes"/>
      <point x="205" y="388" type="line" smooth="yes"/>
      <point x="226" y="413" type="line" smooth="yes"/>
      <point x="270" y="423" type="line" smooth="yes"/>
      <point x="312" y="414" type="line" smooth="yes"/>
      <point x="335" y="388" type="line" smooth="yes"/>
      <point x="342" y="345" type="line" smooth="yes"/>
      <point x="220" y="326" type="line" smooth="yes"/>
      <point x="121" y="300" type="line" smooth="yes"/>
      <point x="55" y="247" type="line" smooth="yes"/>
      <point x="30" y="156" type="line" smooth="yes"/>
      <point x="30" y="146" type="line" smooth="yes"/>
      <point x="46" y="67" type="line" smooth="yes"/>
      <point x="97" y="9" type="line" smooth="yes"/>
      <point x="192" y="-13" type="line" smooth="yes"/>
      <point x="260" y="-4" type="line" smooth="yes"/>
      <point x="315" y="20" type="line" smooth="yes"/>
      <point x="358" y="55" type="line" smooth="yes"/>
      <point x="369" y="-4" type="line" smooth="yes"/>
      <point x="348" y="-34" type="line" smooth="yes"/>
      <point x="334" y="-68" type="line" smooth="yes"/>
    </contour>
    <contour>
      <point x="250" y="115" type="line" smooth="yes"/>
      <point x="213" y="123" type="line" smooth="yes"/>
      <point x="193" y="143" type="line" smooth="yes"/>
      <point x="187" y="169" type="line" smooth="yes"/>
      <point x="187" y="175" type="line" smooth="yes"/>
      <point x="193" y="204" type="line" smooth="yes"/>
      <point x="213" y="225" type="line" smooth="yes"/>
      <point x="252" y="238" type="line" smooth="yes"/>
      <point x="342" y="252" type="line" smooth="yes"/>
      <point x="342" y="155" type="line" smooth="yes"/>
      <point x="321" y="137" type="line" smooth="yes"/>
      <point x="290" y="121" type="line" smooth="yes"/>
    </contour>
  </outline>
</glyph>
<glyph name="Cdotaccent" format="1">
  <advance width="650"/>
  <unicode hex="010A"/>
  <outline>
    <contour>
      <point x="399" y="945" type="line" smooth="yes"/>
      <point x="265" y="945" type="line" smooth="yes"/>
      <point x="265" y="845" type="line" smooth="yes"/>
      <point x="399" y="845" type="line" smooth="yes"/>
    </contour>
    <contour>
      <point x="203" y="370" type="line" smooth="yes"/>
      <point x="203" y="410" type="line" smooth="yes"/>
      <point x="213" y="542" type="line" smooth="yes"/>
      <point x="252" y="625" type="line" smooth="yes"/>
      <point x="332" y="653" type="line" smooth="yes"/>
      <point x="341" y="653" type="line" smooth="yes"/>
      <point x="407" y="633" type="line" smooth="yes"/>
      <point x="440" y="575" type="line" smooth="yes"/>
      <point x="449" y="484" type="line" smooth="yes"/>
      <point x="611" y="484" type="line" smooth="yes"/>
      <point x="611" y="520" type="line" smooth="yes"/>
      <point x="580" y="677" type="line" smooth="yes"/>
      <point x="487" y="766" type="line" smooth="yes"/>
      <point x="332" y="793" type="line" smooth="yes"/>
      <point x="166" y="754" type="line" smooth="yes"/>
      <point x="70" y="629" type="line" smooth="yes"/>
      <point x="39" y="410" type="line" smooth="yes"/>
      <point x="39" y="370" type="line" smooth="yes"/>
      <point x="70" y="151" type="line" smooth="yes"/>
      <point x="166" y="26" type="line" smooth="yes"/>
      <point x="332" y="-13" type="line" smooth="yes"/>
      <point x="487" y="14" type="line" smooth="yes"/>
      <point x="580" y="102" type="line" smooth="yes"/>
      <point x="611" y="257" type="line" smooth="yes"/>
      <point x="611" y="266" type="line" smooth="yes"/>
      <point x="449" y="266" type="line" smooth="yes"/>
      <point x="439" y="193" type="line" smooth="yes"/>
      <point x="404" y="144" type="line" smooth="yes"/>
      <point x="341" y="127" type="line" smooth="yes"/>
      <point x="332" y="127" type="line" smooth="yes"/>
      <point x="252" y="155" type="line" smooth="yes"/>
      <point x="213" y="238" type="line" smooth="yes"/>
    </contour>
  </outline>
</glyph>
<glyph name="ccaron" format="1">
  <advance width="527"/>
  <unicode hex="010D"/>
  <outline>
    <contour>
      <point x="60" y="780" type="line" smooth="yes"/>
      <point x="194" y="596" type="line" smooth="yes"/>
      <point x="346" y="596" type="line" smooth="yes"/>
      <point x="480" y="780" type="line" smooth="yes"/>
      <point x="342" y="780" type="line" smooth="yes"/>
      <point x="270" y="697" type="line" smooth="yes"/>
      <point x="198" y="780" type="line" smooth="yes"/>
    </contour>
    <contour>
      <point x="188" y="247" type="line" smooth="yes"/>
      <point x="188" y="283" type="line" smooth="yes"/>
      <point x="196" y="350" type="line" smooth="yes"/>
      <point x="224" y="392" type="line" smooth="yes"/>
      <point x="273" y="407" type="line" smooth="yes"/>
      <point x="315" y="397" type="line" smooth="yes"/>
      <point x="340" y="370" type="line" smooth="yes"/>
      <point x="349" y="324" type="line" smooth="yes"/>
      <point x="498" y="324" type="line" smooth="yes"/>
      <point x="498" y="347" type="line" smooth="yes"/>
      <point x="473" y="450" type="line" smooth="yes"/>
      <point x="397" y="518" type="line" smooth="yes"/>
      <point x="270" y="543" type="line" smooth="yes"/>
      <point x="134" y="510" type="line" smooth="yes"/>
      <point x="55" y="418" type="line" smooth="yes"/>
      <point x="30" y="283" type="line" smooth="yes"/>
      <point x="30" y="247" type="line" smooth="yes"/>
      <point x="55" y="112" type="line" smooth="yes"/>
      <point x="134" y="20" type="line" smooth="yes"/>
      <point x="270" y="-13" type="line" smooth="yes"/>
      <point x="397" y="11" type="line" smooth="yes"/>
      <point x="473" y="77" type="line" smooth="yes"/>
      <point x="498" y="174" type="line" smooth="yes"/>
      <point x="498" y="196" type="line" smooth="yes"/>
      <point x="349" y="196" type="line" smooth="yes"/>
      <point x="341" y="158" type="line" smooth="yes"/>
      <point x="315" y="133" type="line" smooth="yes"/>
      <point x="273" y="123" type="line" smooth="yes"/>
      <point x="224" y="138" type="line" smooth="yes"/>
      <point x="196" y="180" type="line" smooth="yes"/>
    </contour>
  </outline>
</glyph>
<glyph name="dcroat" format="1">
  <advance width="582"/>
  <unicode hex="0111"/>
  <outline>
    <contour>
      <point x="371" y="357" type="line" smooth="yes"/>
      <point x="371" y="173" type="line" smooth="yes"/>
      <point x="352" y="151" type="line" smooth="yes"/>
      <point x="322" y="131" type="line" smooth="yes"/>
      <point x="280" y="122" type="line" smooth="yes"/>
      <point x="231" y="137" type="line" smooth="yes"/>
      <point x="203" y="179" type="line" smooth="yes"/>
      <point x="195" y="247" type="line" smooth="yes"/>
      <point x="195" y="283" type="line" smooth="yes"/>
      <point x="203" y="351" type="line" smooth="yes"/>
      <point x="231" y="393" type="line" smooth="yes"/>
      <point x="280" y="408" type="line" smooth="yes"/>
      <point x="322" y="399" type="line" smooth="yes"/>
      <point x="352" y="379" type="line" smooth="yes"/>
    </contour>
    <contour>
      <point x="596" y="721" type="line" smooth="yes"/>
      <point x="528" y="721" type="line" smooth="yes"/>
      <point x="528" y="800" type="line" smooth="yes"/>
      <point x="371" y="800" type="line" smooth="yes"/>
      <point x="371" y="721" type="line" smooth="yes"/>
      <point x="258" y="721" type="line" smooth="yes"/>
      <point x="258" y="609" type="line" smooth="yes"/>
      <point x="371" y="609" type="line" smooth="yes"/>
      <point x="371" y="485" type="line" smooth="yes"/>
      <point x="336" y="515" type="line" smooth="yes"/>
      <point x="291" y="536" type="line" smooth="yes"/>
      <point x="235" y="543" type="line" smooth="yes"/>
      <point x="119" y="510" type="line" smooth="yes"/>
      <point x="57" y="418" type="line" smooth="yes"/>
      <point x="38" y="283" type="line" smooth="yes"/>
      <point x="38" y="247" type="line" smooth="yes"/>
      <point x="57" y="112" type="line" smooth="yes"/>
      <point x="119" y="20" type="line" smooth="yes"/>
      <point x="235" y="-13" type="line" smooth="yes"/>
      <point x="300" y="-3" type="line" smooth="yes"/>
      <point x="349" y="24" type="line" smooth="yes"/>
      <point x="385" y="64" type="line" smooth="yes"/>
      <point x="397" y="0" type="line" smooth="yes"/>
      <point x="537" y="0" type="line" smooth="yes"/>
      <point x="528" y="150" type="line" smooth="yes"/>
      <point x="528" y="609" type="line" smooth="yes"/>
      <point x="596" y="609" type="line" smooth="yes"/>
    </contour>
  </outline>
</glyph>
<glyph name="Ebreve" format="1">
  <advance width="573"/>
  <unicode hex="0114"/>
  <outline>
    <contour>
      <point x="56" y="780" type="line" smooth="yes"/>
      <point x="56" y="0" type="line" smooth="yes"/>
      <point x="533" y="0" type="line" smooth="yes"/>
      <point x="533" y="140" type="line" smooth="yes"/>
      <point x="218" y="140" type="line" smooth="yes"/>
      <point x="218" y="328" type="line" smooth="yes"/>
      <point x="483" y="328" type="line" smooth="yes"/>
      <point x="483" y="468" type="line" smooth="yes"/>
      <point x="218" y="468" type="line" smooth="yes"/>
      <point x="218" y="640" type="line" smooth="yes"/>
      <point x="533" y="640" type="line" smooth="yes"/>
      <point x="533" y="780" type="line" smooth="yes"/>
    </contour>
    <contour>
      <point x="296" y="825" type="line" smooth="yes"/>
      <point x="409" y="842" type="line" smooth="yes"/>
      <point x="464" y="887" type="line" smooth="yes"/>
      <point x="479" y="950" type="line" smooth="yes"/>
      <point x="370" y="950" type="line" smooth="yes"/>
      <point x="363" y="928" type="line" smooth="yes"/>
      <point x="339" y="915" type="line" smooth="yes"/>
      <point x="296" y="910" type="line" smooth="yes"/>
      <point x="253" y="915" type="line" smooth="yes"/>
      <point x="229" y="928" type="line" smooth="yes"/>
      <point x="222" y="950" type="line" smooth="yes"/>
      <point x="113" y="950" type="line" smooth="yes"/>
      <point x="128" y="887" type="line" smooth="yes"/>
      <point x="183" y="842" type="line" smooth="yes"/>
    </contour>
  </outline>
</glyph>
<glyph name="ebreve" format="1">
  <advance width="556"/>
  <unicode hex="0115"/>
  <outline>
    <contour>
      <point x="278" y="423" type="line" smooth="yes"/>
      <point x="325" y="412" type="line" smooth="yes"/>
      <point x="354" y="379" type="line" smooth="yes"/>
      <point x="367" y="322" type="line" smooth="yes"/>
      <point x="189" y="322" type="line" smooth="yes"/>
      <point x="202" y="379" type="line" smooth="yes"/>
      <point x="231" y="412" type="line" smooth="yes"/>
    </contour>
    <contour>
      <point x="281" y="582" type="line" smooth="yes"/>
      <point x="392" y="608" type="line" smooth="yes"/>
      <point x="452" y="678" type="line" smooth="yes"/>
      <point x="468" y="780" type="line" smooth="yes"/>
      <point x="355" y="780" type="line" smooth="yes"/>
      <point x="345" y="734" type="line" smooth="yes"/>
      <point x="319" y="709" type="line" smooth="yes"/>
      <point x="281" y="702" type="line" smooth="yes"/>
      <point x="243" y="709" type="line" smooth="yes"/>
      <point x="217" y="734" type="line" smooth="yes"/>
      <point x="207" y="780" type="line" smooth="yes"/>
      <point x="94" y="780" type="line" smooth="yes"/>
      <point x="110" y="678" type="line" smooth="yes"/>
      <point x="170" y="608" type="line" smooth="yes"/>
    </contour>
    <contour>
      <point x="526" y="208" type="line" smooth="yes"/>
      <point x="526" y="279" type="line" smooth="yes"/>
      <point x="500" y="415" type="line" smooth="yes"/>
      <point x="419" y="509" type="line" smooth="yes"/>
      <point x="281" y="543" type="line" smooth="yes"/>
      <point x="142" y="509" type="line" smooth="yes"/>
      <point x="58" y="415" type="line" smooth="yes"/>
      <point x="30" y="279" type="line" smooth="yes"/>
      <point x="30" y="251" type="line" smooth="yes"/>
      <point x="58" y="115" type="line" smooth="yes"/>
      <point x="142" y="21" type="line" smooth="yes"/>
      <point x="287" y="-13" type="line" smooth="yes"/>
      <point x="417" y="11" type="line" smooth="yes"/>
      <point x="498" y="75" type="line" smooth="yes"/>
      <point x="526" y="166" type="line" smooth="yes"/>
      <point x="526" y="170" type="line" smooth="yes"/>
      <point x="377" y="170" type="line" smooth="yes"/>
      <point x="366" y="139" type="line" smooth="yes"/>
      <point x="336" y="116" type="line" smooth="yes"/>
      <point x="288" y="107" type="line" smooth="yes"/>
      <point x="237" y="117" type="line" smooth="yes"/>
      <point x="203" y="149" type="line" smooth="yes"/>
      <point x="188" y="208" type="line" smooth="yes"/>
    </contour>
  </outline>
</glyph>
<glyph name="Eogonek" format="1">
  <advance width="573"/>
  <unicode hex="0118"/>
  <outline>
    <contour>
      <point x="56" y="780" type="line" smooth="yes"/>
      <point x="56" y="0" type="line" smooth="yes"/>
      <point x="397" y="0" type="line" smooth="yes"/>
      <point x="374" y="-31" type="line" smooth="yes"/>
      <point x="358" y="-66" type="line" smooth="yes"/>
      <point x="353" y="-107" type="line" smooth="yes"/>
      <point x="370" y="-167" type="line" smooth="yes"/>
      <point x="417" y="-203" type="line" smooth="yes"/>
      <point x="488" y="-215" type="line" smooth="yes"/>
      <point x="528" y="-211" type="line" smooth="yes"/>
      <point x="564" y="-202" type="line" smooth="yes"/>
      <point x="591" y="-190" type="line" smooth="yes"/>
      <point x="555" y="-94" type="line" smooth="yes"/>
      <point x="545" y="-99" type="line" smooth="yes"/>
      <point x="531" y="-103" type="line" smooth="yes"/>
      <point x="513" y="-105" type="line" smooth="yes"/>
      <point x="490" y="-100" type="line" smooth="yes"/>
      <point x="475" y="-88" type="line" smooth="yes"/>
      <point x="470" y="-69" type="line" smooth="yes"/>
      <point x="477" y="-42" type="line" smooth="yes"/>
      <point x="499" y="-19" type="line" smooth="yes"/>
      <point x="532" y="0" type="line" smooth="yes"/>
      <point x="533" y="0" type="line" smooth="yes"/>
      <point x="533" y="140" type="line" smooth="yes"/>
      <point x="218" y="140" type="line" smooth="yes"/>
      <point x="218" y="328" type="line" smooth="yes"/>
      <point x="483" y="328" type="line" smooth="yes"/>
      <point x="483" y="468" type="line" smooth="yes"/>
      <point x="218" y="468" type="line" smooth="yes"/>
      <point x="218" y="640" type="line" smooth="yes"/>
      <point x="533" y="640" type="line" smooth="yes"/>
      <point x="533" y="780" type="line" smooth="yes"/>
    </contour>
  </outline>
</glyph>
<glyph name="eogonek" format="1">
  <advance width="556"/>
  <unicode hex="0119"/>
  <outline>
    <contour>
      <point x="278" y="423" type="line" smooth="yes"/>
      <point x="325" y="412" type="line" smooth="yes"/>
      <point x="354" y="379" type="line" smooth="yes"/>
      <point x="367" y="322" type="line" smooth="yes"/>
      <point x="189" y="322" type="line" smooth="yes"/>
      <point x="202" y="379" type="line" smooth="yes"/>
      <point x="231" y="412" type="line" smooth="yes"/>
    </contour>
    <contour>
      <point x="526" y="208" type="line" smooth="yes"/>
      <point x="526" y="279" type="line" smooth="yes"/>
      <point x="500" y="415" type="line" smooth="yes"/>
      <point x="419" y="509" type="line" smooth="yes"/>
      <point x="281" y="543" type="line" smooth="yes"/>
      <point x="142" y="509" type="line" smooth="yes"/>
      <point x="58" y="415" type="line" smooth="yes"/>
      <point x="30" y="279" type="line" smooth="yes"/>
      <point x="30" y="251" type="line" smooth="yes"/>
      <point x="53" y="125" type="line" smooth="yes"/>
      <point x="123" y="34" type="line" smooth="yes"/>
      <point x="243" y="-10" type="line" smooth="yes"/>
      <point x="224" y="-39" type="line" smooth="yes"/>
      <point x="212" y="-71" type="line" smooth="yes"/>
      <point x="208" y="-107" type="line" smooth="yes"/>
      <point x="225" y="-167" type="line" smooth="yes"/>
      <point x="272" y="-203" type="line" smooth="yes"/>
      <point x="343" y="-215" type="line" smooth="yes"/>
      <point x="383" y="-211" type="line" smooth="yes"/>
      <point x="419" y="-202" type="line" smooth="yes"/>
      <point x="446" y="-190" type="line" smooth="yes"/>
      <point x="410" y="-94" type="line" smooth="yes"/>
      <point x="400" y="-99" type="line" smooth="yes"/>
      <point x="386" y="-103" type="line" smooth="yes"/>
      <point x="368" y="-105" type="line" smooth="yes"/>
      <point x="345" y="-100" type="line" smooth="yes"/>
      <point x="330" y="-88" type="line" smooth="yes"/>
      <point x="325" y="-69" type="line" smooth="yes"/>
      <point x="332" y="-40" type="line" smooth="yes"/>
      <point x="353" y="-17" type="line" smooth="yes"/>
      <point x="387" y="0" type="line" smooth="yes"/>
      <point x="462" y="37" type="line" smooth="yes"/>
      <point x="509" y="94" type="line" smooth="yes"/>
      <point x="526" y="166" type="line" smooth="yes"/>
      <point x="526" y="170" type="line" smooth="yes"/>
      <point x="377" y="170" type="line" smooth="yes"/>
      <point x="366" y="139" type="line" smooth="yes"/>
      <point x="336" y="116" type="line" smooth="yes"/>
      <point x="288" y="107" type="line" smooth="yes"/>
      <point x="237" y="117" type="line" smooth="yes"/>
      <point x="203" y="149" type="line" smooth="yes"/>
      <point x="188" y="208" type="line" smooth="yes"/>
    </contour>
  </outline>
</glyph>
<glyph name="Ecaron" format="1">
  <advance width="573"/>
  <unicode hex="011A"/>
  <outline>
    <contour>
      <point x="92" y="950" type="line" smooth="yes"/>
      <point x="216" y="840" type="line" smooth="yes"/>
      <point x="376" y="840" type="line" smooth="yes"/>
      <point x="500" y="950" type="line" smooth="yes"/>
      <point x="358" y="950" type="line" smooth="yes"/>
      <point x="296" y="905" type="line" smooth="yes"/>
      <point x="234" y="950" type="line" smooth="yes"/>
    </contour>
    <contour>
      <point x="56" y="780" type="line" smooth="yes"/>
      <point x="56" y="0" type="line" smooth="yes"/>
      <point x="533" y="0" type="line" smooth="yes"/>
      <point x="533" y="140" type="line" smooth="yes"/>
      <point x="218" y="140" type="line" smooth="yes"/>
      <point x="218" y="328" type="line" smooth="yes"/>
      <point x="483" y="328" type="line" smooth="yes"/>
      <point x="483" y="468" type="line" smooth="yes"/>
      <point x="218" y="468" type="line" smooth="yes"/>
      <point x="218" y="640" type="line" smooth="yes"/>
      <point x="533" y="640" type="line" smooth="yes"/>
      <point x="533" y="780" type="line" smooth="yes"/>
    </contour>
  </outline>
</glyph>
<glyph name="Gcircumflex" format="1">
  <advance width="673"/>
  <unicode hex="011C"/>
  <outline>
    <contour>
      <point x="276" y="840" type="line" smooth="yes"/>
      <point x="338" y="884" type="line" smooth="yes"/>
      <point x="400" y="840" type="line" smooth="yes"/>
      <point x="542" y="840" type="line" smooth="yes"/>
      <point x="418" y="950" type="line" smooth="yes"/>
      <point x="258" y="950" type="line" smooth="yes"/>
      <point x="134" y="840" type="line" smooth="yes"/>
    </contour>
    <contour>
      <point x="348" y="-13" type="line" smooth="yes"/>
      <point x="466" y="-0" type="line" smooth="yes"/>
      <point x="555" y="33" type="line" smooth="yes"/>
      <point x="621" y="78" type="line" smooth="yes"/>
      <point x="621" y="422" type="line" smooth="yes"/>
      <point x="356" y="422" type="line" smooth="yes"/>
      <point x="356" y="282" type="line" smooth="yes"/>
      <point x="459" y="282" type="line" smooth="yes"/>
      <point x="459" y="157" type="line" smooth="yes"/>
      <point x="431" y="142" type="line" smooth="yes"/>
      <point x="396" y="131" type="line" smooth="yes"/>
      <point x="353" y="127" type="line" smooth="yes"/>
      <point x="344" y="127" type="line" smooth="yes"/>
      <point x="257" y="155" type="line" smooth="yes"/>
      <point x="215" y="238" type="line" smooth="yes"/>
      <point x="204" y="370" type="line" smooth="yes"/>
      <point x="204" y="410" type="line" smooth="yes"/>
      <point x="215" y="542" type="line" smooth="yes"/>
      <point x="256" y="625" type="line" smooth="yes"/>
      <point x="338" y="653" type="line" smooth="yes"/>
      <point x="347" y="653" type="line" smooth="yes"/>
      <point x="416" y="633" type="line" smooth="yes"/>
      <point x="451" y="575" type="line" smooth="yes"/>
      <point x="460" y="484" type="line" smooth="yes"/>
      <point x="622" y="484" type="line" smooth="yes"/>
      <point x="622" y="520" type="line" smooth="yes"/>
      <point x="590" y="677" type="line" smooth="yes"/>
      <point x="494" y="766" type="line" smooth="yes"/>
      <point x="338" y="793" type="line" smooth="yes"/>
      <point x="171" y="754" type="line" smooth="yes"/>
      <point x="72" y="629" type="line" smooth="yes"/>
      <point x="39" y="410" type="line" smooth="yes"/>
      <point x="39" y="370" type="line" smooth="yes"/>
      <point x="72" y="151" type="line" smooth="yes"/>
      <point x="174" y="26" type="line" smooth="yes"/>
    </contour>
  </outline>
</glyph>
<glyph name="Gbreve" format="1">
  <advance width="673"/>
  <unicode hex="011E"/>
  <outline>
    <contour>
      <point x="338" y="825" type="line" smooth="yes"/>
      <point x="451" y="842" type="line" smooth="yes"/>
      <point x="506" y="887" type="line" smooth="yes"/>
      <point x="521" y="950" type="line" smooth="yes"/>
      <point x="412" y="950" type="line" smooth="yes"/>
      <point x="405" y="928" type="line" smooth="yes"/>
      <point x="381" y="915" type="line" smooth="yes"/>
      <point x="338" y="910" type="line" smooth="yes"/>
      <point x="295" y="915" type="line" smooth="yes"/>
      <point x="271" y="928" type="line" smooth="yes"/>
      <point x="264" y="950" type="line" smooth="yes"/>
      <point x="155" y="950" type="line" smooth="yes"/>
      <point x="170" y="887" type="line" smooth="yes"/>
      <point x="225" y="842" type="line" smooth="yes"/>
    </contour>
    <contour>
      <point x="348" y="-13" type="line" smooth="yes"/>
      <point x="466" y="-0" type="line" smooth="yes"/>
      <point x="555" y="33" type="line" smooth="yes"/>
      <point x="621" y="78" type="line" smooth="yes"/>
      <point x="621" y="422" type="line" smooth="yes"/>
      <point x="356" y="422" type="line" smooth="yes"/>
      <point x="356" y="282" type="line" smooth="yes"/>
      <point x="459" y="282" type="line" smooth="yes"/>
      <point x="459" y="157" type="line" smooth="yes"/>
      <point x="431" y="142" type="line" smooth="yes"/>
      <point x="396" y="131" type="line" smooth="yes"/>
      <point x="353" y="127" type="line" smooth="yes"/>
      <point x="344" y="127" type="line" smooth="yes"/>
      <point x="257" y="155" type="line" smooth="yes"/>
      <point x="215" y="238" type="line" smooth="yes"/>
      <point x="204" y="370" type="line" smooth="yes"/>
      <point x="204" y="410" type="line" smooth="yes"/>
      <point x="215" y="542" type="line" smooth="yes"/>
      <point x="256" y="625" type="line" smooth="yes"/>
      <point x="338" y="653" type="line" smooth="yes"/>
      <point x="347" y="653" type="line" smooth="yes"/>
      <point x="416" y="633" type="line" smooth="yes"/>
      <point x="451" y="575" type="line" smooth="yes"/>
      <point x="460" y="484" type="line" smooth="yes"/>
      <point x="622" y="484" type="line" smooth="yes"/>
      <point x="622" y="520" type="line" smooth="yes"/>
      <point x="590" y="677" type="line" smooth="yes"/>
      <point x="494" y="766" type="line" smooth="yes"/>
      <point x="338" y="793" type="line" smooth="yes"/>
      <point x="171" y="754" type="line" smooth="yes"/>
      <point x="72" y="629" type="line" smooth="yes"/>
      <point x="39" y="410" type="line" smooth="yes"/>
      <point x="39" y="370" type="line" smooth="yes"/>
      <point x="72" y="151" type="line" smooth="yes"/>
      <point x="174" y="26" type="line" smooth="yes"/>
    </contour>
  </outline>
</glyph>
<glyph name="gdotaccent" format="1">
  <advance width="574"/>
  <unicode hex="0121"/>
  <outline>
    <contour>
      <point x="359" y="772" type="line" smooth="yes"/>
      <point x="193" y="772" type="line" smooth="yes"/>
      <point x="193" y="606" type="line" smooth="yes"/>
      <point x="359" y="606" type="line" smooth="yes"/>
    </contour>
    <contour>
      <point x="363" y="357" type="line" smooth="yes"/>
      <point x="363" y="205" type="line" smooth="yes"/>
      <point x="345" y="184" type="line" smooth="yes"/>
      <point x="315" y="164" type="line" smooth="yes"/>
      <point x="273" y="155" type="line" smooth="yes"/>
      <point x="226" y="167" type="line" smooth="yes"/>
      <point x="197" y="204" type="line" smooth="yes"/>
      <point x="188" y="267" type="line" smooth="yes"/>
      <point x="188" y="295" type="line" smooth="yes"/>
      <point x="197" y="354" type="line" smooth="yes"/>
      <point x="226" y="393" type="line" smooth="yes"/>
      <point x="273" y="407" type="line" smooth="yes"/>
      <point x="315" y="398" type="line" smooth="yes"/>
      <point x="345" y="378" type="line" smooth="yes"/>
    </contour>
    <contour>
      <point x="363" y="11" type="line" smooth="yes"/>
      <point x="353" y="-46" type="line" smooth="yes"/>
      <point x="323" y="-76" type="line" smooth="yes"/>
      <point x="273" y="-85" type="line" smooth="yes"/>
      <point x="222" y="-74" type="line" smooth="yes"/>
      <point x="196" y="-44" type="line" smooth="yes"/>
      <point x="189" y="0" type="line" smooth="yes"/>
      <point x="40" y="0" type="line" smooth="yes"/>
      <point x="40" y="-21" type="line" smooth="yes"/>
      <point x="62" y="-118" type="line" smooth="yes"/>
      <point x="136" y="-187" type="line" smooth="yes"/>
      <point x="276" y="-213" type="line" smooth="yes"/>
      <point x="414" y="-188" type="line" smooth="yes"/>
      <point x="495" y="-113" type="line" smooth="yes"/>
      <point x="521" y="10" type="line" smooth="yes"/>
      <point x="521" y="380" type="line" smooth="yes"/>
      <point x="530" y="530" type="line" smooth="yes"/>
      <point x="389" y="530" type="line" smooth="yes"/>
      <point x="378" y="469" type="line" smooth="yes"/>
      <point x="342" y="507" type="line" smooth="yes"/>
      <point x="292" y="533" type="line" smooth="yes"/>
      <point x="227" y="543" type="line" smooth="yes"/>
      <point x="113" y="510" type="line" smooth="yes"/>
      <point x="50" y="422" type="line" smooth="yes"/>
      <point x="30" y="295" type="line" smooth="yes"/>
      <point x="30" y="267" type="line" smooth="yes"/>
      <point x="50" y="136" type="line" smooth="yes"/>
      <point x="113" y="50" type="line" smooth="yes"/>
      <point x="227" y="19" type="line" smooth="yes"/>
      <point x="283" y="26" type="line" smooth="yes"/>
      <point x="328" y="44" type="line" smooth="yes"/>
      <point x="363" y="73" type="line" smooth="yes"/>
    </contour>
  </outline>
</glyph>
<glyph name="gcommaaccent" format="1">
  <advance width="574"/>
  <unicode hex="0123"/>
  <outline>
    <contour>
      <point x="206" y="596" type="line" smooth="yes"/>
      <point x="347" y="596" type="line" smooth="yes"/>
      <point x="347" y="696" type="line" smooth="yes"/>
      <point x="266" y="696" type="line" smooth="yes"/>
      <point x="284" y="721" type="line" smooth="yes"/>
      <point x="313" y="735" type="line" smooth="yes"/>
      <point x="353" y="739" type="line" smooth="yes"/>
      <point x="353" y="793" type="line" smooth="yes"/>
      <point x="270" y="779" type="line" smooth="yes"/>
      <point x="222" y="737" type="line" smooth="yes"/>
      <point x="206" y="661" type="line" smooth="yes"/>
    </contour>
    <contour>
      <point x="273" y="154" type="line" smooth="yes"/>
      <point x="225" y="166" type="line" smooth="yes"/>
      <point x="196" y="204" type="line" smooth="yes"/>
      <point x="187" y="267" type="line" smooth="yes"/>
      <point x="187" y="295" type="line" smooth="yes"/>
      <point x="196" y="355" type="line" smooth="yes"/>
      <point x="225" y="394" type="line" smooth="yes"/>
      <point x="273" y="408" type="line" smooth="yes"/>
      <point x="315" y="399" type="line" smooth="yes"/>
      <point x="345" y="379" type="line" smooth="yes"/>
      <point x="364" y="357" type="line" smooth="yes"/>
      <point x="364" y="205" type="line" smooth="yes"/>
      <point x="345" y="183" type="line" smooth="yes"/>
      <point x="315" y="163" type="line" smooth="yes"/>
    </contour>
    <contour>
      <point x="364" y="11" type="line" smooth="yes"/>
      <point x="354" y="-46" type="line" smooth="yes"/>
      <point x="324" y="-77" type="line" smooth="yes"/>
      <point x="273" y="-86" type="line" smooth="yes"/>
      <point x="222" y="-75" type="line" smooth="yes"/>
      <point x="196" y="-45" type="line" smooth="yes"/>
      <point x="189" y="0" type="line" smooth="yes"/>
      <point x="41" y="0" type="line" smooth="yes"/>
      <point x="41" y="-21" type="line" smooth="yes"/>
      <point x="63" y="-118" type="line" smooth="yes"/>
      <point x="137" y="-187" type="line" smooth="yes"/>
      <point x="276" y="-213" type="line" smooth="yes"/>
      <point x="413" y="-188" type="line" smooth="yes"/>
      <point x="494" y="-113" type="line" smooth="yes"/>
      <point x="521" y="10" type="line" smooth="yes"/>
      <point x="521" y="380" type="line" smooth="yes"/>
      <point x="530" y="530" type="line" smooth="yes"/>
      <point x="389" y="530" type="line" smooth="yes"/>
      <point x="378" y="470" type="line" smooth="yes"/>
      <point x="342" y="508" type="line" smooth="yes"/>
      <point x="293" y="534" type="line" smooth="yes"/>
      <point x="227" y="543" type="line" smooth="yes"/>
      <point x="114" y="510" type="line" smooth="yes"/>
      <point x="51" y="422" type="line" smooth="yes"/>
      <point x="31" y="295" type="line" smooth="yes"/>
      <point x="31" y="267" type="line" smooth="yes"/>
      <point x="51" y="136" type="line" smooth="yes"/>
      <point x="114" y="50" type="line" smooth="yes"/>
      <point x="227" y="19" type="line" smooth="yes"/>
      <point x="284" y="26" type="line" smooth="yes"/>
      <point x="329" y="44" type="line" smooth="yes"/>
      <point x="364" y="73" type="line" smooth="yes"/>
    </contour>
  </outline>
</glyph>
<glyph name="hcircumflex" format="1">
  <advance width="579"/>
  <unicode hex="0125"/>
  <outline>
    <contour>
      <point x="70" y="840" type="line" smooth="yes"/>
      <point x="132" y="884" type="line" smooth="yes"/>
      <point x="194" y="840" type="line" smooth="yes"/>
      <point x="336" y="840" type="line" smooth="yes"/>
      <point x="212" y="950" type="line" smooth="yes"/>
      <point x="52" y="950" type="line" smooth="yes"/>
      <point x="-72" y="840" type="line" smooth="yes"/>
    </contour>
    <contour>
      <point x="212" y="800" type="line" smooth="yes"/>
      <point x="54" y="800" type="line" smooth="yes"/>
      <point x="54" y="0" type="line" smooth="yes"/>
      <point x="212" y="0" type="line" smooth="yes"/>
      <point x="212" y="357" type="line" smooth="yes"/>
      <point x="230" y="378" type="line" smooth="yes"/>
      <point x="261" y="398" type="line" smooth="yes"/>
      <point x="305" y="407" type="line" smooth="yes"/>
      <point x="347" y="396" type="line" smooth="yes"/>
      <point x="369" y="369" type="line" smooth="yes"/>
      <point x="375" y="333" type="line" smooth="yes"/>
      <point x="375" y="0" type="line" smooth="yes"/>
      <point x="532" y="0" type="line" smooth="yes"/>
      <point x="532" y="359" type="line" smooth="yes"/>
      <point x="516" y="449" type="line" smooth="yes"/>
      <point x="464" y="517" type="line" smooth="yes"/>
      <point x="368" y="543" type="line" smooth="yes"/>
      <point x="304" y="535" type="line" smooth="yes"/>
      <point x="252" y="512" type="line" smooth="yes"/>
      <point x="212" y="479" type="line" smooth="yes"/>
    </contour>
  </outline>
</glyph>
